<?xml version="1.0" encoding="UTF-8"?>
<svg xmlns="http://www.w3.org/2000/svg" xmlns:xlink="http://www.w3.org/1999/xlink" width="50pt" height="50pt" viewBox="0 0 50 50" version="1.1">
<g id="surface1">
<path style=" stroke:none;fill-rule:nonzero;fill:rgb(51.764706%,85.882353%,100%);fill-opacity:1;" d="M 42.8125 32.1875 C 42.8125 42.082031 34.792969 50 25 50 C 15.207031 50 7.1875 42.082031 7.1875 32.1875 C 7.1875 22.292969 25 0 25 0 C 25 0 42.8125 22.394531 42.8125 32.1875 Z M 42.8125 32.1875 "/>
<path style=" stroke:none;fill-rule:nonzero;fill:rgb(100%,100%,100%);fill-opacity:1;" d="M 25 45.3125 C 17.8125 45.3125 11.875 39.480469 11.875 32.1875 C 11.875 31.355469 12.605469 30.625 13.4375 30.625 C 14.269531 30.625 15 31.355469 15 32.1875 C 15 37.707031 19.480469 42.1875 25 42.1875 C 25.832031 42.1875 26.5625 42.917969 26.5625 43.75 C 26.5625 44.582031 25.832031 45.3125 25 45.3125 Z M 25 45.3125 "/>
</g>
</svg>
