<?xml version="1.0" encoding="UTF-8"?>
<svg xmlns="http://www.w3.org/2000/svg" xmlns:xlink="http://www.w3.org/1999/xlink" width="100pt" height="100pt" viewBox="0 0 100 100" version="1.1">
<g id="surface1">
<path style=" stroke:none;fill-rule:nonzero;fill:rgb(100%,62.745098%,0%);fill-opacity:1;" d="M 63.667969 83.332031 C 63.667969 90.917969 57.519531 97.066406 49.933594 97.066406 C 42.351562 97.066406 36.203125 90.917969 36.203125 83.332031 C 36.203125 75.75 42.351562 69.601562 49.933594 69.601562 C 57.519531 69.601562 63.667969 75.75 63.667969 83.332031 Z M 63.667969 83.332031 "/>
<path style=" stroke:none;fill-rule:nonzero;fill:rgb(100%,75.686275%,2.745098%);fill-opacity:1;" d="M 89.015625 74.632812 C 82.714844 69.308594 79.101562 61.53125 79.101562 53.285156 L 79.101562 41.667969 C 79.101562 25.582031 66.015625 12.5 49.933594 12.5 C 33.855469 12.5 20.769531 25.582031 20.769531 41.667969 L 20.769531 53.285156 C 20.769531 61.53125 17.15625 69.3125 10.820312 74.671875 C 9.195312 76.054688 8.269531 78.074219 8.269531 80.207031 C 8.269531 84.230469 11.539062 87.5 15.558594 87.5 L 84.308594 87.5 C 88.332031 87.5 91.601562 84.230469 91.601562 80.207031 C 91.601562 78.074219 90.671875 76.054688 89.015625 74.632812 Z M 89.015625 74.632812 "/>
<path style=" stroke:none;fill-rule:nonzero;fill:rgb(0%,0%,0%);fill-opacity:1;" d="M 92.644531 44.792969 C 90.917969 44.792969 89.519531 43.390625 89.519531 41.667969 C 89.519531 29.699219 84.859375 18.453125 76.402344 9.992188 C 75.179688 8.769531 75.179688 6.792969 76.402344 5.570312 C 77.621094 4.351562 79.601562 4.351562 80.824219 5.570312 C 90.460938 15.210938 95.769531 28.035156 95.769531 41.667969 C 95.769531 43.390625 94.367188 44.792969 92.644531 44.792969 Z M 92.644531 44.792969 "/>
<path style=" stroke:none;fill-rule:nonzero;fill:rgb(0%,0%,0%);fill-opacity:1;" d="M 7.226562 44.792969 C 5.5 44.792969 4.101562 43.390625 4.101562 41.667969 C 4.101562 28.035156 9.410156 15.210938 19.050781 5.574219 C 20.273438 4.355469 22.25 4.355469 23.472656 5.574219 C 24.691406 6.796875 24.691406 8.773438 23.472656 9.996094 C 15.011719 18.453125 10.351562 29.699219 10.351562 41.667969 C 10.351562 43.390625 8.953125 44.792969 7.226562 44.792969 Z M 7.226562 44.792969 "/>
<path style=" stroke:none;fill-rule:nonzero;fill:rgb(0%,0%,0%);fill-opacity:1;" d="M 49.933594 100 C 41.320312 100 34.308594 92.992188 34.308594 84.375 C 34.308594 82.648438 35.710938 81.25 37.433594 81.25 C 39.160156 81.25 40.558594 82.648438 40.558594 84.375 C 40.558594 89.546875 44.765625 93.75 49.933594 93.75 C 55.105469 93.75 59.308594 89.546875 59.308594 84.375 C 59.308594 82.648438 60.710938 81.25 62.433594 81.25 C 64.160156 81.25 65.558594 82.648438 65.558594 84.375 C 65.558594 92.992188 58.550781 100 49.933594 100 Z M 49.933594 100 "/>
<path style=" stroke:none;fill-rule:nonzero;fill:rgb(0%,0%,0%);fill-opacity:1;" d="M 84.308594 87.5 L 15.558594 87.5 C 11.539062 87.5 8.269531 84.230469 8.269531 80.207031 C 8.269531 78.074219 9.195312 76.054688 10.820312 74.667969 C 17.15625 69.3125 20.769531 61.53125 20.769531 53.285156 L 20.769531 41.667969 C 20.769531 25.582031 33.851562 12.5 49.933594 12.5 C 66.019531 12.5 79.101562 25.582031 79.101562 41.667969 L 79.101562 53.285156 C 79.101562 61.53125 82.714844 69.3125 89.011719 74.636719 C 90.671875 76.054688 91.601562 78.074219 91.601562 80.207031 C 91.601562 84.230469 88.332031 87.5 84.308594 87.5 Z M 49.933594 18.75 C 37.296875 18.75 27.019531 29.027344 27.019531 41.667969 L 27.019531 53.285156 C 27.019531 63.371094 22.597656 72.894531 14.894531 79.410156 C 14.746094 79.535156 14.519531 79.792969 14.519531 80.207031 C 14.519531 80.773438 14.992188 81.25 15.558594 81.25 L 84.308594 81.25 C 84.875 81.25 85.351562 80.773438 85.351562 80.207031 C 85.351562 79.792969 85.121094 79.535156 84.984375 79.417969 C 77.273438 72.894531 72.851562 63.371094 72.851562 53.285156 L 72.851562 41.667969 C 72.851562 29.027344 62.574219 18.75 49.933594 18.75 Z M 49.933594 18.75 "/>
<path style=" stroke:none;fill-rule:nonzero;fill:rgb(0%,0%,0%);fill-opacity:1;" d="M 49.933594 18.75 C 48.210938 18.75 46.808594 17.351562 46.808594 15.625 L 46.808594 3.125 C 46.808594 1.398438 48.210938 0 49.933594 0 C 51.660156 0 53.058594 1.398438 53.058594 3.125 L 53.058594 15.625 C 53.058594 17.351562 51.660156 18.75 49.933594 18.75 Z M 49.933594 18.75 "/>
</g>
</svg>
