<?xml version="1.0" encoding="UTF-8"?>
<svg xmlns="http://www.w3.org/2000/svg" xmlns:xlink="http://www.w3.org/1999/xlink" width="100pt" height="100pt" viewBox="0 0 100 100" version="1.1">
<g id="surface1">
<path style=" stroke:none;fill-rule:nonzero;fill:rgb(30.980392%,75.686275%,91.372549%);fill-opacity:1;" d="M 45.3125 78.125 L 73.4375 78.125 L 73.4375 96.875 L 45.3125 96.875 Z M 45.3125 78.125 "/>
<path style=" stroke:none;fill-rule:nonzero;fill:rgb(30.980392%,75.686275%,91.372549%);fill-opacity:1;" d="M 45.3125 65.625 L 73.4375 65.625 L 73.4375 71.875 L 45.3125 71.875 Z M 45.3125 65.625 "/>
<path style=" stroke:none;fill-rule:nonzero;fill:rgb(94.117647%,81.568627%,70.588235%);fill-opacity:1;" d="M 48.203125 43.75 L 81.25 43.75 L 81.25 44.046875 C 81.25 51.9375 78.484375 59.5625 73.4375 65.625 L 45.3125 65.625 L 41.46875 62.328125 C 36.96875 58.46875 34.375 52.84375 34.375 46.90625 L 34.375 42.03125 C 34.375 36.96875 33.40625 31.96875 31.53125 27.265625 C 31.34375 26.796875 31.25 26.3125 31.25 25.8125 C 31.25 25.8125 31.25 25.8125 31.25 25.796875 C 31.25 23.640625 33 21.875 35.203125 21.875 C 37.5 21.875 39.578125 22.78125 41.109375 24.25 C 41.15625 24.28125 41.203125 24.328125 41.25 24.375 C 42.796875 25.921875 43.75 28.0625 43.75 30.421875 L 43.75 39.0625 C 45.578125 40.28125 47.09375 41.890625 48.1875 43.75 Z M 48.203125 43.75 "/>
<path style=" stroke:none;fill-rule:nonzero;fill:rgb(94.117647%,81.568627%,70.588235%);fill-opacity:1;" d="M 62.5 7.8125 L 62.5 9.375 C 62.5 11.09375 61.09375 12.5 59.375 12.5 L 56.25 12.5 C 54.53125 12.5 53.125 11.09375 53.125 9.375 L 53.125 7.8125 C 53.125 5.21875 55.21875 3.125 57.8125 3.125 C 59.109375 3.125 60.28125 3.65625 61.125 4.5 C 61.96875 5.34375 62.5 6.515625 62.5 7.8125 Z M 62.5 7.8125 "/>
<path style=" stroke:none;fill-rule:nonzero;fill:rgb(94.117647%,81.568627%,70.588235%);fill-opacity:1;" d="M 81.25 7.8125 L 81.25 9.375 C 81.25 11.09375 79.84375 12.5 78.125 12.5 L 75 12.5 C 73.28125 12.5 71.875 11.09375 71.875 9.375 L 71.875 7.8125 C 71.875 5.21875 73.96875 3.125 76.5625 3.125 C 77.859375 3.125 79.03125 3.65625 79.875 4.5 C 80.71875 5.34375 81.25 6.515625 81.25 7.8125 Z M 81.25 7.8125 "/>
<path style=" stroke:none;fill-rule:nonzero;fill:rgb(94.117647%,81.568627%,70.588235%);fill-opacity:1;" d="M 53.125 7.8125 L 53.125 9.375 C 53.125 11.09375 51.71875 12.5 50 12.5 L 46.875 12.5 C 45.15625 12.5 43.75 11.09375 43.75 9.375 L 43.75 7.8125 C 43.75 5.21875 45.84375 3.125 48.4375 3.125 C 49.734375 3.125 50.90625 3.65625 51.75 4.5 C 52.59375 5.34375 53.125 6.515625 53.125 7.8125 Z M 53.125 7.8125 "/>
<path style=" stroke:none;fill-rule:nonzero;fill:rgb(94.117647%,81.568627%,70.588235%);fill-opacity:1;" d="M 71.875 9.375 C 71.875 11.09375 70.46875 12.5 68.75 12.5 L 65.625 12.5 C 63.90625 12.5 62.5 11.09375 62.5 9.375 L 62.5 7.8125 C 62.5 5.21875 64.59375 3.125 67.1875 3.125 C 68.484375 3.125 69.65625 3.65625 70.5 4.5 C 71.34375 5.34375 71.875 6.515625 71.875 7.8125 Z M 71.875 9.375 "/>
<path style=" stroke:none;fill-rule:nonzero;fill:rgb(36.078431%,83.921569%,70.196078%);fill-opacity:1;" d="M 50 12.5 L 56.25 12.5 C 48.953125 12.5 42.828125 17.5 41.109375 24.25 C 39.578125 22.78125 37.5 21.875 35.203125 21.875 C 33 21.875 31.25 23.640625 31.25 25.796875 L 31.25 25.8125 C 31.25 26.3125 31.34375 26.796875 31.53125 27.265625 C 33.40625 31.96875 34.375 36.96875 34.375 42.03125 L 34.375 43.75 L 31.25 43.75 C 31.25 38.578125 27.046875 34.375 21.875 34.375 L 21.875 21.875 C 27.046875 21.875 31.25 17.671875 31.25 12.5 Z M 50 12.5 "/>
<path style=" stroke:none;fill-rule:nonzero;fill:rgb(36.078431%,83.921569%,70.196078%);fill-opacity:1;" d="M 68.75 12.5 L 81.25 12.5 C 81.25 17.671875 85.453125 21.875 90.625 21.875 L 90.625 34.375 C 85.453125 34.375 81.25 38.578125 81.25 43.75 L 56.25 43.75 C 64.875 43.75 71.875 36.75 71.875 28.125 C 71.875 19.5 64.875 12.5 56.25 12.5 Z M 68.75 12.5 "/>
<path style=" stroke:none;fill-rule:nonzero;fill:rgb(21.568627%,73.72549%,60.784314%);fill-opacity:1;" d="M 31.25 43.75 L 23.4375 43.75 C 22.578125 43.75 21.875 43.046875 21.875 42.1875 L 21.875 34.375 C 27.046875 34.375 31.25 38.578125 31.25 43.75 Z M 31.25 43.75 "/>
<path style=" stroke:none;fill-rule:nonzero;fill:rgb(21.568627%,73.72549%,60.784314%);fill-opacity:1;" d="M 23.4375 12.5 L 31.25 12.5 C 31.25 17.671875 27.046875 21.875 21.875 21.875 L 21.875 14.0625 C 21.875 13.203125 22.578125 12.5 23.4375 12.5 Z M 23.4375 12.5 "/>
<path style=" stroke:none;fill-rule:nonzero;fill:rgb(21.568627%,73.72549%,60.784314%);fill-opacity:1;" d="M 90.625 14.140625 L 90.625 21.789062 C 90.625 21.835938 90.585938 21.875 90.539062 21.875 C 85.4375 21.828125 81.296875 17.6875 81.25 12.585938 C 81.25 12.539062 81.289062 12.5 81.335938 12.5 L 88.980469 12.5 C 89.886719 12.5 90.625 13.238281 90.625 14.140625 Z M 90.625 14.140625 "/>
<path style=" stroke:none;fill-rule:nonzero;fill:rgb(21.568627%,73.72549%,60.784314%);fill-opacity:1;" d="M 90.625 34.375 L 90.625 42.1875 C 90.625 43.046875 89.921875 43.75 89.0625 43.75 L 81.25 43.75 C 81.25 38.578125 85.453125 34.375 90.625 34.375 Z M 90.625 34.375 "/>
<path style=" stroke:none;fill-rule:nonzero;fill:rgb(21.568627%,73.72549%,60.784314%);fill-opacity:1;" d="M 55.636719 43.75 L 48.1875 43.75 C 47.101562 41.902344 45.597656 40.300781 43.785156 39.085938 C 43.761719 39.070312 43.75 39.046875 43.75 39.023438 L 43.75 30.421875 C 43.75 28.0625 42.796875 25.921875 41.25 24.375 C 41.203125 24.328125 41.15625 24.28125 41.109375 24.25 C 42.828125 17.5 48.953125 12.5 56.25 12.5 C 65.199219 12.5 72.398438 20.035156 71.84375 29.101562 C 71.335938 37.449219 64 43.75 55.636719 43.75 Z M 55.636719 43.75 "/>
<path style=" stroke:none;fill-rule:nonzero;fill:rgb(82.745098%,62.745098%,42.352941%);fill-opacity:1;" d="M 34.375 78.125 L 34.375 79.6875 C 34.375 80.546875 33.671875 81.25 32.8125 81.25 L 28.125 81.25 L 28.125 68.75 L 32.8125 68.75 C 33.671875 68.75 34.375 69.453125 34.375 70.3125 Z M 34.375 78.125 "/>
<path style=" stroke:none;fill-rule:nonzero;fill:rgb(69.803922%,47.45098%,27.45098%);fill-opacity:1;" d="M 87.5 71.875 L 87.5 78.125 L 34.375 78.125 L 34.375 71.875 Z M 87.5 71.875 "/>
<path style=" stroke:none;fill-rule:nonzero;fill:rgb(69.803922%,47.45098%,27.45098%);fill-opacity:1;" d="M 31.25 54.6875 L 31.25 57.8125 C 31.25 58.671875 30.546875 59.375 29.6875 59.375 L 4.6875 59.375 C 3.828125 59.375 3.125 58.671875 3.125 57.8125 L 3.125 54.6875 C 3.125 53.828125 3.828125 53.125 4.6875 53.125 L 29.6875 53.125 C 30.546875 53.125 31.25 53.828125 31.25 54.6875 Z M 31.25 54.6875 "/>
<path style=" stroke:none;fill-rule:nonzero;fill:rgb(69.803922%,47.45098%,27.45098%);fill-opacity:1;" d="M 31.25 92.1875 L 31.25 95.3125 C 31.25 96.171875 30.546875 96.875 29.6875 96.875 L 4.6875 96.875 C 3.828125 96.875 3.125 96.171875 3.125 95.3125 L 3.125 92.1875 C 3.125 91.328125 3.828125 90.625 4.6875 90.625 L 29.6875 90.625 C 30.546875 90.625 31.25 91.328125 31.25 92.1875 Z M 31.25 92.1875 "/>
<path style=" stroke:none;fill-rule:nonzero;fill:rgb(82.745098%,62.745098%,42.352941%);fill-opacity:1;" d="M 6.25 84.375 L 28.125 84.375 L 28.125 90.625 L 6.25 90.625 Z M 6.25 84.375 "/>
<path style=" stroke:none;fill-rule:nonzero;fill:rgb(82.745098%,62.745098%,42.352941%);fill-opacity:1;" d="M 6.25 59.375 L 28.125 59.375 L 28.125 65.625 L 6.25 65.625 Z M 6.25 59.375 "/>
<path style=" stroke:none;fill-rule:nonzero;fill:rgb(81.176471%,61.960784%,46.27451%);fill-opacity:1;" d="M 28.125 81.25 L 28.125 84.375 L 6.25 84.375 L 6.25 65.625 L 28.125 65.625 Z M 28.125 81.25 "/>
<path style=" stroke:none;fill-rule:nonzero;fill:rgb(98.823529%,84.313725%,43.921569%);fill-opacity:1;" d="M 95.046875 70.578125 C 96.171875 71.71875 96.875 73.28125 96.875 75 C 96.875 76.71875 96.171875 78.28125 95.046875 79.421875 C 93.90625 80.546875 92.34375 81.25 90.625 81.25 C 88.90625 81.25 87.5 79.84375 87.5 78.125 L 87.5 71.875 C 87.5 71.015625 87.84375 70.234375 88.421875 69.671875 C 88.984375 69.09375 89.765625 68.75 90.625 68.75 C 92.34375 68.75 93.90625 69.453125 95.046875 70.578125 Z M 95.046875 70.578125 "/>
<path style=" stroke:none;fill-rule:nonzero;fill:rgb(0%,0%,0%);fill-opacity:1;" d="M 57.8125 39.0625 L 57.8125 35.9375 L 60.9375 35.9375 L 60.9375 31.25 C 60.9375 28.664062 58.835938 26.5625 56.25 26.5625 C 55.390625 26.5625 54.6875 25.859375 54.6875 25 L 54.6875 23.4375 L 56.25 23.4375 C 57.109375 23.4375 57.8125 24.140625 57.8125 25 L 57.8125 26.5625 L 60.9375 26.5625 L 60.9375 25 C 60.9375 22.964844 59.625 21.246094 57.8125 20.601562 L 57.8125 17.1875 L 54.6875 17.1875 L 54.6875 20.3125 L 51.5625 20.3125 L 51.5625 25 C 51.5625 27.585938 53.664062 29.6875 56.25 29.6875 C 57.109375 29.6875 57.8125 30.390625 57.8125 31.25 L 57.8125 32.8125 L 56.25 32.8125 C 55.390625 32.8125 54.6875 32.109375 54.6875 31.25 L 54.6875 29.6875 L 51.5625 29.6875 L 51.5625 31.25 C 51.5625 33.285156 52.875 35.003906 54.6875 35.648438 L 54.6875 39.0625 Z M 57.8125 39.0625 "/>
<path style=" stroke:none;fill-rule:nonzero;fill:rgb(0%,0%,0%);fill-opacity:1;" d="M 90.625 67.1875 C 88.589844 67.1875 86.871094 68.5 86.226562 70.3125 L 75 70.3125 L 75 66.183594 C 79.777344 60.257812 82.484375 52.90625 82.757812 45.3125 L 89.0625 45.3125 C 90.785156 45.3125 92.1875 43.910156 92.1875 42.1875 L 92.1875 14.0625 C 92.1875 12.339844 90.785156 10.9375 89.0625 10.9375 L 82.523438 10.9375 C 82.699219 10.445312 82.8125 9.925781 82.8125 9.375 L 82.8125 7.8125 C 82.8125 4.367188 80.007812 1.5625 76.5625 1.5625 C 74.6875 1.5625 73.023438 2.410156 71.875 3.722656 C 70.726562 2.410156 69.0625 1.5625 67.1875 1.5625 C 65.3125 1.5625 63.648438 2.410156 62.5 3.722656 C 61.351562 2.410156 59.6875 1.5625 57.8125 1.5625 C 55.9375 1.5625 54.273438 2.410156 53.125 3.722656 C 51.976562 2.410156 50.3125 1.5625 48.4375 1.5625 C 44.992188 1.5625 42.1875 4.367188 42.1875 7.8125 L 42.1875 9.375 C 42.1875 9.925781 42.300781 10.445312 42.476562 10.9375 L 23.4375 10.9375 C 21.714844 10.9375 20.3125 12.339844 20.3125 14.0625 L 20.3125 42.1875 C 20.3125 43.910156 21.714844 45.3125 23.4375 45.3125 L 32.8125 45.3125 L 32.8125 46.90625 C 32.8125 53.300781 35.597656 59.355469 40.453125 63.515625 L 43.75 66.34375 L 43.75 70.3125 L 35.9375 70.3125 C 35.9375 68.589844 34.535156 67.1875 32.8125 67.1875 L 29.6875 67.1875 L 29.6875 60.9375 C 31.410156 60.9375 32.8125 59.535156 32.8125 57.8125 L 32.8125 54.6875 C 32.8125 52.964844 31.410156 51.5625 29.6875 51.5625 L 4.6875 51.5625 C 2.964844 51.5625 1.5625 52.964844 1.5625 54.6875 L 1.5625 57.8125 C 1.5625 59.535156 2.964844 60.9375 4.6875 60.9375 L 4.6875 89.0625 C 2.964844 89.0625 1.5625 90.464844 1.5625 92.1875 L 1.5625 95.3125 C 1.5625 97.035156 2.964844 98.4375 4.6875 98.4375 L 29.6875 98.4375 C 31.410156 98.4375 32.8125 97.035156 32.8125 95.3125 L 32.8125 92.1875 C 32.8125 90.464844 31.410156 89.0625 29.6875 89.0625 L 29.6875 82.8125 L 32.8125 82.8125 C 34.535156 82.8125 35.9375 81.410156 35.9375 79.6875 L 43.75 79.6875 L 43.75 98.4375 L 75 98.4375 L 75 79.6875 L 86.226562 79.6875 C 86.871094 81.5 88.589844 82.8125 90.625 82.8125 C 94.933594 82.8125 98.4375 79.308594 98.4375 75 C 98.4375 70.691406 94.933594 67.1875 90.625 67.1875 Z M 7.8125 67.1875 L 26.5625 67.1875 L 26.5625 82.8125 L 7.8125 82.8125 Z M 4.6875 54.6875 L 29.6875 54.6875 L 29.6875 57.8125 L 4.6875 57.8125 Z M 26.5625 60.9375 L 26.5625 64.0625 L 7.8125 64.0625 L 7.8125 60.9375 Z M 29.6875 95.3125 L 4.6875 95.3125 L 4.6875 92.1875 L 29.6875 92.1875 Z M 7.8125 89.0625 L 7.8125 85.9375 L 26.5625 85.9375 L 26.5625 89.0625 Z M 32.8125 79.6875 L 29.6875 79.6875 L 29.6875 70.3125 L 32.8125 70.3125 Z M 45.3125 38.253906 L 45.3125 30.425781 C 45.3125 27.980469 44.445312 25.671875 42.863281 23.839844 C 44.710938 18.046875 50.097656 14.0625 56.25 14.0625 C 64.003906 14.0625 70.3125 20.371094 70.3125 28.125 C 70.3125 35.878906 64.003906 42.1875 56.25 42.1875 L 49.058594 42.1875 C 48.046875 40.683594 46.785156 39.351562 45.3125 38.253906 Z M 30.078125 27.84375 C 31.890625 32.375 32.8125 37.148438 32.8125 42.03125 L 32.8125 42.1875 L 32.6875 42.1875 C 32 37.40625 28.21875 33.625 23.4375 32.9375 L 23.4375 23.3125 C 28.21875 22.625 32 18.84375 32.6875 14.0625 L 46.382812 14.0625 C 43.703125 15.941406 41.574219 18.574219 40.3125 21.710938 C 38.78125 20.804688 37.03125 20.3125 35.203125 20.3125 C 32.160156 20.3125 29.6875 22.777344 29.6875 25.804688 C 29.6875 26.507812 29.820312 27.195312 30.078125 27.84375 Z M 73.4375 28.125 C 73.4375 22.3125 70.53125 17.175781 66.101562 14.0625 L 79.8125 14.0625 C 80.5 18.84375 84.28125 22.625 89.0625 23.3125 L 89.0625 32.9375 C 84.28125 33.625 80.5 37.40625 79.8125 42.1875 L 66.101562 42.1875 C 70.53125 39.074219 73.4375 33.9375 73.4375 28.125 Z M 82.96875 42.1875 C 83.59375 39.132812 86.007812 36.71875 89.0625 36.09375 L 89.0625 42.1875 Z M 89.0625 20.15625 C 86.007812 19.53125 83.59375 17.117188 82.96875 14.0625 L 89.0625 14.0625 Z M 76.5625 4.6875 C 78.285156 4.6875 79.6875 6.089844 79.6875 7.8125 L 79.6875 9.375 C 79.6875 10.234375 78.984375 10.9375 78.125 10.9375 L 75 10.9375 C 74.140625 10.9375 73.4375 10.234375 73.4375 9.375 L 73.4375 7.8125 C 73.4375 6.089844 74.839844 4.6875 76.5625 4.6875 Z M 67.1875 4.6875 C 68.910156 4.6875 70.3125 6.089844 70.3125 7.8125 L 70.3125 9.375 C 70.3125 10.234375 69.609375 10.9375 68.75 10.9375 L 65.625 10.9375 C 64.765625 10.9375 64.0625 10.234375 64.0625 9.375 L 64.0625 7.8125 C 64.0625 6.089844 65.464844 4.6875 67.1875 4.6875 Z M 57.8125 4.6875 C 59.535156 4.6875 60.9375 6.089844 60.9375 7.8125 L 60.9375 9.375 C 60.9375 10.234375 60.234375 10.9375 59.375 10.9375 L 56.25 10.9375 C 55.390625 10.9375 54.6875 10.234375 54.6875 9.375 L 54.6875 7.8125 C 54.6875 6.089844 56.089844 4.6875 57.8125 4.6875 Z M 45.3125 9.375 L 45.3125 7.8125 C 45.3125 6.089844 46.714844 4.6875 48.4375 4.6875 C 50.160156 4.6875 51.5625 6.089844 51.5625 7.8125 L 51.5625 9.375 C 51.5625 10.234375 50.859375 10.9375 50 10.9375 L 46.875 10.9375 C 46.015625 10.9375 45.3125 10.234375 45.3125 9.375 Z M 29.53125 14.0625 C 28.90625 17.117188 26.492188 19.53125 23.4375 20.15625 L 23.4375 14.0625 Z M 23.4375 36.09375 C 26.492188 36.71875 28.90625 39.132812 29.53125 42.1875 L 23.4375 42.1875 Z M 42.484375 61.144531 C 38.324219 57.578125 35.9375 52.386719 35.9375 46.90625 L 35.9375 42.03125 C 35.9375 36.75 34.941406 31.585938 32.980469 26.6875 C 32.871094 26.40625 32.8125 26.109375 32.8125 25.804688 C 32.8125 24.5 33.882812 23.4375 35.203125 23.4375 C 37.066406 23.4375 38.820312 24.164062 40.140625 25.484375 C 41.460938 26.804688 42.1875 28.558594 42.1875 30.425781 L 42.1875 39.898438 L 42.882812 40.363281 C 45.582031 42.164062 47.5 44.886719 48.289062 48.03125 L 48.484375 48.816406 L 51.515625 48.058594 L 51.320312 47.273438 C 51.148438 46.601562 50.925781 45.953125 50.679688 45.3125 L 79.632812 45.3125 C 79.359375 52.132812 76.921875 58.71875 72.664062 64.0625 L 45.890625 64.0625 Z M 46.875 67.1875 L 71.875 67.1875 L 71.875 70.3125 L 46.875 70.3125 Z M 35.9375 73.4375 L 85.9375 73.4375 L 85.9375 76.5625 L 35.9375 76.5625 Z M 71.875 95.3125 L 46.875 95.3125 L 46.875 79.6875 L 71.875 79.6875 Z M 90.625 79.6875 C 89.765625 79.6875 89.0625 78.984375 89.0625 78.125 L 89.0625 71.875 C 89.0625 71.015625 89.765625 70.3125 90.625 70.3125 C 93.210938 70.3125 95.3125 72.414062 95.3125 75 C 95.3125 77.585938 93.210938 79.6875 90.625 79.6875 Z M 90.625 79.6875 "/>
</g>
</svg>
