<?xml version="1.0" encoding="UTF-8"?>
<svg xmlns="http://www.w3.org/2000/svg" xmlns:xlink="http://www.w3.org/1999/xlink" width="100pt" height="100pt" viewBox="0 0 100 100" version="1.1">
<defs>
<linearGradient id="linear0" gradientUnits="userSpaceOnUse" x1="58" y1="394" x2="138" y2="314" gradientTransform="matrix(0.195312,0,0,0.195312,0,0)">
<stop offset="0.011" style="stop-color:rgb(37.647059%,37.647059%,50.980392%);stop-opacity:1;"/>
<stop offset="1" style="stop-color:rgb(51.372549%,51.372549%,61.960784%);stop-opacity:1;"/>
</linearGradient>
<linearGradient id="linear1" gradientUnits="userSpaceOnUse" x1="122.544" y1="404.485" x2="419.515" y2="107.515" gradientTransform="matrix(0.195312,0,0,0.195312,0,0)">
<stop offset="0.011" style="stop-color:rgb(86.27451%,86.27451%,89.019608%);stop-opacity:1;"/>
<stop offset="1" style="stop-color:rgb(92.941176%,92.941176%,94.509804%);stop-opacity:1;"/>
</linearGradient>
<linearGradient id="linear2" gradientUnits="userSpaceOnUse" x1="28.544" y1="310.485" x2="137.515" y2="201.515" gradientTransform="matrix(0.195312,0,0,0.195312,0,0)">
<stop offset="0.011" style="stop-color:rgb(98.039216%,83.137255%,41.568627%);stop-opacity:1;"/>
<stop offset="1" style="stop-color:rgb(98.823529%,90.196078%,66.666667%);stop-opacity:1;"/>
</linearGradient>
<linearGradient id="linear3" gradientUnits="userSpaceOnUse" x1="273.858" y1="358.142" x2="478.142" y2="153.858" gradientTransform="matrix(0.195312,0,0,0.195312,0,0)">
<stop offset="0" style="stop-color:rgb(83.137255%,40%,41.176471%);stop-opacity:1;"/>
<stop offset="1" style="stop-color:rgb(86.666667%,53.333333%,54.117647%);stop-opacity:1;"/>
</linearGradient>
<linearGradient id="linear4" gradientUnits="userSpaceOnUse" x1="12.544" y1="294.485" x2="474.368" y2="-167.338" gradientTransform="matrix(0.195312,0,0,0.195312,0,0)">
<stop offset="0" style="stop-color:rgb(83.137255%,40%,41.176471%);stop-opacity:1;"/>
<stop offset="1" style="stop-color:rgb(86.666667%,53.333333%,54.117647%);stop-opacity:1;"/>
</linearGradient>
</defs>
<g id="surface1">
<path style=" stroke:none;fill-rule:nonzero;fill:url(#linear0);" d="M 14.0625 79.6875 L 21.875 79.6875 L 26.5625 60.9375 L 14.0625 60.9375 Z M 14.0625 79.6875 "/>
<path style=" stroke:none;fill-rule:nonzero;fill:url(#linear1);" d="M 26.5625 39.0625 L 7.8125 39.0625 C 5.222656 39.0625 3.125 41.160156 3.125 43.75 L 3.125 56.25 C 3.125 58.839844 5.222656 60.9375 7.8125 60.9375 L 26.5625 60.9375 C 34.375 60.9375 62.5 70.3125 73.4375 87.5 L 73.4375 12.5 C 62.5 29.6875 34.375 39.0625 26.5625 39.0625 Z M 26.5625 39.0625 "/>
<path style=" stroke:none;fill-rule:nonzero;fill:url(#linear2);" d="M 26.5625 60.9375 L 26.5625 39.0625 L 7.8125 39.0625 C 5.222656 39.0625 3.125 41.160156 3.125 43.75 L 3.125 56.25 C 3.125 58.839844 5.222656 60.9375 7.8125 60.9375 Z M 26.5625 60.9375 "/>
<path style=" stroke:none;fill-rule:nonzero;fill:url(#linear3);" d="M 73.4375 11.71875 C 71.28125 11.71875 69.53125 13.46875 69.53125 15.625 L 69.53125 84.375 C 69.53125 86.53125 71.28125 88.28125 73.4375 88.28125 C 75.59375 88.28125 77.34375 86.53125 77.34375 84.375 L 77.34375 15.625 C 77.34375 13.46875 75.59375 11.71875 73.4375 11.71875 Z M 73.4375 11.71875 "/>
<path style=" stroke:none;fill-rule:nonzero;fill:url(#linear4);" d="M 7.8125 39.0625 C 5.222656 39.0625 3.125 41.160156 3.125 43.75 L 3.125 56.25 C 3.125 58.839844 5.222656 60.9375 7.8125 60.9375 L 14.0625 60.9375 L 14.0625 39.0625 Z M 7.8125 39.0625 "/>
<path style=" stroke:none;fill-rule:nonzero;fill:rgb(0%,0%,0%);fill-opacity:1;" d="M 73.4375 9.375 C 69.988281 9.378906 67.191406 12.175781 67.1875 15.625 L 67.1875 16.664062 C 60.515625 23.726562 51.488281 28.5625 44.996094 31.40625 C 37.023438 34.894531 29.6875 36.71875 26.5625 36.71875 L 7.8125 36.71875 C 3.929688 36.722656 0.785156 39.867188 0.78125 43.75 L 0.78125 56.25 C 0.785156 60.132812 3.929688 63.277344 7.8125 63.28125 L 11.71875 63.28125 L 11.71875 79.6875 C 11.71875 80.980469 12.769531 82.03125 14.0625 82.03125 L 21.875 82.03125 C 22.949219 82.03125 23.886719 81.300781 24.148438 80.257812 L 28.359375 63.421875 C 32.035156 63.90625 38.289062 65.660156 44.996094 68.597656 C 51.488281 71.4375 60.515625 76.273438 67.1875 83.335938 L 67.1875 84.375 C 67.1875 87.828125 69.984375 90.625 73.4375 90.625 C 76.890625 90.625 79.6875 87.828125 79.6875 84.375 L 79.6875 15.625 C 79.683594 12.175781 76.886719 9.378906 73.4375 9.375 Z M 24.21875 58.59375 L 16.40625 58.59375 L 16.40625 41.40625 L 24.21875 41.40625 Z M 5.46875 56.25 L 5.46875 43.75 C 5.46875 42.457031 6.519531 41.40625 7.8125 41.40625 L 11.71875 41.40625 L 11.71875 58.59375 L 7.8125 58.59375 C 6.519531 58.59375 5.46875 57.542969 5.46875 56.25 Z M 20.046875 77.34375 L 16.40625 77.34375 L 16.40625 63.28125 L 23.5625 63.28125 Z M 28.90625 58.773438 L 28.90625 41.226562 C 37.144531 40.128906 54.871094 34.027344 67.1875 23.167969 L 67.1875 76.832031 C 54.871094 65.972656 37.144531 59.871094 28.90625 58.773438 Z M 75 84.375 C 75 85.238281 74.300781 85.9375 73.4375 85.9375 C 72.574219 85.9375 71.875 85.238281 71.875 84.375 L 71.875 15.625 C 71.875 14.761719 72.574219 14.0625 73.4375 14.0625 C 74.300781 14.0625 75 14.761719 75 15.625 Z M 75 84.375 "/>
<path style=" stroke:none;fill-rule:nonzero;fill:rgb(0%,0%,0%);fill-opacity:1;" d="M 96.875 47.65625 L 89.0625 47.65625 C 87.769531 47.65625 86.71875 48.707031 86.71875 50 C 86.71875 51.292969 87.769531 52.34375 89.0625 52.34375 L 96.875 52.34375 C 98.167969 52.34375 99.21875 51.292969 99.21875 50 C 99.21875 48.707031 98.167969 47.65625 96.875 47.65625 Z M 96.875 47.65625 "/>
<path style=" stroke:none;fill-rule:nonzero;fill:rgb(0%,0%,0%);fill-opacity:1;" d="M 85.207031 35.417969 C 85.558594 35.417969 85.902344 35.335938 86.21875 35.183594 L 93.261719 31.800781 C 94.429688 31.238281 94.917969 29.839844 94.359375 28.671875 C 93.796875 27.503906 92.398438 27.015625 91.230469 27.574219 L 84.191406 30.960938 C 83.203125 31.433594 82.675781 32.527344 82.917969 33.59375 C 83.164062 34.660156 84.113281 35.417969 85.207031 35.417969 Z M 85.207031 35.417969 "/>
<path style=" stroke:none;fill-rule:nonzero;fill:rgb(0%,0%,0%);fill-opacity:1;" d="M 93.261719 68.199219 L 86.222656 64.816406 C 85.054688 64.265625 83.664062 64.757812 83.105469 65.917969 C 82.550781 67.078125 83.03125 68.472656 84.191406 69.039062 L 91.230469 72.425781 C 92.398438 72.984375 93.796875 72.496094 94.359375 71.328125 C 94.917969 70.160156 94.429688 68.761719 93.261719 68.199219 Z M 93.261719 68.199219 "/>
</g>
</svg>
