<?xml version="1.0" encoding="UTF-8"?>
<svg xmlns="http://www.w3.org/2000/svg" xmlns:xlink="http://www.w3.org/1999/xlink" width="100pt" height="100pt" viewBox="0 0 100 100" version="1.1">
<g id="surface1">
<path style=" stroke:none;fill-rule:nonzero;fill:rgb(24.705882%,24.705882%,24.705882%);fill-opacity:1;" d="M 1.613281 91.933594 L 98.386719 91.933594 L 98.386719 98.386719 L 1.613281 98.386719 Z M 1.613281 91.933594 "/>
<path style=" stroke:none;fill-rule:nonzero;fill:rgb(44.313725%,44.313725%,44.313725%);fill-opacity:1;" d="M 4.839844 91.933594 L 4.839844 85.484375 L 95.160156 85.484375 L 95.160156 91.933594 "/>
<path style=" stroke:none;fill-rule:nonzero;fill:rgb(65.098039%,65.098039%,65.098039%);fill-opacity:1;" d="M 8.066406 85.484375 L 8.066406 79.03125 L 91.933594 79.03125 L 91.933594 85.484375 "/>
<path style=" stroke:none;fill-rule:nonzero;fill:rgb(52.941176%,41.960784%,37.647059%);fill-opacity:1;" d="M 54.839844 69.355469 L 45.160156 69.355469 C 39.816406 69.355469 35.484375 73.6875 35.484375 79.03125 L 64.515625 79.03125 C 64.515625 73.6875 60.183594 69.355469 54.839844 69.355469 Z M 54.839844 69.355469 "/>
<path style=" stroke:none;fill-rule:nonzero;fill:rgb(72.941176%,61.176471%,56.470588%);fill-opacity:1;" d="M 46.773438 12.902344 L 46.773438 69.355469 L 53.226562 69.355469 L 53.226562 12.902344 "/>
<path style=" stroke:none;fill-rule:nonzero;fill:rgb(52.941176%,41.960784%,37.647059%);fill-opacity:1;" d="M 56.453125 8.066406 C 56.453125 11.628906 53.5625 14.515625 50 14.515625 C 46.4375 14.515625 43.546875 11.628906 43.546875 8.066406 C 43.546875 4.5 46.4375 1.613281 50 1.613281 C 53.5625 1.613281 56.453125 4.5 56.453125 8.066406 Z M 56.453125 8.066406 "/>
<path style=" stroke:none;fill-rule:nonzero;fill:rgb(86.27451%,58.823529%,20.784314%);fill-opacity:1;" d="M 25.804688 61.289062 C 19.570312 61.289062 14.515625 56.234375 14.515625 50 L 14.515625 48.386719 L 37.097656 48.386719 L 37.097656 50 C 37.097656 56.234375 32.042969 61.289062 25.804688 61.289062 Z M 25.804688 61.289062 "/>
<path style=" stroke:none;fill-rule:nonzero;fill:rgb(86.27451%,58.823529%,20.784314%);fill-opacity:1;" d="M 74.195312 61.289062 C 67.957031 61.289062 62.902344 56.234375 62.902344 50 L 62.902344 48.386719 L 85.484375 48.386719 L 85.484375 50 C 85.484375 56.234375 80.429688 61.289062 74.195312 61.289062 Z M 74.195312 61.289062 "/>
<path style=" stroke:none;fill-rule:nonzero;fill:rgb(96.078431%,74.901961%,27.058824%);fill-opacity:1;" d="M 24.195312 61.160156 C 29.664062 60.378906 33.871094 55.683594 33.871094 50 L 33.871094 48.386719 L 14.515625 48.386719 L 14.515625 50 C 14.515625 55.6875 18.722656 60.378906 24.195312 61.160156 Z M 24.195312 61.160156 "/>
<path style=" stroke:none;fill-rule:nonzero;fill:rgb(96.078431%,74.901961%,27.058824%);fill-opacity:1;" d="M 72.582031 61.160156 C 78.050781 60.378906 82.257812 55.683594 82.257812 50 L 82.257812 48.386719 L 62.902344 48.386719 L 62.902344 50 C 62.902344 55.6875 67.109375 60.378906 72.582031 61.160156 Z M 72.582031 61.160156 "/>
<path style=" stroke:none;fill-rule:nonzero;fill:rgb(0%,0%,0%);fill-opacity:1;" d="M 98.386719 100 L 1.613281 100 C 0.722656 100 0 99.28125 0 98.386719 L 0 91.933594 C 0 91.042969 0.722656 90.324219 1.613281 90.324219 L 98.386719 90.324219 C 99.277344 90.324219 100 91.042969 100 91.933594 L 100 98.386719 C 100 99.28125 99.277344 100 98.386719 100 Z M 3.226562 96.773438 L 96.773438 96.773438 L 96.773438 93.546875 L 3.226562 93.546875 Z M 3.226562 96.773438 "/>
<path style=" stroke:none;fill-rule:nonzero;fill:rgb(0%,0%,0%);fill-opacity:1;" d="M 96.773438 91.933594 L 93.546875 91.933594 L 93.546875 87.097656 L 6.453125 87.097656 L 6.453125 91.933594 L 3.226562 91.933594 L 3.226562 85.484375 C 3.226562 84.589844 3.949219 83.871094 4.839844 83.871094 L 95.160156 83.871094 C 96.050781 83.871094 96.773438 84.589844 96.773438 85.484375 Z M 96.773438 91.933594 "/>
<path style=" stroke:none;fill-rule:nonzero;fill:rgb(0%,0%,0%);fill-opacity:1;" d="M 93.546875 85.484375 L 90.324219 85.484375 L 90.324219 80.644531 L 9.675781 80.644531 L 9.675781 85.484375 L 6.453125 85.484375 L 6.453125 79.03125 C 6.453125 78.140625 7.175781 77.417969 8.066406 77.417969 L 91.933594 77.417969 C 92.824219 77.417969 93.546875 78.140625 93.546875 79.03125 Z M 93.546875 85.484375 "/>
<path style=" stroke:none;fill-rule:nonzero;fill:rgb(0%,0%,0%);fill-opacity:1;" d="M 64.515625 80.644531 L 35.484375 80.644531 C 34.59375 80.644531 33.871094 79.925781 33.871094 79.03125 C 33.871094 72.808594 38.9375 67.742188 45.160156 67.742188 L 54.839844 67.742188 C 61.0625 67.742188 66.128906 72.808594 66.128906 79.03125 C 66.128906 79.925781 65.40625 80.644531 64.515625 80.644531 Z M 37.261719 77.417969 L 62.742188 77.417969 C 61.992188 73.742188 58.734375 70.96875 54.839844 70.96875 L 45.164062 70.96875 C 41.265625 70.96875 38.007812 73.742188 37.261719 77.417969 Z M 37.261719 77.417969 "/>
<path style=" stroke:none;fill-rule:nonzero;fill:rgb(0%,0%,0%);fill-opacity:1;" d="M 50 16.128906 C 45.554688 16.128906 41.933594 12.511719 41.933594 8.066406 C 41.933594 3.617188 45.554688 0 50 0 C 54.445312 0 58.066406 3.617188 58.066406 8.066406 C 58.066406 12.511719 54.445312 16.128906 50 16.128906 Z M 50 3.226562 C 47.332031 3.226562 45.160156 5.398438 45.160156 8.066406 C 45.160156 10.730469 47.332031 12.902344 50 12.902344 C 52.667969 12.902344 54.839844 10.730469 54.839844 8.066406 C 54.839844 5.398438 52.667969 3.226562 50 3.226562 Z M 50 3.226562 "/>
<path style=" stroke:none;fill-rule:nonzero;fill:rgb(0%,0%,0%);fill-opacity:1;" d="M 45.160156 12.902344 L 48.386719 12.902344 L 48.386719 69.355469 L 45.160156 69.355469 Z M 45.160156 12.902344 "/>
<path style=" stroke:none;fill-rule:nonzero;fill:rgb(0%,0%,0%);fill-opacity:1;" d="M 51.613281 12.902344 L 54.839844 12.902344 L 54.839844 69.355469 L 51.613281 69.355469 Z M 51.613281 12.902344 "/>
<path style=" stroke:none;fill-rule:nonzero;fill:rgb(0%,0%,0%);fill-opacity:1;" d="M 25.804688 16.128906 C 22.25 16.128906 19.355469 13.234375 19.355469 9.675781 L 19.355469 6.453125 L 22.582031 6.453125 L 22.582031 9.675781 C 22.582031 11.457031 24.027344 12.902344 25.804688 12.902344 C 27.585938 12.902344 29.03125 11.457031 29.03125 9.675781 L 29.03125 8.066406 C 29.03125 7.171875 29.753906 6.453125 30.644531 6.453125 L 43.546875 6.453125 L 43.546875 9.675781 L 32.257812 9.675781 C 32.257812 13.234375 29.363281 16.128906 25.804688 16.128906 Z M 25.804688 16.128906 "/>
<path style=" stroke:none;fill-rule:nonzero;fill:rgb(0%,0%,0%);fill-opacity:1;" d="M 74.195312 16.128906 C 70.636719 16.128906 67.742188 13.234375 67.742188 9.675781 L 56.453125 9.675781 L 56.453125 6.453125 L 69.355469 6.453125 C 70.246094 6.453125 70.96875 7.171875 70.96875 8.066406 L 70.96875 9.675781 C 70.96875 11.457031 72.414062 12.902344 74.195312 12.902344 C 75.972656 12.902344 77.417969 11.457031 77.417969 9.675781 L 77.417969 6.453125 L 80.644531 6.453125 L 80.644531 9.675781 C 80.644531 13.234375 77.75 16.128906 74.195312 16.128906 Z M 74.195312 16.128906 "/>
<path style=" stroke:none;fill-rule:nonzero;fill:rgb(0%,0%,0%);fill-opacity:1;" d="M 25.804688 62.902344 C 18.691406 62.902344 12.902344 57.113281 12.902344 50 L 12.902344 48.386719 C 12.902344 47.496094 13.625 46.773438 14.515625 46.773438 L 37.097656 46.773438 C 37.988281 46.773438 38.710938 47.496094 38.710938 48.386719 L 38.710938 50 C 38.710938 57.113281 32.921875 62.902344 25.804688 62.902344 Z M 16.128906 50 C 16.128906 55.335938 20.46875 59.675781 25.804688 59.675781 C 31.144531 59.675781 35.484375 55.335938 35.484375 50 Z M 16.128906 50 "/>
<path style=" stroke:none;fill-rule:nonzero;fill:rgb(0%,0%,0%);fill-opacity:1;" d="M 32.371094 48.984375 L 26.328125 33.871094 L 25.285156 33.871094 L 19.238281 48.984375 L 16.242188 47.789062 L 22.695312 31.660156 C 22.941406 31.046875 23.535156 30.644531 24.195312 30.644531 L 27.417969 30.644531 C 28.078125 30.644531 28.671875 31.046875 28.917969 31.660156 L 35.371094 47.789062 Z M 32.371094 48.984375 "/>
<path style=" stroke:none;fill-rule:nonzero;fill:rgb(0%,0%,0%);fill-opacity:1;" d="M 24.195312 14.515625 L 27.417969 14.515625 L 27.417969 32.257812 L 24.195312 32.257812 Z M 24.195312 14.515625 "/>
<path style=" stroke:none;fill-rule:nonzero;fill:rgb(0%,0%,0%);fill-opacity:1;" d="M 74.195312 62.902344 C 67.078125 62.902344 61.289062 57.113281 61.289062 50 L 61.289062 48.386719 C 61.289062 47.496094 62.011719 46.773438 62.902344 46.773438 L 85.484375 46.773438 C 86.375 46.773438 87.097656 47.496094 87.097656 48.386719 L 87.097656 50 C 87.097656 57.113281 81.308594 62.902344 74.195312 62.902344 Z M 64.515625 50 C 64.515625 55.335938 68.855469 59.675781 74.195312 59.675781 C 79.53125 59.675781 83.871094 55.335938 83.871094 50 Z M 64.515625 50 "/>
<path style=" stroke:none;fill-rule:nonzero;fill:rgb(0%,0%,0%);fill-opacity:1;" d="M 80.757812 48.984375 L 74.714844 33.871094 L 73.671875 33.871094 L 67.625 48.984375 L 64.628906 47.789062 L 71.082031 31.660156 C 71.328125 31.046875 71.921875 30.644531 72.582031 30.644531 L 75.804688 30.644531 C 76.464844 30.644531 77.058594 31.046875 77.304688 31.660156 L 83.757812 47.789062 Z M 80.757812 48.984375 "/>
<path style=" stroke:none;fill-rule:nonzero;fill:rgb(0%,0%,0%);fill-opacity:1;" d="M 72.582031 14.515625 L 75.804688 14.515625 L 75.804688 32.257812 L 72.582031 32.257812 Z M 72.582031 14.515625 "/>
</g>
</svg>
