<?xml version="1.0" encoding="UTF-8"?>
<svg xmlns="http://www.w3.org/2000/svg" xmlns:xlink="http://www.w3.org/1999/xlink" width="100pt" height="100pt" viewBox="0 0 100 100" version="1.1">
<g id="surface1">
<path style=" stroke:none;fill-rule:nonzero;fill:rgb(91.372549%,93.333333%,94.901961%);fill-opacity:1;" d="M 4.6875 4.6875 L 65.625 4.6875 L 65.625 95.3125 L 4.6875 95.3125 Z M 4.6875 4.6875 "/>
<path style=" stroke:none;fill-rule:nonzero;fill:rgb(76.862745%,52.54902%,41.176471%);fill-opacity:1;" d="M 73.4375 53.125 L 82.8125 53.125 C 89.714844 53.125 95.3125 58.722656 95.3125 65.625 L 95.3125 89.0625 L 60.9375 89.0625 L 60.9375 65.625 C 60.9375 58.722656 66.535156 53.125 73.4375 53.125 Z M 73.4375 53.125 "/>
<path style=" stroke:none;fill-rule:nonzero;fill:rgb(100%,82.745098%,22.745098%);fill-opacity:1;" d="M 78.125 84.375 C 72.085938 84.375 67.1875 79.476562 67.1875 73.4375 C 67.1875 67.398438 72.085938 62.5 78.125 62.5 C 84.164062 62.5 89.0625 67.398438 89.0625 73.4375 C 89.054688 79.476562 84.164062 84.367188 78.125 84.375 Z M 78.125 84.375 "/>
<path style=" stroke:none;fill-rule:nonzero;fill:rgb(43.137255%,82.352941%,94.117647%);fill-opacity:1;" d="M 20.3125 14.0625 L 12.5 18.75 C 12.5 18.75 12.449219 28.125 20.3125 32.8125 C 20.3125 32.8125 28.125 28.027344 28.125 18.75 Z M 20.3125 14.0625 "/>
<path style=" stroke:none;fill-rule:nonzero;fill:rgb(45.882353%,67.058824%,49.019608%);fill-opacity:1;" d="M 51.5625 89.0625 L 95.3125 89.0625 L 95.3125 95.3125 L 51.5625 95.3125 Z M 51.5625 89.0625 "/>
<path style=" stroke:none;fill-rule:nonzero;fill:rgb(53.333333%,78.039216%,56.862745%);fill-opacity:1;" d="M 51.5625 82.8125 L 95.3125 82.8125 L 95.3125 89.0625 L 51.5625 89.0625 Z M 51.5625 82.8125 "/>
<path style=" stroke:none;fill-rule:nonzero;fill:rgb(45.882353%,67.058824%,49.019608%);fill-opacity:1;" d="M 51.5625 76.5625 L 95.3125 76.5625 L 95.3125 82.8125 L 51.5625 82.8125 Z M 51.5625 76.5625 "/>
<path style=" stroke:none;fill-rule:nonzero;fill:rgb(91.372549%,93.333333%,94.901961%);fill-opacity:1;" d="M 70.3125 76.5625 L 76.5625 76.5625 L 76.5625 95.3125 L 70.3125 95.3125 Z M 70.3125 76.5625 "/>
<path style=" stroke:none;fill-rule:nonzero;fill:rgb(83.137255%,56.470588%,45.098039%);fill-opacity:1;" d="M 73.4375 53.125 L 67.1875 40.625 L 89.0625 40.625 L 82.8125 53.125 Z M 73.4375 53.125 "/>
<path style=" stroke:none;fill-rule:nonzero;fill:rgb(53.333333%,78.039216%,56.862745%);fill-opacity:1;" d="M 81.25 20.3125 C 81.25 28.941406 74.253906 35.9375 65.625 35.9375 C 56.996094 35.9375 50 28.941406 50 20.3125 C 50 11.683594 56.996094 4.6875 65.625 4.6875 C 74.253906 4.6875 81.25 11.683594 81.25 20.3125 Z M 81.25 20.3125 "/>
<path style=" stroke:none;fill-rule:nonzero;fill:rgb(0%,0%,0%);fill-opacity:1;" d="M 19.511719 34.15625 C 20.011719 34.453125 20.632812 34.449219 21.128906 34.144531 C 21.476562 33.929688 29.6875 28.789062 29.6875 18.75 C 29.6875 18.199219 29.398438 17.691406 28.929688 17.410156 L 21.117188 12.722656 C 20.621094 12.425781 20.003906 12.425781 19.507812 12.722656 L 11.695312 17.410156 C 11.226562 17.691406 10.941406 18.195312 10.9375 18.742188 C 10.933594 19.160156 10.980469 29.066406 19.511719 34.15625 Z M 20.3125 15.886719 L 26.539062 19.621094 C 26.175781 25.785156 22.042969 29.582031 20.277344 30.929688 C 15.332031 27.464844 14.320312 21.746094 14.117188 19.601562 Z M 20.3125 15.886719 "/>
<path style=" stroke:none;fill-rule:nonzero;fill:rgb(0%,0%,0%);fill-opacity:1;" d="M 10.9375 42.1875 L 54.6875 42.1875 C 55.550781 42.1875 56.25 41.488281 56.25 40.625 C 56.25 39.761719 55.550781 39.0625 54.6875 39.0625 L 10.9375 39.0625 C 10.074219 39.0625 9.375 39.761719 9.375 40.625 C 9.375 41.488281 10.074219 42.1875 10.9375 42.1875 Z M 10.9375 42.1875 "/>
<path style=" stroke:none;fill-rule:nonzero;fill:rgb(0%,0%,0%);fill-opacity:1;" d="M 10.9375 48.4375 L 59.375 48.4375 C 60.238281 48.4375 60.9375 47.738281 60.9375 46.875 C 60.9375 46.011719 60.238281 45.3125 59.375 45.3125 L 10.9375 45.3125 C 10.074219 45.3125 9.375 46.011719 9.375 46.875 C 9.375 47.738281 10.074219 48.4375 10.9375 48.4375 Z M 10.9375 48.4375 "/>
<path style=" stroke:none;fill-rule:nonzero;fill:rgb(0%,0%,0%);fill-opacity:1;" d="M 10.9375 54.6875 L 59.375 54.6875 C 60.238281 54.6875 60.9375 53.988281 60.9375 53.125 C 60.9375 52.261719 60.238281 51.5625 59.375 51.5625 L 10.9375 51.5625 C 10.074219 51.5625 9.375 52.261719 9.375 53.125 C 9.375 53.988281 10.074219 54.6875 10.9375 54.6875 Z M 10.9375 54.6875 "/>
<path style=" stroke:none;fill-rule:nonzero;fill:rgb(0%,0%,0%);fill-opacity:1;" d="M 54.6875 57.8125 L 10.9375 57.8125 C 10.074219 57.8125 9.375 58.511719 9.375 59.375 C 9.375 60.238281 10.074219 60.9375 10.9375 60.9375 L 54.6875 60.9375 C 55.550781 60.9375 56.25 60.238281 56.25 59.375 C 56.25 58.511719 55.550781 57.8125 54.6875 57.8125 Z M 54.6875 57.8125 "/>
<path style=" stroke:none;fill-rule:nonzero;fill:rgb(0%,0%,0%);fill-opacity:1;" d="M 54.6875 64.0625 L 10.9375 64.0625 C 10.074219 64.0625 9.375 64.761719 9.375 65.625 C 9.375 66.488281 10.074219 67.1875 10.9375 67.1875 L 54.6875 67.1875 C 55.550781 67.1875 56.25 66.488281 56.25 65.625 C 56.25 64.761719 55.550781 64.0625 54.6875 64.0625 Z M 54.6875 64.0625 "/>
<path style=" stroke:none;fill-rule:nonzero;fill:rgb(0%,0%,0%);fill-opacity:1;" d="M 42.1875 75 L 29.25 75 L 28.046875 71.382812 C 27.875 70.867188 27.449219 70.480469 26.921875 70.355469 C 26.394531 70.230469 25.839844 70.386719 25.457031 70.769531 L 22.304688 73.925781 L 21.710938 72.738281 C 21.507812 72.339844 21.148438 72.042969 20.714844 71.929688 C 20.28125 71.8125 19.820312 71.890625 19.445312 72.136719 L 15.152344 75 L 10.9375 75 C 10.074219 75 9.375 75.699219 9.375 76.5625 C 9.375 77.425781 10.074219 78.125 10.9375 78.125 L 15.625 78.125 C 15.933594 78.125 16.234375 78.035156 16.492188 77.863281 L 19.707031 75.71875 L 20.476562 77.261719 C 20.703125 77.710938 21.128906 78.023438 21.625 78.105469 C 21.707031 78.117188 21.792969 78.125 21.875 78.125 C 22.289062 78.125 22.6875 77.960938 22.980469 77.667969 L 25.878906 74.765625 L 26.640625 77.054688 C 26.855469 77.695312 27.453125 78.125 28.125 78.125 L 42.1875 78.125 C 43.050781 78.125 43.75 77.425781 43.75 76.5625 C 43.75 75.699219 43.050781 75 42.1875 75 Z M 42.1875 75 "/>
<path style=" stroke:none;fill-rule:nonzero;fill:rgb(0%,0%,0%);fill-opacity:1;" d="M 85.234375 51.777344 L 90.460938 41.324219 C 90.703125 40.839844 90.675781 40.265625 90.390625 39.804688 C 90.105469 39.34375 89.605469 39.0625 89.0625 39.0625 L 67.1875 39.0625 L 67.1875 37.429688 C 76.335938 36.589844 83.207031 28.707031 82.789062 19.53125 C 82.371094 10.355469 74.8125 3.128906 65.625 3.125 L 4.6875 3.125 C 3.824219 3.125 3.125 3.824219 3.125 4.6875 L 3.125 95.3125 C 3.125 96.175781 3.824219 96.875 4.6875 96.875 L 95.3125 96.875 C 96.175781 96.875 96.875 96.175781 96.875 95.3125 L 96.875 65.625 C 96.867188 58.796875 91.960938 52.960938 85.234375 51.777344 Z M 86.535156 42.1875 L 81.847656 51.5625 L 74.402344 51.5625 L 69.714844 42.1875 Z M 71.015625 51.777344 C 69.683594 52.007812 68.394531 52.429688 67.1875 53.03125 L 67.1875 44.117188 Z M 79.6875 20.3125 C 79.6875 28.078125 73.390625 34.375 65.625 34.375 C 57.859375 34.375 51.5625 28.078125 51.5625 20.3125 C 51.5625 12.546875 57.859375 6.25 65.625 6.25 C 73.386719 6.257812 79.679688 12.550781 79.6875 20.3125 Z M 50 76.5625 L 50 93.75 L 6.25 93.75 L 6.25 6.25 L 55.753906 6.25 C 51.167969 9.464844 48.4375 14.710938 48.4375 20.3125 L 35.9375 20.3125 C 35.074219 20.3125 34.375 21.011719 34.375 21.875 C 34.375 22.738281 35.074219 23.4375 35.9375 23.4375 L 48.722656 23.4375 C 48.917969 24.503906 49.21875 25.550781 49.613281 26.5625 L 35.9375 26.5625 C 35.074219 26.5625 34.375 27.261719 34.375 28.125 C 34.375 28.988281 35.074219 29.6875 35.9375 29.6875 L 51.226562 29.6875 C 54.097656 34.09375 58.824219 36.945312 64.0625 37.429688 L 64.0625 55.15625 C 61.078125 57.816406 59.375 61.625 59.375 65.625 L 59.375 75 L 51.5625 75 C 50.699219 75 50 75.699219 50 76.5625 Z M 68.75 93.75 L 53.125 93.75 L 53.125 90.625 L 68.75 90.625 Z M 68.75 87.5 L 53.125 87.5 L 53.125 84.375 L 68.75 84.375 Z M 68.75 81.25 L 53.125 81.25 L 53.125 78.125 L 68.75 78.125 Z M 75 93.75 L 71.875 93.75 L 71.875 78.125 L 75 78.125 Z M 70.46875 75 C 69.835938 71.894531 71.140625 68.714844 73.773438 66.949219 C 76.40625 65.1875 79.84375 65.1875 82.476562 66.949219 C 85.109375 68.714844 86.414062 71.894531 85.78125 75 L 81.25 75 C 81.246094 73.273438 79.851562 71.878906 78.125 71.875 L 79.6875 71.875 C 80.550781 71.875 81.25 71.175781 81.25 70.3125 C 81.25 69.449219 80.550781 68.75 79.6875 68.75 L 78.125 68.75 C 76.398438 68.75 75 70.148438 75 71.875 C 75 73.601562 76.398438 75 78.125 75 Z M 93.75 93.75 L 78.125 93.75 L 78.125 90.625 L 93.75 90.625 Z M 93.75 87.5 L 78.125 87.5 L 78.125 84.375 L 93.75 84.375 Z M 93.75 81.25 L 78.125 81.25 L 78.125 78.125 L 93.75 78.125 Z M 93.75 75 L 88.949219 75 C 89.5625 70.757812 87.644531 66.550781 84.042969 64.230469 C 80.4375 61.914062 75.8125 61.914062 72.207031 64.230469 C 68.605469 66.550781 66.6875 70.757812 67.300781 75 L 62.5 75 L 62.5 65.625 C 62.507812 59.585938 67.398438 54.695312 73.4375 54.6875 L 82.8125 54.6875 C 88.851562 54.695312 93.742188 59.585938 93.75 65.625 Z M 93.75 75 "/>
<path style=" stroke:none;fill-rule:nonzero;fill:rgb(0%,0%,0%);fill-opacity:1;" d="M 61.394531 26.105469 C 62.003906 26.714844 62.996094 26.714844 63.605469 26.105469 L 72.980469 16.730469 C 73.589844 16.121094 73.589844 15.128906 72.980469 14.519531 C 72.371094 13.910156 71.378906 13.910156 70.769531 14.519531 L 62.5 22.789062 L 60.480469 20.769531 C 59.871094 20.160156 58.878906 20.160156 58.269531 20.769531 C 57.660156 21.378906 57.660156 22.371094 58.269531 22.980469 Z M 61.394531 26.105469 "/>
</g>
</svg>
