<?xml version="1.0" encoding="UTF-8"?>
<svg xmlns="http://www.w3.org/2000/svg" xmlns:xlink="http://www.w3.org/1999/xlink" width="100pt" height="100pt" viewBox="0 0 100 100" version="1.1">
<g id="surface1">
<path style=" stroke:none;fill-rule:nonzero;fill:rgb(87.45098%,69.803922%,54.509804%);fill-opacity:1;" d="M 3.125 40.625 L 93.75 40.625 L 93.75 75 L 3.125 75 Z M 3.125 40.625 "/>
<path style=" stroke:none;fill-rule:nonzero;fill:rgb(66.666667%,69.803922%,74.117647%);fill-opacity:1;" d="M 31.25 90.625 L 31.25 96.875 L 9.375 96.875 L 9.375 90.625 C 9.375 88.90625 10.78125 87.5 12.5 87.5 L 28.125 87.5 C 29.84375 87.5 31.25 88.90625 31.25 90.625 Z M 31.25 90.625 "/>
<path style=" stroke:none;fill-rule:nonzero;fill:rgb(66.666667%,69.803922%,74.117647%);fill-opacity:1;" d="M 31.25 75 L 31.25 81.25 L 26.5625 81.25 C 26.34375 80.953125 26.109375 80.671875 25.84375 80.40625 C 24.421875 79 22.46875 78.125 20.3125 78.125 C 18.15625 78.125 16.203125 79 14.78125 80.40625 C 14.515625 80.671875 14.28125 80.953125 14.0625 81.25 L 9.375 81.25 L 9.375 75 C 9.375 73.28125 10.78125 71.875 12.5 71.875 L 28.125 71.875 C 29.84375 71.875 31.25 73.28125 31.25 75 Z M 31.25 75 "/>
<path style=" stroke:none;fill-rule:nonzero;fill:rgb(66.666667%,69.803922%,74.117647%);fill-opacity:1;" d="M 59.375 75 L 59.375 81.25 L 54.6875 81.25 C 54.46875 80.953125 54.234375 80.671875 53.96875 80.40625 C 52.546875 79 50.59375 78.125 48.4375 78.125 C 46.28125 78.125 44.328125 79 42.90625 80.40625 C 42.640625 80.671875 42.40625 80.953125 42.1875 81.25 L 37.5 81.25 L 37.5 75 C 37.5 73.28125 38.90625 71.875 40.625 71.875 L 56.25 71.875 C 56.359375 71.875 56.46875 71.875 56.5625 71.890625 C 58.140625 72.046875 59.375 73.390625 59.375 75 Z M 59.375 75 "/>
<path style=" stroke:none;fill-rule:nonzero;fill:rgb(66.666667%,69.803922%,74.117647%);fill-opacity:1;" d="M 59.375 90.625 L 59.375 96.875 L 37.5 96.875 L 37.5 90.625 C 37.5 88.90625 38.90625 87.5 40.625 87.5 L 56.25 87.5 C 57.96875 87.5 59.375 88.90625 59.375 90.625 Z M 59.375 90.625 "/>
<path style=" stroke:none;fill-rule:nonzero;fill:rgb(66.666667%,69.803922%,74.117647%);fill-opacity:1;" d="M 87.5 90.625 L 87.5 96.875 L 65.625 96.875 L 65.625 90.625 C 65.625 88.90625 67.03125 87.5 68.75 87.5 L 84.375 87.5 C 86.09375 87.5 87.5 88.90625 87.5 90.625 Z M 87.5 90.625 "/>
<path style=" stroke:none;fill-rule:nonzero;fill:rgb(66.666667%,69.803922%,74.117647%);fill-opacity:1;" d="M 87.5 75 L 87.5 81.25 L 82.8125 81.25 C 82.59375 80.953125 82.359375 80.671875 82.09375 80.40625 C 80.671875 79 78.71875 78.125 76.5625 78.125 C 74.40625 78.125 72.453125 79 71.03125 80.40625 C 70.765625 80.671875 70.53125 80.953125 70.3125 81.25 L 65.625 81.25 L 65.625 75 C 65.625 73.28125 67.03125 71.875 68.75 71.875 L 84.375 71.875 C 84.484375 71.875 84.59375 71.875 84.6875 71.890625 C 86.265625 72.046875 87.5 73.390625 87.5 75 Z M 87.5 75 "/>
<path style=" stroke:none;fill-rule:nonzero;fill:rgb(98.823529%,84.313725%,43.921569%);fill-opacity:1;" d="M 84.375 85.9375 C 84.375 86.453125 84.359375 86.984375 84.3125 87.5 L 68.8125 87.5 C 68.765625 86.984375 68.75 86.453125 68.75 85.9375 C 68.75 84.171875 69.328125 82.546875 70.3125 81.25 C 70.53125 80.953125 70.765625 80.671875 71.03125 80.40625 C 72.453125 79 74.40625 78.125 76.5625 78.125 C 78.71875 78.125 80.671875 79 82.09375 80.40625 C 82.359375 80.671875 82.59375 80.953125 82.8125 81.25 C 83.796875 82.546875 84.375 84.171875 84.375 85.9375 Z M 84.375 85.9375 "/>
<path style=" stroke:none;fill-rule:nonzero;fill:rgb(98.823529%,84.313725%,43.921569%);fill-opacity:1;" d="M 56.25 85.9375 C 56.25 86.453125 56.234375 86.984375 56.1875 87.5 L 40.6875 87.5 C 40.640625 86.984375 40.625 86.453125 40.625 85.9375 C 40.625 84.171875 41.203125 82.546875 42.1875 81.25 C 42.40625 80.953125 42.640625 80.671875 42.90625 80.40625 C 44.328125 79 46.28125 78.125 48.4375 78.125 C 50.59375 78.125 52.546875 79 53.96875 80.40625 C 54.234375 80.671875 54.46875 80.953125 54.6875 81.25 C 55.671875 82.546875 56.25 84.171875 56.25 85.9375 Z M 56.25 85.9375 "/>
<path style=" stroke:none;fill-rule:nonzero;fill:rgb(98.823529%,84.313725%,43.921569%);fill-opacity:1;" d="M 28.125 85.9375 C 28.125 86.453125 28.109375 86.984375 28.0625 87.5 L 12.5625 87.5 C 12.515625 86.984375 12.5 86.453125 12.5 85.9375 C 12.5 84.171875 13.078125 82.546875 14.0625 81.25 C 14.28125 80.953125 14.515625 80.671875 14.78125 80.40625 C 16.203125 79 18.15625 78.125 20.3125 78.125 C 22.46875 78.125 24.421875 79 25.84375 80.40625 C 26.109375 80.671875 26.34375 80.953125 26.5625 81.25 C 27.546875 82.546875 28.125 84.171875 28.125 85.9375 Z M 28.125 85.9375 "/>
<path style=" stroke:none;fill-rule:nonzero;fill:rgb(98.823529%,84.313725%,43.921569%);fill-opacity:1;" d="M 27.484375 67.1875 C 27.890625 68.140625 28.125 69.203125 28.125 70.3125 C 28.125 70.84375 28.109375 71.359375 28.0625 71.875 L 12.5625 71.875 C 12.515625 71.359375 12.5 70.84375 12.5 70.3125 C 12.5 68.15625 13.375 66.203125 14.78125 64.78125 C 16.203125 63.375 18.15625 62.5 20.3125 62.5 C 22.46875 62.5 24.421875 63.375 25.84375 64.78125 C 26.53125 65.46875 27.078125 66.28125 27.484375 67.1875 Z M 27.484375 67.1875 "/>
<path style=" stroke:none;fill-rule:nonzero;fill:rgb(98.823529%,84.313725%,43.921569%);fill-opacity:1;" d="M 56.25 70.3125 C 56.25 70.84375 56.234375 71.359375 56.1875 71.875 L 55 71.890625 C 54.90625 71.875 54.796875 71.875 54.6875 71.875 L 40.6875 71.875 C 40.640625 71.359375 40.625 70.84375 40.625 70.3125 C 40.625 68.15625 41.5 66.203125 42.90625 64.78125 C 44.328125 63.375 46.28125 62.5 48.4375 62.5 C 50.59375 62.5 52.546875 63.375 53.96875 64.78125 C 55.375 66.203125 56.25 68.15625 56.25 70.3125 Z M 56.25 70.3125 "/>
<path style=" stroke:none;fill-rule:nonzero;fill:rgb(98.823529%,84.313725%,43.921569%);fill-opacity:1;" d="M 84.375 70.3125 C 84.375 70.84375 84.359375 71.359375 84.3125 71.875 L 83.125 71.890625 C 83.03125 71.875 82.921875 71.875 82.8125 71.875 L 68.8125 71.875 C 68.765625 71.359375 68.75 70.84375 68.75 70.3125 C 68.75 68.15625 69.625 66.203125 71.03125 64.78125 C 72.453125 63.375 74.40625 62.5 76.5625 62.5 C 78.71875 62.5 80.671875 63.375 82.09375 64.78125 C 83.5 66.203125 84.375 68.15625 84.375 70.3125 Z M 84.375 70.3125 "/>
<path style=" stroke:none;fill-rule:nonzero;fill:rgb(90.196078%,91.372549%,92.941176%);fill-opacity:1;" d="M 50 3.125 L 96.875 3.125 L 96.875 46.875 L 50 46.875 Z M 50 3.125 "/>
<path style=" stroke:none;fill-rule:nonzero;fill:rgb(70.588235%,86.666667%,49.803922%);fill-opacity:1;" d="M 90.625 15.625 L 90.625 28.125 L 68.75 28.125 L 68.75 21.875 L 78.125 21.875 L 78.125 15.625 Z M 90.625 15.625 "/>
<path style=" stroke:none;fill-rule:nonzero;fill:rgb(98.823529%,84.313725%,43.921569%);fill-opacity:1;" d="M 78.125 15.625 L 78.125 21.875 L 53.390625 21.875 L 53.328125 21.796875 L 59.375 16.890625 C 60.359375 16.09375 60.9375 14.890625 60.9375 13.609375 C 60.9375 11.265625 59.046875 9.375 56.703125 9.375 L 78.125 9.375 Z M 78.125 15.625 "/>
<path style=" stroke:none;fill-rule:nonzero;fill:rgb(30.980392%,75.686275%,91.372549%);fill-opacity:1;" d="M 20.3125 45.3125 L 20.3125 46.875 L 17.1875 46.875 C 14.59375 46.875 12.5 44.78125 12.5 42.1875 L 12.5 31.25 C 12.5 26.078125 16.703125 21.875 21.875 21.875 L 35.78125 21.875 C 37.90625 21.875 39.96875 21.15625 41.625 19.828125 L 50 13.125 L 53.53125 10.296875 C 54.28125 9.703125 55.21875 9.375 56.171875 9.375 L 56.703125 9.375 C 59.046875 9.375 60.9375 11.265625 60.9375 13.609375 C 60.9375 14.890625 60.359375 16.09375 59.375 16.890625 L 53.328125 21.796875 L 50 24.515625 L 37.09375 35 C 36.359375 35.59375 35.9375 36.484375 35.9375 37.421875 L 35.9375 45.3125 Z M 20.3125 45.3125 "/>
<path style=" stroke:none;fill-rule:nonzero;fill:rgb(58.823529%,62.352941%,66.666667%);fill-opacity:1;" d="M 35.9375 45.3125 L 35.9375 63.28125 C 35.9375 65.4375 34.1875 67.1875 32.03125 67.1875 C 31.765625 67.1875 31.5 67.15625 31.25 67.109375 C 30.484375 66.953125 29.796875 66.578125 29.265625 66.046875 C 28.5625 65.34375 28.125 64.359375 28.125 63.28125 L 28.125 45.3125 Z M 35.9375 45.3125 "/>
<path style=" stroke:none;fill-rule:nonzero;fill:rgb(94.117647%,81.568627%,70.588235%);fill-opacity:1;" d="M 37.5 12.5 C 37.5 17.675781 33.300781 21.875 28.125 21.875 C 22.949219 21.875 18.75 17.675781 18.75 12.5 C 18.75 7.324219 22.949219 3.125 28.125 3.125 C 33.300781 3.125 37.5 7.324219 37.5 12.5 Z M 37.5 12.5 "/>
<path style=" stroke:none;fill-rule:nonzero;fill:rgb(58.823529%,62.352941%,66.666667%);fill-opacity:1;" d="M 31.25 67.109375 L 31.25 67.1875 L 27.484375 67.1875 C 27.078125 66.28125 26.53125 65.46875 25.84375 64.78125 C 24.421875 63.375 22.46875 62.5 20.3125 62.5 L 20.3125 45.3125 L 28.125 45.3125 L 28.125 63.28125 C 28.125 64.359375 28.5625 65.34375 29.265625 66.046875 C 29.796875 66.578125 30.484375 66.953125 31.25 67.109375 Z M 31.25 67.109375 "/>
<path style=" stroke:none;fill-rule:nonzero;fill:rgb(0%,0%,0%);fill-opacity:1;" d="M 98.4375 1.5625 L 48.4375 1.5625 L 48.4375 12.375 L 40.65625 18.601562 C 39.273438 19.703125 37.539062 20.3125 35.773438 20.3125 L 35.765625 20.3125 C 37.796875 18.324219 39.0625 15.558594 39.0625 12.5 C 39.0625 6.46875 34.15625 1.5625 28.125 1.5625 C 22.09375 1.5625 17.1875 6.46875 17.1875 12.5 C 17.1875 15.605469 18.492188 18.40625 20.578125 20.398438 C 15.15625 21.039062 10.9375 25.660156 10.9375 31.25 L 10.9375 39.0625 L 1.5625 39.0625 L 1.5625 76.5625 L 7.8125 76.5625 L 7.8125 81.253906 L 10.9375 81.253906 L 10.9375 75.003906 C 10.9375 74.140625 11.640625 73.441406 12.5 73.441406 L 28.125 73.441406 C 28.984375 73.441406 29.6875 74.140625 29.6875 75.003906 L 29.6875 81.253906 L 32.8125 81.253906 L 32.8125 75.003906 C 32.8125 72.964844 31.496094 71.246094 29.675781 70.601562 C 29.679688 70.507812 29.6875 70.414062 29.6875 70.316406 C 29.6875 69.53125 29.578125 68.773438 29.398438 68.042969 C 30.179688 68.480469 31.070312 68.75 32.03125 68.75 C 35.046875 68.75 37.5 66.296875 37.5 63.28125 L 37.5 42.1875 L 48.4375 42.1875 L 48.4375 48.4375 L 66.914062 48.4375 L 59.75 56.796875 L 62.125 58.828125 L 71.03125 48.4375 L 71.875 48.4375 L 71.875 57.8125 L 75 57.8125 L 75 48.4375 L 75.84375 48.4375 L 84.75 58.828125 L 87.125 56.796875 L 79.960938 48.4375 L 92.1875 48.4375 L 92.1875 73.4375 L 88.773438 73.4375 C 88.300781 72.113281 87.253906 71.070312 85.925781 70.601562 C 85.929688 70.507812 85.9375 70.414062 85.9375 70.316406 C 85.9375 65.148438 81.734375 60.941406 76.5625 60.941406 C 71.390625 60.941406 67.1875 65.148438 67.1875 70.316406 C 67.1875 70.414062 67.195312 70.507812 67.199219 70.601562 C 65.378906 71.246094 64.0625 72.964844 64.0625 75.003906 L 64.0625 81.253906 L 67.1875 81.253906 L 67.1875 75.003906 C 67.1875 74.140625 67.890625 73.441406 68.75 73.441406 L 84.375 73.441406 C 85.234375 73.441406 85.9375 74.140625 85.9375 75.003906 L 85.9375 81.253906 L 89.0625 81.253906 L 89.0625 76.5625 L 95.3125 76.5625 L 95.3125 48.4375 L 98.4375 48.4375 Z M 76.5625 64.066406 C 80.007812 64.066406 82.8125 66.871094 82.8125 70.316406 L 70.3125 70.316406 C 70.3125 66.871094 73.117188 64.066406 76.5625 64.066406 Z M 20.3125 12.5 C 20.3125 8.191406 23.816406 4.6875 28.125 4.6875 C 32.433594 4.6875 35.9375 8.191406 35.9375 12.5 C 35.9375 16.808594 32.433594 20.3125 28.125 20.3125 C 23.816406 20.3125 20.3125 16.808594 20.3125 12.5 Z M 14.0625 31.25 C 14.0625 26.941406 17.566406 23.4375 21.875 23.4375 L 35.773438 23.4375 C 38.25 23.4375 40.675781 22.585938 42.609375 21.042969 L 54.507812 11.523438 C 54.976562 11.144531 55.566406 10.9375 56.171875 10.9375 L 56.703125 10.9375 C 58.175781 10.9375 59.375 12.136719 59.375 13.609375 C 59.375 14.417969 59.015625 15.171875 58.390625 15.683594 L 36.105469 33.785156 C 35.007812 34.679688 34.375 36.007812 34.375 37.425781 L 34.375 42.1875 L 21.875 42.1875 L 21.875 34.375 L 18.75 34.375 L 18.75 45.3125 L 17.1875 45.3125 C 15.464844 45.3125 14.0625 43.910156 14.0625 42.1875 Z M 79.6875 23.4375 L 79.6875 17.1875 L 89.0625 17.1875 L 89.0625 26.5625 L 70.3125 26.5625 L 70.3125 23.4375 Z M 76.5625 20.3125 L 57.648438 20.3125 L 60.359375 18.109375 C 61.71875 17.003906 62.5 15.363281 62.5 13.609375 C 62.5 12.640625 62.238281 11.742188 61.816406 10.9375 L 76.5625 10.9375 Z M 20.3125 64.066406 C 23.757812 64.066406 26.5625 66.871094 26.5625 70.316406 L 14.0625 70.316406 C 14.0625 66.871094 16.867188 64.066406 20.3125 64.066406 Z M 21.875 61.082031 L 21.875 45.3125 L 26.5625 45.3125 L 26.5625 63.28125 C 26.5625 63.304688 26.570312 63.328125 26.570312 63.355469 C 25.277344 62.191406 23.664062 61.382812 21.875 61.082031 Z M 8.101562 73.4375 L 4.6875 73.4375 L 4.6875 42.1875 L 10.9375 42.1875 C 10.9375 45.632812 13.742188 48.4375 17.1875 48.4375 L 18.75 48.4375 L 18.75 61.082031 C 14.324219 61.828125 10.9375 65.679688 10.9375 70.316406 C 10.9375 70.414062 10.945312 70.507812 10.949219 70.601562 C 9.621094 71.070312 8.578125 72.113281 8.101562 73.4375 Z M 32.03125 65.625 C 30.738281 65.625 29.6875 64.574219 29.6875 63.28125 L 29.6875 45.3125 L 34.375 45.3125 L 34.375 63.28125 C 34.375 64.574219 33.320312 65.625 32.03125 65.625 Z M 37.5 39.0625 L 37.5 37.425781 C 37.5 36.953125 37.710938 36.507812 38.078125 36.210938 L 48.4375 27.796875 L 48.4375 39.0625 Z M 95.3125 45.3125 L 51.5625 45.3125 L 51.5625 25.257812 L 53.800781 23.4375 L 67.1875 23.4375 L 67.1875 29.6875 L 92.1875 29.6875 L 92.1875 14.0625 L 79.6875 14.0625 L 79.6875 7.8125 L 56.171875 7.8125 C 54.859375 7.8125 53.574219 8.265625 52.554688 9.082031 L 51.5625 9.875 L 51.5625 4.6875 L 95.3125 4.6875 Z M 95.3125 45.3125 "/>
<path style=" stroke:none;fill-rule:nonzero;fill:rgb(0%,0%,0%);fill-opacity:1;" d="M 29.675781 86.222656 C 29.679688 86.125 29.6875 86.03125 29.6875 85.9375 C 29.6875 80.765625 25.484375 76.5625 20.3125 76.5625 C 15.140625 76.5625 10.9375 80.765625 10.9375 85.9375 C 10.9375 86.03125 10.945312 86.125 10.949219 86.222656 C 9.128906 86.867188 7.8125 88.585938 7.8125 90.625 L 7.8125 98.4375 L 32.8125 98.4375 L 32.8125 90.625 C 32.8125 88.585938 31.496094 86.867188 29.675781 86.222656 Z M 20.3125 79.6875 C 23.757812 79.6875 26.5625 82.492188 26.5625 85.9375 L 14.0625 85.9375 C 14.0625 82.492188 16.867188 79.6875 20.3125 79.6875 Z M 29.6875 95.3125 L 10.9375 95.3125 L 10.9375 90.625 C 10.9375 89.761719 11.640625 89.0625 12.5 89.0625 L 28.125 89.0625 C 28.984375 89.0625 29.6875 89.761719 29.6875 90.625 Z M 29.6875 95.3125 "/>
<path style=" stroke:none;fill-rule:nonzero;fill:rgb(0%,0%,0%);fill-opacity:1;" d="M 57.800781 86.222656 C 57.804688 86.125 57.8125 86.03125 57.8125 85.9375 C 57.8125 80.765625 53.609375 76.5625 48.4375 76.5625 C 43.265625 76.5625 39.0625 80.765625 39.0625 85.9375 C 39.0625 86.03125 39.070312 86.125 39.074219 86.222656 C 37.253906 86.867188 35.9375 88.585938 35.9375 90.625 L 35.9375 98.4375 L 60.9375 98.4375 L 60.9375 90.625 C 60.9375 88.585938 59.621094 86.867188 57.800781 86.222656 Z M 48.4375 79.6875 C 51.882812 79.6875 54.6875 82.492188 54.6875 85.9375 L 42.1875 85.9375 C 42.1875 82.492188 44.992188 79.6875 48.4375 79.6875 Z M 57.8125 95.3125 L 39.0625 95.3125 L 39.0625 90.625 C 39.0625 89.761719 39.765625 89.0625 40.625 89.0625 L 56.25 89.0625 C 57.109375 89.0625 57.8125 89.761719 57.8125 90.625 Z M 57.8125 95.3125 "/>
<path style=" stroke:none;fill-rule:nonzero;fill:rgb(0%,0%,0%);fill-opacity:1;" d="M 85.925781 86.222656 C 85.929688 86.125 85.9375 86.03125 85.9375 85.9375 C 85.9375 80.765625 81.734375 76.5625 76.5625 76.5625 C 71.390625 76.5625 67.1875 80.765625 67.1875 85.9375 C 67.1875 86.03125 67.195312 86.125 67.199219 86.222656 C 65.378906 86.867188 64.0625 88.585938 64.0625 90.625 L 64.0625 98.4375 L 89.0625 98.4375 L 89.0625 90.625 C 89.0625 88.585938 87.746094 86.867188 85.925781 86.222656 Z M 76.5625 79.6875 C 80.007812 79.6875 82.8125 82.492188 82.8125 85.9375 L 70.3125 85.9375 C 70.3125 82.492188 73.117188 79.6875 76.5625 79.6875 Z M 85.9375 95.3125 L 67.1875 95.3125 L 67.1875 90.625 C 67.1875 89.761719 67.890625 89.0625 68.75 89.0625 L 84.375 89.0625 C 85.234375 89.0625 85.9375 89.761719 85.9375 90.625 Z M 85.9375 95.3125 "/>
<path style=" stroke:none;fill-rule:nonzero;fill:rgb(0%,0%,0%);fill-opacity:1;" d="M 57.800781 70.601562 C 57.804688 70.507812 57.8125 70.414062 57.8125 70.316406 C 57.8125 65.148438 53.609375 60.941406 48.4375 60.941406 C 43.265625 60.941406 39.0625 65.148438 39.0625 70.316406 C 39.0625 70.414062 39.070312 70.507812 39.074219 70.601562 C 37.253906 71.246094 35.9375 72.964844 35.9375 75.003906 L 35.9375 81.253906 L 39.0625 81.253906 L 39.0625 75.003906 C 39.0625 74.140625 39.765625 73.441406 40.625 73.441406 L 56.25 73.441406 C 57.109375 73.441406 57.8125 74.140625 57.8125 75.003906 L 57.8125 81.253906 L 60.9375 81.253906 L 60.9375 75.003906 C 60.9375 72.964844 59.621094 71.246094 57.800781 70.601562 Z M 48.4375 64.066406 C 51.882812 64.066406 54.6875 66.871094 54.6875 70.316406 L 42.1875 70.316406 C 42.1875 66.871094 44.992188 64.066406 48.4375 64.066406 Z M 48.4375 64.066406 "/>
<path style=" stroke:none;fill-rule:nonzero;fill:rgb(0%,0%,0%);fill-opacity:1;" d="M 54.6875 32.8125 L 57.8125 32.8125 L 57.8125 35.9375 L 54.6875 35.9375 Z M 54.6875 32.8125 "/>
<path style=" stroke:none;fill-rule:nonzero;fill:rgb(0%,0%,0%);fill-opacity:1;" d="M 60.9375 32.8125 L 92.1875 32.8125 L 92.1875 35.9375 L 60.9375 35.9375 Z M 60.9375 32.8125 "/>
<path style=" stroke:none;fill-rule:nonzero;fill:rgb(0%,0%,0%);fill-opacity:1;" d="M 54.6875 39.0625 L 92.1875 39.0625 L 92.1875 42.1875 L 54.6875 42.1875 Z M 54.6875 39.0625 "/>
</g>
</svg>
