<?xml version="1.0" encoding="UTF-8"?>
<svg xmlns="http://www.w3.org/2000/svg" xmlns:xlink="http://www.w3.org/1999/xlink" width="100pt" height="100pt" viewBox="0 0 100 100" version="1.1">
<g id="surface1">
<path style=" stroke:none;fill-rule:nonzero;fill:rgb(38.431373%,53.72549%,98.039216%);fill-opacity:1;" d="M 70.007812 29.269531 L 88.136719 52.316406 L 98 43.824219 L 81.269531 22.09375 Z M 70.007812 29.269531 "/>
<path style=" stroke:none;fill-rule:nonzero;fill:rgb(38.431373%,53.72549%,98.039216%);fill-opacity:1;" d="M 31.726562 29.253906 L 11.824219 53.503906 L 1.960938 45.015625 L 20.464844 22.09375 Z M 31.726562 29.253906 "/>
<path style=" stroke:none;fill-rule:nonzero;fill:rgb(98.823529%,78.431373%,61.568627%);fill-opacity:1;" d="M 88.136719 52.316406 L 70.007812 29.269531 L 55.332031 29.269531 L 43.871094 32.578125 L 31.726562 29.253906 L 11.824219 53.503906 L 21.660156 66.757812 L 20.621094 67.796875 C 18.683594 69.738281 18.683594 72.882812 20.621094 74.824219 C 22.292969 76.496094 24.859375 76.722656 26.78125 75.511719 L 26.769531 75.746094 C 24.832031 77.6875 24.832031 80.828125 26.769531 82.769531 C 28.703125 84.703125 31.828125 84.707031 33.769531 82.792969 L 33.769531 82.8125 C 31.828125 84.75 31.828125 87.894531 33.769531 89.835938 C 35.707031 91.777344 38.851562 91.777344 40.792969 89.835938 L 41.746094 88.882812 L 41.738281 88.972656 C 39.800781 90.914062 39.800781 94.058594 41.738281 95.996094 C 43.679688 97.9375 46.824219 97.9375 48.765625 95.996094 L 51.082031 93.679688 C 51.335938 93.425781 51.65625 92.976562 52.023438 92.382812 C 51.785156 92.851562 51.46875 93.292969 51.082031 93.679688 L 51.066406 93.695312 L 52.957031 95.214844 C 54.898438 97.15625 58.042969 97.15625 59.984375 95.214844 C 61.921875 93.277344 61.921875 90.132812 59.984375 88.191406 L 59.988281 88.1875 C 61.929688 90.125 65.074219 90.125 67.015625 88.1875 C 68.953125 86.246094 68.953125 83.101562 67.015625 81.160156 L 67.023438 81.152344 C 68.960938 83.09375 72.105469 83.09375 74.046875 81.152344 C 75.984375 79.214844 75.984375 76.070312 74.046875 74.128906 L 74.050781 74.121094 C 75.992188 76.0625 79.136719 76.0625 81.078125 74.121094 C 83.015625 72.183594 83.015625 69.039062 81.078125 67.097656 Z M 88.136719 52.316406 "/>
<path style=" stroke:none;fill-rule:nonzero;fill:rgb(0%,0%,0%);fill-opacity:1;" d="M 99.554688 42.632812 L 82.824219 20.898438 C 82.203125 20.09375 81.074219 19.894531 80.21875 20.441406 L 69.414062 27.308594 L 55.328125 27.308594 C 55.144531 27.308594 54.964844 27.347656 54.789062 27.398438 L 43.863281 30.542969 L 32.53125 27.445312 L 21.515625 20.441406 C 20.675781 19.90625 19.566406 20.085938 18.941406 20.863281 L 0.433594 43.785156 C -0.230469 44.609375 -0.121094 45.8125 0.683594 46.5 L 10.382812 54.847656 L 19.082031 66.574219 C 16.539062 69.285156 16.585938 73.5625 19.234375 76.210938 C 20.410156 77.382812 21.902344 78.046875 23.4375 78.199219 C 23.382812 78.546875 23.355469 78.902344 23.355469 79.257812 C 23.355469 81.109375 24.078125 82.847656 25.382812 84.15625 C 26.691406 85.464844 28.433594 86.1875 30.28125 86.1875 C 30.308594 86.1875 30.332031 86.183594 30.355469 86.183594 C 30.355469 86.230469 30.355469 86.277344 30.355469 86.324219 C 30.355469 88.175781 31.074219 89.914062 32.382812 91.222656 C 33.691406 92.53125 35.429688 93.253906 37.28125 93.253906 C 37.644531 93.253906 38.007812 93.222656 38.363281 93.167969 C 38.511719 94.707031 39.175781 96.207031 40.355469 97.386719 C 41.703125 98.734375 43.476562 99.410156 45.253906 99.410156 C 47.027344 99.410156 48.800781 98.734375 50.152344 97.386719 L 51.210938 96.324219 L 51.65625 96.683594 C 52.992188 97.980469 54.734375 98.628906 56.472656 98.628906 C 58.246094 98.628906 60.019531 97.957031 61.367188 96.605469 C 62.746094 95.226562 63.421875 93.40625 63.394531 91.597656 C 65.203125 91.625 67.023438 90.949219 68.402344 89.574219 C 69.777344 88.195312 70.453125 86.378906 70.425781 84.570312 C 72.308594 84.601562 74.097656 83.875 75.429688 82.542969 C 76.808594 81.164062 77.484375 79.34375 77.457031 77.535156 C 79.265625 77.5625 81.085938 76.890625 82.460938 75.511719 C 84.816406 73.160156 85.117188 69.523438 83.375 66.839844 L 89.726562 53.53125 L 99.277344 45.3125 C 100.070312 44.632812 100.1875 43.457031 99.554688 42.632812 Z M 20.890625 24.6875 L 28.808594 29.722656 L 11.582031 50.710938 L 4.679688 44.769531 Z M 22.007812 69.1875 L 24.398438 66.796875 C 24.46875 66.722656 24.546875 66.65625 24.625 66.589844 C 25.089844 66.210938 25.65625 65.980469 26.257812 65.929688 C 26.273438 65.925781 26.292969 65.925781 26.308594 65.925781 C 26.394531 65.917969 26.480469 65.914062 26.566406 65.914062 C 27.382812 65.925781 28.144531 66.261719 28.710938 66.855469 C 29.816406 68.027344 29.757812 69.941406 28.578125 71.121094 L 26.257812 73.4375 C 25.085938 74.609375 23.179688 74.609375 22.007812 73.4375 C 20.835938 72.265625 20.835938 70.359375 22.007812 69.1875 Z M 28.15625 81.386719 C 27.589844 80.816406 27.277344 80.0625 27.277344 79.257812 C 27.277344 78.457031 27.589844 77.703125 28.15625 77.132812 L 32.792969 72.5 C 33.679688 71.609375 35.074219 71.367188 36.210938 71.910156 C 37.378906 72.464844 38.039062 73.734375 37.867188 75.011719 C 37.773438 75.695312 37.457031 76.335938 36.96875 76.824219 L 32.410156 81.386719 C 31.839844 81.953125 31.085938 82.265625 30.28125 82.265625 C 29.480469 82.265625 28.726562 81.953125 28.15625 81.386719 Z M 35.15625 88.449219 C 34.585938 87.882812 34.273438 87.128906 34.273438 86.324219 C 34.273438 85.523438 34.585938 84.765625 35.15625 84.199219 L 39.789062 79.566406 C 40.738281 78.617188 42.261719 78.410156 43.421875 79.089844 C 44.484375 79.707031 45.039062 80.917969 44.859375 82.125 C 44.757812 82.789062 44.441406 83.414062 43.96875 83.890625 L 39.40625 88.449219 C 38.839844 89.019531 38.085938 89.332031 37.28125 89.332031 C 36.476562 89.332031 35.722656 89.019531 35.15625 88.449219 Z M 43.125 94.613281 C 41.953125 93.441406 41.953125 91.535156 43.125 90.363281 L 45.515625 87.972656 C 45.589844 87.898438 45.664062 87.832031 45.742188 87.765625 C 45.742188 87.765625 45.746094 87.765625 45.746094 87.761719 C 46.136719 87.445312 46.59375 87.234375 47.082031 87.144531 C 47.089844 87.140625 47.101562 87.140625 47.113281 87.136719 C 47.199219 87.125 47.285156 87.109375 47.371094 87.105469 C 47.402344 87.101562 47.4375 87.101562 47.472656 87.097656 C 47.542969 87.09375 47.613281 87.089844 47.683594 87.089844 C 48.5 87.101562 49.261719 87.4375 49.828125 88.03125 C 49.898438 88.105469 49.960938 88.183594 50.023438 88.261719 C 50.921875 89.4375 50.800781 91.1875 49.683594 92.308594 L 47.378906 94.613281 C 46.207031 95.785156 44.296875 95.785156 43.125 94.613281 Z M 79.691406 72.738281 C 78.519531 73.910156 76.609375 73.910156 75.4375 72.738281 C 75.394531 72.695312 75.351562 72.65625 75.304688 72.617188 L 62.703125 59.882812 C 61.941406 59.113281 60.699219 59.105469 59.929688 59.867188 C 59.160156 60.628906 59.152344 61.871094 59.914062 62.640625 L 72.65625 75.511719 C 72.65625 75.515625 72.660156 75.515625 72.660156 75.515625 C 73.832031 76.691406 73.832031 78.597656 72.660156 79.769531 C 72.089844 80.339844 71.335938 80.652344 70.535156 80.652344 C 69.730469 80.652344 68.976562 80.339844 68.40625 79.769531 L 59.886719 71.160156 C 59.125 70.390625 57.882812 70.382812 57.113281 71.144531 C 56.34375 71.90625 56.335938 73.148438 57.097656 73.917969 L 65.492188 82.394531 C 65.535156 82.449219 65.578125 82.5 65.628906 82.550781 C 66.800781 83.722656 66.800781 85.628906 65.628906 86.800781 C 64.457031 87.972656 62.546875 87.972656 61.375 86.800781 L 56.722656 82.101562 C 55.960938 81.332031 54.722656 81.324219 53.953125 82.085938 C 53.183594 82.847656 53.175781 84.089844 53.9375 84.859375 L 58.457031 89.425781 C 58.5 89.480469 58.546875 89.53125 58.597656 89.578125 C 59.769531 90.753906 59.769531 92.660156 58.597656 93.832031 C 57.425781 95.003906 55.515625 95.003906 54.34375 93.832031 C 54.210938 93.699219 54.050781 93.59375 53.902344 93.476562 C 53.773438 93.378906 53.738281 93.3125 53.804688 93.15625 C 53.867188 93 53.964844 92.855469 54.03125 92.699219 C 54.101562 92.519531 54.160156 92.339844 54.214844 92.15625 C 54.515625 91.1875 54.605469 90.144531 54.46875 89.140625 C 54.210938 87.210938 53.148438 85.472656 51.542969 84.371094 C 50.671875 83.773438 49.667969 83.386719 48.625 83.238281 C 49.132812 81.011719 48.523438 78.597656 46.949219 76.929688 C 45.648438 75.558594 43.894531 74.789062 42.011719 74.765625 C 41.941406 74.765625 41.871094 74.765625 41.804688 74.765625 C 41.84375 72.964844 41.191406 71.175781 39.949219 69.867188 C 38.652344 68.496094 36.898438 67.726562 35.011719 67.699219 C 34.453125 67.691406 33.886719 67.75 33.339844 67.875 C 33.105469 66.253906 32.289062 64.75 31.050781 63.675781 C 29.816406 62.609375 28.269531 62.019531 26.621094 61.996094 C 24.882812 61.96875 23.175781 62.609375 21.886719 63.773438 L 14.308594 53.566406 L 32.4375 31.484375 L 38.214844 33.0625 L 30.667969 46.375 C 29.757812 47.984375 29.527344 49.855469 30.019531 51.636719 C 30.511719 53.421875 31.671875 54.90625 33.28125 55.816406 C 33.382812 55.875 33.484375 55.929688 33.585938 55.980469 C 33.59375 55.984375 33.601562 55.988281 33.609375 55.992188 C 33.878906 56.128906 34.160156 56.242188 34.441406 56.339844 C 35.753906 56.796875 37.175781 56.847656 38.542969 56.46875 C 40.328125 55.972656 41.808594 54.816406 42.722656 53.207031 L 47.625 44.554688 L 56.378906 45.175781 L 79.691406 68.484375 C 80.863281 69.660156 80.863281 71.566406 79.691406 72.738281 Z M 80.503906 63.753906 L 58.632812 41.886719 C 58.59375 41.84375 58.550781 41.804688 58.503906 41.765625 C 58.191406 41.503906 57.800781 41.347656 57.386719 41.316406 L 46.667969 40.554688 C 45.925781 40.503906 45.191406 40.898438 44.824219 41.546875 L 39.3125 51.273438 C 38.917969 51.972656 38.273438 52.476562 37.496094 52.6875 C 36.722656 52.902344 35.914062 52.804688 35.214844 52.40625 C 34.515625 52.011719 34.011719 51.367188 33.796875 50.59375 C 33.582031 49.820312 33.683594 49.007812 34.082031 48.308594 L 41.4375 35.320312 L 44.421875 34.464844 C 44.441406 34.457031 44.460938 34.449219 44.480469 34.445312 L 55.609375 31.230469 L 69.054688 31.230469 L 85.84375 52.570312 Z M 88.410156 49.492188 L 72.886719 29.75 L 80.808594 24.710938 L 95.316406 43.550781 Z M 88.410156 49.492188 "/>
<path style=" stroke:none;fill-rule:nonzero;fill:rgb(0%,0%,0%);fill-opacity:1;" d="M 60.558594 23.628906 C 61.0625 23.628906 61.5625 23.4375 61.945312 23.054688 L 75.335938 9.667969 C 76.101562 8.902344 76.101562 7.660156 75.335938 6.894531 C 74.570312 6.128906 73.328125 6.128906 72.5625 6.894531 L 59.171875 20.28125 C 58.40625 21.050781 58.40625 22.289062 59.171875 23.054688 C 59.554688 23.4375 60.058594 23.628906 60.558594 23.628906 Z M 60.558594 23.628906 "/>
<path style=" stroke:none;fill-rule:nonzero;fill:rgb(0%,0%,0%);fill-opacity:1;" d="M 38.015625 23.054688 C 38.398438 23.4375 38.898438 23.628906 39.402344 23.628906 C 39.902344 23.628906 40.40625 23.4375 40.789062 23.054688 C 41.554688 22.289062 41.554688 21.050781 40.789062 20.28125 L 27.398438 6.894531 C 26.632812 6.128906 25.390625 6.128906 24.625 6.894531 C 23.859375 7.660156 23.859375 8.902344 24.625 9.667969 Z M 38.015625 23.054688 "/>
<path style=" stroke:none;fill-rule:nonzero;fill:rgb(0%,0%,0%);fill-opacity:1;" d="M 49.980469 23.628906 C 51.0625 23.628906 51.941406 22.75 51.941406 21.667969 L 51.941406 10.589844 C 51.941406 9.507812 51.0625 8.628906 49.980469 8.628906 C 48.898438 8.628906 48.019531 9.507812 48.019531 10.589844 L 48.019531 21.667969 C 48.019531 22.75 48.898438 23.628906 49.980469 23.628906 Z M 49.980469 23.628906 "/>
<path style=" stroke:none;fill-rule:nonzero;fill:rgb(0%,0%,0%);fill-opacity:1;" d="M 48.171875 3.484375 C 48.484375 4.238281 49.257812 4.734375 50.078125 4.691406 C 50.886719 4.648438 51.59375 4.105469 51.84375 3.335938 C 52.097656 2.558594 51.824219 1.675781 51.171875 1.179688 C 50.511719 0.675781 49.585938 0.648438 48.894531 1.105469 C 48.121094 1.617188 47.820312 2.632812 48.171875 3.484375 Z M 48.171875 3.484375 "/>
</g>
</svg>
