<?xml version="1.0" encoding="UTF-8"?>
<svg xmlns="http://www.w3.org/2000/svg" xmlns:xlink="http://www.w3.org/1999/xlink" width="100pt" height="100pt" viewBox="0 0 100 100" version="1.1">
<g id="surface1">
<path style=" stroke:none;fill-rule:nonzero;fill:rgb(100%,91.764706%,65.490196%);fill-opacity:1;" d="M 87.5 28.125 C 90.953125 28.125 93.75 30.921875 93.75 34.375 L 93.75 53.125 C 93.75 56.578125 90.953125 59.375 87.5 59.375 L 84.375 59.375 L 75 65.625 L 75 59.375 L 62.28125 59.375 C 62.421875 58.359375 62.5 57.3125 62.5 56.25 C 62.5 55.1875 62.421875 54.140625 62.28125 53.125 L 84.375 53.125 L 84.375 51.5625 C 84.375 44.4375 79.078125 38.546875 72.203125 37.625 C 71.578125 37.546875 70.953125 37.5 70.3125 37.5 C 74.625 37.5 78.125 34 78.125 29.6875 C 78.125 29.15625 78.078125 28.625 77.96875 28.125 Z M 87.5 28.125 "/>
<path style=" stroke:none;fill-rule:nonzero;fill:rgb(100%,91.764706%,65.490196%);fill-opacity:1;" d="M 62.5 29.6875 C 62.5 34 66 37.5 70.3125 37.5 C 69.671875 37.5 69.046875 37.546875 68.421875 37.625 C 64.453125 38.765625 64.03125 38.96875 63.609375 39.1875 C 61.609375 40.28125 59.90625 41.828125 58.65625 43.703125 L 58.578125 43.765625 C 55.78125 39.75 51.6875 36.71875 46.875 35.28125 L 46.875 34.375 C 46.875 32.0625 48.125 30.046875 50 28.96875 C 50.921875 28.4375 51.984375 28.125 53.125 28.125 L 62.65625 28.125 C 62.546875 28.625 62.5 29.15625 62.5 29.6875 Z M 62.5 29.6875 "/>
<path style=" stroke:none;fill-rule:nonzero;fill:rgb(100%,91.764706%,65.490196%);fill-opacity:1;" d="M 29.6875 34.375 L 40.625 34.375 C 34.65625 34.375 29.25 36.765625 25.3125 40.625 L 9.375 40.625 C 5.921875 40.625 3.125 37.828125 3.125 34.375 L 3.125 15.625 C 3.125 12.171875 5.921875 9.375 9.375 9.375 L 18.90625 9.375 C 18.796875 9.875 18.75 10.40625 18.75 10.9375 C 18.75 15.25 22.25 18.75 26.5625 18.75 L 24.671875 18.875 C 19.4375 20.546875 17.90625 21.59375 16.625 22.875 C 14.078125 25.40625 12.5 28.9375 12.5 32.8125 L 12.5 34.375 Z M 29.6875 34.375 "/>
<path style=" stroke:none;fill-rule:nonzero;fill:rgb(100%,91.764706%,65.490196%);fill-opacity:1;" d="M 50 15.625 L 50 28.96875 C 48.125 30.046875 46.875 32.0625 46.875 34.375 L 46.875 35.28125 C 44.890625 34.6875 42.796875 34.375 40.625 34.375 L 40.625 32.8125 C 40.625 25.6875 35.328125 19.796875 28.453125 18.875 C 27.84375 18.796875 27.203125 18.75 26.5625 18.75 C 30.875 18.75 34.375 15.25 34.375 10.9375 C 34.375 10.40625 34.328125 9.875 34.21875 9.375 L 43.75 9.375 C 47.203125 9.375 50 12.171875 50 15.625 Z M 50 15.625 "/>
<path style=" stroke:none;fill-rule:nonzero;fill:rgb(100%,50.980392%,43.137255%);fill-opacity:1;" d="M 40.625 32.8125 L 40.625 34.375 L 29.6875 34.375 L 28.453125 18.890625 L 28.453125 18.875 C 35.328125 19.796875 40.625 25.6875 40.625 32.8125 Z M 40.625 32.8125 "/>
<path style=" stroke:none;fill-rule:nonzero;fill:rgb(100%,50.980392%,43.137255%);fill-opacity:1;" d="M 24.671875 18.890625 L 23.4375 34.375 L 12.5 34.375 L 12.5 32.8125 C 12.5 28.9375 14.078125 25.40625 16.625 22.875 C 17.90625 21.59375 19.4375 20.546875 24.671875 18.875 Z M 24.671875 18.890625 "/>
<path style=" stroke:none;fill-rule:nonzero;fill:rgb(90.196078%,91.372549%,92.941176%);fill-opacity:1;" d="M 28.453125 18.890625 L 29.6875 34.375 L 23.4375 34.375 L 24.671875 18.890625 L 24.671875 18.875 L 26.5625 18.75 C 27.203125 18.75 27.84375 18.796875 28.453125 18.875 Z M 28.453125 18.890625 "/>
<path style=" stroke:none;fill-rule:nonzero;fill:rgb(70.588235%,86.666667%,49.803922%);fill-opacity:1;" d="M 84.375 51.5625 L 84.375 53.125 L 73.4375 53.125 L 72.203125 37.640625 L 72.203125 37.625 C 79.078125 38.546875 84.375 44.4375 84.375 51.5625 Z M 84.375 51.5625 "/>
<path style=" stroke:none;fill-rule:nonzero;fill:rgb(70.588235%,86.666667%,49.803922%);fill-opacity:1;" d="M 68.421875 37.625 L 68.421875 37.640625 L 67.1875 53.125 L 62.28125 53.125 C 61.78125 49.6875 60.484375 46.5 58.578125 43.765625 L 58.65625 43.703125 C 59.90625 41.828125 61.609375 40.28125 63.609375 39.1875 C 64.03125 38.96875 64.453125 38.765625 68.421875 37.625 Z M 68.421875 37.625 "/>
<path style=" stroke:none;fill-rule:nonzero;fill:rgb(90.196078%,91.372549%,92.941176%);fill-opacity:1;" d="M 72.203125 37.640625 L 73.4375 53.125 L 67.1875 53.125 L 68.421875 37.640625 L 68.421875 37.625 C 69.046875 37.546875 69.671875 37.5 70.3125 37.5 C 70.953125 37.5 71.578125 37.546875 72.203125 37.625 Z M 72.203125 37.640625 "/>
<path style=" stroke:none;fill-rule:nonzero;fill:rgb(70.588235%,86.666667%,49.803922%);fill-opacity:1;" d="M 96.875 75 L 96.875 93.75 C 96.875 95.46875 95.46875 96.875 93.75 96.875 L 65.625 96.875 C 63.90625 96.875 62.5 95.46875 62.5 93.75 L 62.5 75 C 62.5 73.28125 63.90625 71.875 65.625 71.875 L 93.75 71.875 C 95.46875 71.875 96.875 73.28125 96.875 75 Z M 96.875 75 "/>
<path style=" stroke:none;fill-rule:nonzero;fill:rgb(87.45098%,69.803922%,54.509804%);fill-opacity:1;" d="M 18.75 73.4375 L 25 79.6875 L 12.5625 92.125 C 11.515625 93.171875 10.109375 93.75 8.65625 93.75 C 7.125 93.75 5.75 93.125 4.75 92.125 C 3.75 91.125 3.125 89.75 3.125 88.21875 C 3.125 86.765625 3.703125 85.359375 4.75 84.3125 L 17.1875 71.875 Z M 18.75 73.4375 "/>
<path style=" stroke:none;fill-rule:nonzero;fill:rgb(98.823529%,84.313725%,43.921569%);fill-opacity:1;" d="M 27.6875 73.875 L 23.4375 78.125 L 18.75 73.4375 L 23 69.1875 C 24.3125 70.984375 25.890625 72.5625 27.6875 73.875 Z M 27.6875 73.875 "/>
<path style=" stroke:none;fill-rule:nonzero;fill:rgb(90.196078%,91.372549%,92.941176%);fill-opacity:1;" d="M 27.6875 73.875 C 25.890625 72.5625 24.3125 70.984375 23 69.1875 C 20.328125 65.5625 18.75 61.078125 18.75 56.25 C 18.75 50.140625 21.265625 44.609375 25.3125 40.625 C 29.25 36.765625 34.65625 34.375 40.625 34.375 C 42.796875 34.375 44.890625 34.6875 46.875 35.28125 C 51.6875 36.71875 55.78125 39.75 58.578125 43.765625 C 60.484375 46.5 61.78125 49.6875 62.28125 53.125 C 62.421875 54.140625 62.5 55.1875 62.5 56.25 C 62.5 57.3125 62.421875 58.359375 62.28125 59.375 C 60.765625 69.96875 51.640625 78.125 40.625 78.125 C 35.796875 78.125 31.3125 76.546875 27.6875 73.875 Z M 27.6875 73.875 "/>
<path style=" stroke:none;fill-rule:nonzero;fill:rgb(41.176471%,83.921569%,95.686275%);fill-opacity:1;" d="M 56.25 56.25 C 56.25 64.878906 49.253906 71.875 40.625 71.875 C 31.996094 71.875 25 64.878906 25 56.25 C 25 47.621094 31.996094 40.625 40.625 40.625 C 49.253906 40.625 56.25 47.621094 56.25 56.25 Z M 56.25 56.25 "/>
<path style=" stroke:none;fill-rule:nonzero;fill:rgb(94.117647%,81.568627%,70.588235%);fill-opacity:1;" d="M 34.21875 9.375 C 34.328125 9.875 34.375 10.40625 34.375 10.9375 C 34.375 15.25 30.875 18.75 26.5625 18.75 C 22.25 18.75 18.75 15.25 18.75 10.9375 C 18.75 10.40625 18.796875 9.875 18.90625 9.375 C 19.625 5.8125 22.78125 3.125 26.5625 3.125 C 30.34375 3.125 33.5 5.8125 34.21875 9.375 Z M 34.21875 9.375 "/>
<path style=" stroke:none;fill-rule:nonzero;fill:rgb(94.117647%,81.568627%,70.588235%);fill-opacity:1;" d="M 78.125 29.6875 C 78.125 34 74.625 37.5 70.3125 37.5 C 66 37.5 62.5 34 62.5 29.6875 C 62.5 29.15625 62.546875 28.625 62.65625 28.125 C 63.375 24.5625 66.53125 21.875 70.3125 21.875 C 74.09375 21.875 77.25 24.5625 77.96875 28.125 C 78.078125 28.625 78.125 29.15625 78.125 29.6875 Z M 78.125 29.6875 "/>
<path style=" stroke:none;fill-rule:nonzero;fill:rgb(0%,0%,0%);fill-opacity:1;" d="M 40.625 39.0625 C 31.148438 39.0625 23.4375 46.773438 23.4375 56.25 C 23.4375 65.726562 31.148438 73.4375 40.625 73.4375 C 50.101562 73.4375 57.8125 65.726562 57.8125 56.25 C 57.8125 46.773438 50.101562 39.0625 40.625 39.0625 Z M 40.625 70.3125 C 32.871094 70.3125 26.5625 64.003906 26.5625 56.25 C 26.5625 48.496094 32.871094 42.1875 40.625 42.1875 C 48.378906 42.1875 54.6875 48.496094 54.6875 56.25 C 54.6875 64.003906 48.378906 70.3125 40.625 70.3125 Z M 40.625 70.3125 "/>
<path style=" stroke:none;fill-rule:nonzero;fill:rgb(0%,0%,0%);fill-opacity:1;" d="M 73.4375 60.9375 L 73.4375 68.542969 L 84.847656 60.9375 L 87.5 60.9375 C 91.808594 60.9375 95.3125 57.433594 95.3125 53.125 L 95.3125 34.375 C 95.3125 30.066406 91.808594 26.5625 87.5 26.5625 L 79.140625 26.5625 C 77.851562 22.925781 74.386719 20.3125 70.3125 20.3125 C 66.238281 20.3125 62.773438 22.925781 61.484375 26.5625 L 53.125 26.5625 C 52.589844 26.5625 52.066406 26.617188 51.5625 26.71875 L 51.5625 15.625 C 51.5625 11.316406 48.058594 7.8125 43.75 7.8125 L 35.390625 7.8125 C 34.101562 4.175781 30.636719 1.5625 26.5625 1.5625 C 22.488281 1.5625 19.023438 4.175781 17.734375 7.8125 L 9.375 7.8125 C 5.066406 7.8125 1.5625 11.316406 1.5625 15.625 L 1.5625 34.375 C 1.5625 38.683594 5.066406 42.1875 9.375 42.1875 L 21.917969 42.1875 C 18.960938 46.109375 17.1875 50.96875 17.1875 56.25 C 17.1875 60.949219 18.589844 65.320312 20.984375 68.996094 L 18.75 71.226562 L 17.1875 69.664062 L 3.640625 83.214844 C 2.300781 84.554688 1.5625 86.335938 1.5625 88.226562 C 1.5625 92.132812 4.742188 95.3125 8.648438 95.3125 C 10.542969 95.3125 12.324219 94.574219 13.660156 93.238281 L 27.210938 79.6875 L 25.648438 78.125 L 27.878906 75.890625 C 31.554688 78.285156 35.925781 79.6875 40.625 79.6875 C 51.945312 79.6875 61.414062 71.625 63.589844 60.9375 Z M 79.6875 29.6875 L 87.5 29.6875 C 90.085938 29.6875 92.1875 31.789062 92.1875 34.375 L 92.1875 53.125 C 92.1875 55.710938 90.085938 57.8125 87.5 57.8125 L 83.902344 57.8125 L 76.5625 62.707031 L 76.5625 57.8125 L 63.984375 57.8125 C 64.015625 57.292969 64.0625 56.777344 64.0625 56.25 C 64.0625 55.722656 64.015625 55.207031 63.984375 54.6875 L 85.9375 54.6875 L 85.9375 51.5625 C 85.9375 44.988281 81.851562 39.359375 76.085938 37.058594 C 78.273438 35.339844 79.6875 32.679688 79.6875 29.6875 Z M 74.882812 51.5625 L 73.925781 39.601562 C 79.0625 41.15625 82.8125 45.925781 82.8125 51.5625 Z M 70.75 39.085938 L 71.746094 51.5625 L 68.878906 51.5625 L 69.875 39.089844 C 70.023438 39.085938 70.164062 39.0625 70.3125 39.0625 C 70.460938 39.0625 70.601562 39.078125 70.75 39.085938 Z M 65.742188 51.5625 L 63.589844 51.5625 C 63.023438 48.785156 61.945312 46.195312 60.488281 43.867188 C 62.089844 41.824219 64.257812 40.355469 66.695312 39.617188 Z M 70.3125 23.4375 C 73.757812 23.4375 76.5625 26.242188 76.5625 29.6875 C 76.5625 33.132812 73.757812 35.9375 70.3125 35.9375 C 66.867188 35.9375 64.0625 33.132812 64.0625 29.6875 C 64.0625 26.242188 66.867188 23.4375 70.3125 23.4375 Z M 60.9375 29.6875 C 60.9375 32.675781 62.347656 35.335938 64.53125 37.054688 C 62.269531 37.957031 60.230469 39.375 58.59375 41.230469 C 55.933594 38.050781 52.4375 35.605469 48.457031 34.1875 C 48.558594 31.691406 50.605469 29.6875 53.125 29.6875 Z M 35.9375 10.9375 L 43.75 10.9375 C 46.335938 10.9375 48.4375 13.039062 48.4375 15.625 L 48.4375 28.164062 C 46.820312 29.390625 45.710938 31.210938 45.421875 33.3125 C 44.367188 33.089844 43.285156 32.964844 42.1875 32.894531 L 42.1875 32.8125 C 42.1875 26.238281 38.101562 20.609375 32.335938 18.308594 C 34.523438 16.589844 35.9375 13.929688 35.9375 10.9375 Z M 14.0625 32.8125 C 14.0625 27.175781 17.8125 22.40625 22.949219 20.851562 L 21.992188 32.8125 Z M 26.125 20.335938 C 26.273438 20.328125 26.414062 20.3125 26.5625 20.3125 C 26.710938 20.3125 26.851562 20.328125 27 20.335938 L 27.996094 32.8125 L 25.128906 32.8125 Z M 30.175781 20.851562 C 35.3125 22.40625 39.0625 27.175781 39.0625 32.8125 L 31.132812 32.8125 Z M 26.5625 4.6875 C 30.007812 4.6875 32.8125 7.492188 32.8125 10.9375 C 32.8125 14.382812 30.007812 17.1875 26.5625 17.1875 C 23.117188 17.1875 20.3125 14.382812 20.3125 10.9375 C 20.3125 7.492188 23.117188 4.6875 26.5625 4.6875 Z M 4.6875 34.375 L 4.6875 15.625 C 4.6875 13.039062 6.789062 10.9375 9.375 10.9375 L 17.1875 10.9375 C 17.1875 13.929688 18.601562 16.589844 20.789062 18.308594 C 15.023438 20.609375 10.9375 26.238281 10.9375 32.8125 L 10.9375 35.9375 L 28.984375 35.9375 C 27.453125 36.820312 26.035156 37.871094 24.746094 39.0625 L 9.375 39.0625 C 6.789062 39.0625 4.6875 36.960938 4.6875 34.375 Z M 11.453125 91.027344 C 10.703125 91.773438 9.707031 92.1875 8.648438 92.1875 C 6.464844 92.1875 4.6875 90.410156 4.6875 88.226562 C 4.6875 87.167969 5.101562 86.175781 5.847656 85.425781 L 17.1875 74.085938 L 22.789062 79.6875 Z M 23.4375 75.914062 L 20.960938 73.4375 L 22.878906 71.515625 C 23.644531 72.402344 24.472656 73.230469 25.359375 73.996094 Z M 40.625 76.5625 C 29.425781 76.5625 20.3125 67.449219 20.3125 56.25 C 20.3125 45.050781 29.425781 35.9375 40.625 35.9375 C 51.824219 35.9375 60.9375 45.050781 60.9375 56.25 C 60.9375 67.449219 51.824219 76.5625 40.625 76.5625 Z M 40.625 76.5625 "/>
<path style=" stroke:none;fill-rule:nonzero;fill:rgb(0%,0%,0%);fill-opacity:1;" d="M 93.75 70.3125 L 65.625 70.3125 C 63.039062 70.3125 60.9375 72.414062 60.9375 75 L 60.9375 93.75 C 60.9375 96.335938 63.039062 98.4375 65.625 98.4375 L 93.75 98.4375 C 96.335938 98.4375 98.4375 96.335938 98.4375 93.75 L 98.4375 75 C 98.4375 72.414062 96.335938 70.3125 93.75 70.3125 Z M 95.3125 93.75 C 95.3125 94.613281 94.609375 95.3125 93.75 95.3125 L 65.625 95.3125 C 64.765625 95.3125 64.0625 94.613281 64.0625 93.75 L 64.0625 75 C 64.0625 74.136719 64.765625 73.4375 65.625 73.4375 L 93.75 73.4375 C 94.609375 73.4375 95.3125 74.136719 95.3125 75 Z M 95.3125 93.75 "/>
<path style=" stroke:none;fill-rule:nonzero;fill:rgb(0%,0%,0%);fill-opacity:1;" d="M 89.0625 79.6875 L 85.9375 79.6875 L 85.9375 89.0625 L 82.8125 89.0625 L 82.8125 82.8125 L 79.6875 82.8125 L 79.6875 89.0625 L 76.5625 89.0625 L 76.5625 85.9375 L 73.4375 85.9375 L 73.4375 89.0625 L 70.3125 89.0625 L 70.3125 76.5625 L 67.1875 76.5625 L 67.1875 92.1875 L 92.1875 92.1875 L 92.1875 89.0625 L 89.0625 89.0625 Z M 89.0625 79.6875 "/>
<path style=" stroke:none;fill-rule:nonzero;fill:rgb(0%,0%,0%);fill-opacity:1;" d="M 85.9375 32.8125 L 89.0625 32.8125 L 89.0625 35.9375 L 85.9375 35.9375 Z M 85.9375 32.8125 "/>
<path style=" stroke:none;fill-rule:nonzero;fill:rgb(0%,0%,0%);fill-opacity:1;" d="M 85.9375 39.0625 L 89.0625 39.0625 L 89.0625 42.1875 L 85.9375 42.1875 Z M 85.9375 39.0625 "/>
<path style=" stroke:none;fill-rule:nonzero;fill:rgb(0%,0%,0%);fill-opacity:1;" d="M 7.8125 14.0625 L 10.9375 14.0625 L 10.9375 17.1875 L 7.8125 17.1875 Z M 7.8125 14.0625 "/>
<path style=" stroke:none;fill-rule:nonzero;fill:rgb(0%,0%,0%);fill-opacity:1;" d="M 7.8125 20.3125 L 10.9375 20.3125 L 10.9375 23.4375 L 7.8125 23.4375 Z M 7.8125 20.3125 "/>
</g>
</svg>
