<?xml version="1.0" encoding="UTF-8"?>
<svg xmlns="http://www.w3.org/2000/svg" xmlns:xlink="http://www.w3.org/1999/xlink" width="100pt" height="100pt" viewBox="0 0 100 100" version="1.1">
<g id="surface1">
<path style=" stroke:none;fill-rule:nonzero;fill:rgb(66.666667%,16.862745%,14.117647%);fill-opacity:1;" d="M 9.375 3.125 L 90.625 3.125 C 94.078125 3.125 96.875 5.921875 96.875 9.375 L 96.875 90.625 C 96.875 94.078125 94.078125 96.875 90.625 96.875 L 9.375 96.875 C 5.921875 96.875 3.125 94.078125 3.125 90.625 L 3.125 9.375 C 3.125 5.921875 5.921875 3.125 9.375 3.125 Z M 9.375 3.125 "/>
<path style=" stroke:none;fill-rule:nonzero;fill:rgb(87.843137%,87.843137%,87.843137%);fill-opacity:1;" d="M 3.125 90.625 C 3.125 94.078125 5.921875 96.875 9.375 96.875 L 90.625 96.875 C 94.078125 96.875 96.875 94.078125 96.875 90.625 L 96.875 21.875 L 3.125 21.875 Z M 3.125 90.625 "/>
<path style=" stroke:none;fill-rule:nonzero;fill:rgb(82.352941%,25.098039%,20.392157%);fill-opacity:1;" d="M 3.125 9.375 L 3.125 17.1875 L 85.9375 17.1875 C 88.527344 17.1875 90.625 15.089844 90.625 12.5 L 90.625 3.125 L 9.375 3.125 C 5.921875 3.125 3.125 5.921875 3.125 9.375 Z M 3.125 9.375 "/>
<path style=" stroke:none;fill-rule:nonzero;fill:rgb(100%,100%,100%);fill-opacity:1;" d="M 78.125 12.5 C 78.125 14.226562 76.726562 15.625 75 15.625 C 73.273438 15.625 71.875 14.226562 71.875 12.5 C 71.875 10.773438 73.273438 9.375 75 9.375 C 76.726562 9.375 78.125 10.773438 78.125 12.5 Z M 78.125 12.5 "/>
<path style=" stroke:none;fill-rule:nonzero;fill:rgb(100%,100%,100%);fill-opacity:1;" d="M 90.625 12.5 C 90.625 14.226562 89.226562 15.625 87.5 15.625 C 85.773438 15.625 84.375 14.226562 84.375 12.5 C 84.375 10.773438 85.773438 9.375 87.5 9.375 C 89.226562 9.375 90.625 10.773438 90.625 12.5 Z M 90.625 12.5 "/>
<path style=" stroke:none;fill-rule:nonzero;fill:rgb(82.352941%,25.098039%,20.392157%);fill-opacity:1;" d="M 65.625 21.875 L 65.625 25 C 65.625 26.726562 64.226562 28.125 62.5 28.125 L 3.125 28.125 L 3.125 21.875 Z M 65.625 21.875 "/>
<path style=" stroke:none;fill-rule:nonzero;fill:rgb(100%,100%,100%);fill-opacity:1;" d="M 18.75 53.125 L 81.25 53.125 C 83.839844 53.125 85.9375 55.222656 85.9375 57.8125 L 85.9375 85.9375 C 85.9375 88.527344 83.839844 90.625 81.25 90.625 L 18.75 90.625 C 16.160156 90.625 14.0625 88.527344 14.0625 85.9375 L 14.0625 57.8125 C 14.0625 55.222656 16.160156 53.125 18.75 53.125 Z M 18.75 53.125 "/>
<path style=" stroke:none;fill-rule:nonzero;fill:rgb(95.294118%,65.882353%,27.058824%);fill-opacity:1;" d="M 64.0625 50 C 64.0625 57.765625 57.765625 64.0625 50 64.0625 C 42.234375 64.0625 35.9375 57.765625 35.9375 50 C 35.9375 42.234375 42.234375 35.9375 50 35.9375 C 57.765625 35.9375 64.0625 42.234375 64.0625 50 Z M 64.0625 50 "/>
<path style=" stroke:none;fill-rule:nonzero;fill:rgb(93.333333%,80%,38.039216%);fill-opacity:1;" d="M 50 35.9375 C 44.449219 35.929688 39.417969 39.191406 37.15625 44.257812 C 34.894531 49.324219 35.828125 55.25 39.539062 59.375 L 51.5625 59.375 C 55.015625 59.375 57.8125 56.578125 57.8125 53.125 L 57.8125 38.308594 C 55.503906 36.757812 52.78125 35.933594 50 35.9375 Z M 50 35.9375 "/>
<path style=" stroke:none;fill-rule:nonzero;fill:rgb(95.294118%,65.882353%,27.058824%);fill-opacity:1;" d="M 28.125 70.3125 L 30.539062 74.941406 L 35.9375 75.683594 L 32.03125 79.289062 L 32.953125 84.375 L 28.125 81.972656 L 23.296875 84.375 L 24.21875 79.289062 L 20.3125 75.683594 L 25.710938 74.941406 Z M 28.125 70.3125 "/>
<path style=" stroke:none;fill-rule:nonzero;fill:rgb(93.333333%,80%,38.039216%);fill-opacity:1;" d="M 26.5625 81.25 C 29.152344 81.25 31.25 79.152344 31.25 76.5625 L 31.25 75.039062 L 30.539062 74.941406 L 28.125 70.3125 L 25.710938 74.941406 L 20.3125 75.683594 L 24.21875 79.289062 L 23.863281 81.25 Z M 26.5625 81.25 "/>
<path style=" stroke:none;fill-rule:nonzero;fill:rgb(0%,0%,0%);fill-opacity:1;" d="M 90.625 1.5625 L 9.375 1.5625 C 5.0625 1.566406 1.566406 5.0625 1.5625 9.375 L 1.5625 90.625 C 1.566406 94.9375 5.0625 98.433594 9.375 98.4375 L 90.625 98.4375 C 94.9375 98.433594 98.433594 94.9375 98.4375 90.625 L 98.4375 9.375 C 98.433594 5.0625 94.9375 1.566406 90.625 1.5625 Z M 9.375 4.6875 L 90.625 4.6875 C 93.214844 4.6875 95.3125 6.785156 95.3125 9.375 L 95.3125 20.3125 L 4.6875 20.3125 L 4.6875 9.375 C 4.6875 6.785156 6.785156 4.6875 9.375 4.6875 Z M 4.6875 26.5625 L 4.6875 23.4375 L 17.1875 23.4375 L 17.1875 26.5625 Z M 20.3125 23.4375 L 32.8125 23.4375 L 32.8125 26.5625 L 20.3125 26.5625 Z M 35.9375 23.4375 L 48.4375 23.4375 L 48.4375 26.5625 L 35.9375 26.5625 Z M 51.5625 23.4375 L 64.0625 23.4375 L 64.0625 25 C 64.0625 25.863281 63.363281 26.5625 62.5 26.5625 L 51.5625 26.5625 Z M 90.625 95.3125 L 9.375 95.3125 C 6.785156 95.3125 4.6875 93.214844 4.6875 90.625 L 4.6875 29.6875 L 62.5 29.6875 C 65.089844 29.6875 67.1875 27.589844 67.1875 25 L 67.1875 23.4375 L 95.3125 23.4375 L 95.3125 90.625 C 95.3125 93.214844 93.214844 95.3125 90.625 95.3125 Z M 90.625 95.3125 "/>
<path style=" stroke:none;fill-rule:nonzero;fill:rgb(0%,0%,0%);fill-opacity:1;" d="M 75 17.1875 C 77.589844 17.1875 79.6875 15.089844 79.6875 12.5 C 79.6875 9.910156 77.589844 7.8125 75 7.8125 C 72.410156 7.8125 70.3125 9.910156 70.3125 12.5 C 70.3125 15.089844 72.410156 17.1875 75 17.1875 Z M 75 10.9375 C 75.863281 10.9375 76.5625 11.636719 76.5625 12.5 C 76.5625 13.363281 75.863281 14.0625 75 14.0625 C 74.136719 14.0625 73.4375 13.363281 73.4375 12.5 C 73.4375 11.636719 74.136719 10.9375 75 10.9375 Z M 75 10.9375 "/>
<path style=" stroke:none;fill-rule:nonzero;fill:rgb(0%,0%,0%);fill-opacity:1;" d="M 87.5 17.1875 C 90.089844 17.1875 92.1875 15.089844 92.1875 12.5 C 92.1875 9.910156 90.089844 7.8125 87.5 7.8125 C 84.910156 7.8125 82.8125 9.910156 82.8125 12.5 C 82.8125 15.089844 84.910156 17.1875 87.5 17.1875 Z M 87.5 10.9375 C 88.363281 10.9375 89.0625 11.636719 89.0625 12.5 C 89.0625 13.363281 88.363281 14.0625 87.5 14.0625 C 86.636719 14.0625 85.9375 13.363281 85.9375 12.5 C 85.9375 11.636719 86.636719 10.9375 87.5 10.9375 Z M 87.5 10.9375 "/>
<path style=" stroke:none;fill-rule:nonzero;fill:rgb(0%,0%,0%);fill-opacity:1;" d="M 81.25 51.5625 L 65.546875 51.5625 C 66.140625 45.636719 63.3125 39.886719 58.257812 36.738281 C 53.203125 33.589844 46.796875 33.589844 41.738281 36.738281 C 36.683594 39.886719 33.855469 45.636719 34.453125 51.5625 L 18.75 51.5625 C 15.296875 51.5625 12.5 54.359375 12.5 57.8125 L 12.5 85.9375 C 12.5 89.390625 15.296875 92.1875 18.75 92.1875 L 81.25 92.1875 C 84.703125 92.1875 87.5 89.390625 87.5 85.9375 L 87.5 57.8125 C 87.5 54.359375 84.703125 51.5625 81.25 51.5625 Z M 50 37.5 C 56.902344 37.5 62.5 43.097656 62.5 50 C 62.5 56.902344 56.902344 62.5 50 62.5 C 43.097656 62.5 37.5 56.902344 37.5 50 C 37.507812 43.101562 43.101562 37.507812 50 37.5 Z M 84.375 85.9375 C 84.375 87.664062 82.976562 89.0625 81.25 89.0625 L 18.75 89.0625 C 17.023438 89.0625 15.625 87.664062 15.625 85.9375 L 15.625 57.8125 C 15.625 56.085938 17.023438 54.6875 18.75 54.6875 L 35.09375 54.6875 C 37.144531 61.195312 43.175781 65.625 50 65.625 C 56.824219 65.625 62.855469 61.195312 64.90625 54.6875 L 81.25 54.6875 C 82.976562 54.6875 84.375 56.085938 84.375 57.8125 Z M 84.375 85.9375 "/>
<path style=" stroke:none;fill-rule:nonzero;fill:rgb(0%,0%,0%);fill-opacity:1;" d="M 42.1875 43.75 L 45.3125 43.75 L 45.3125 46.875 L 42.1875 46.875 Z M 42.1875 43.75 "/>
<path style=" stroke:none;fill-rule:nonzero;fill:rgb(0%,0%,0%);fill-opacity:1;" d="M 54.6875 43.75 L 57.8125 43.75 L 57.8125 46.875 L 54.6875 46.875 Z M 54.6875 43.75 "/>
<path style=" stroke:none;fill-rule:nonzero;fill:rgb(0%,0%,0%);fill-opacity:1;" d="M 50 53.125 C 52.589844 53.125 54.6875 55.222656 54.6875 57.8125 L 57.8125 57.8125 C 57.8125 53.496094 54.316406 50 50 50 C 45.683594 50 42.1875 53.496094 42.1875 57.8125 L 45.3125 57.8125 C 45.3125 55.222656 47.410156 53.125 50 53.125 Z M 50 53.125 "/>
<path style=" stroke:none;fill-rule:nonzero;fill:rgb(0%,0%,0%);fill-opacity:1;" d="M 37.429688 75.214844 C 37.246094 74.640625 36.75 74.21875 36.148438 74.136719 L 31.550781 73.511719 L 29.519531 69.597656 C 29.222656 69.113281 28.699219 68.820312 28.132812 68.820312 C 27.566406 68.820312 27.042969 69.113281 26.746094 69.597656 L 24.714844 73.511719 L 20.117188 74.136719 C 19.515625 74.21875 19.019531 74.640625 18.835938 75.214844 C 18.65625 75.792969 18.824219 76.421875 19.269531 76.832031 L 22.550781 79.851562 L 21.78125 84.09375 C 21.679688 84.671875 21.90625 85.257812 22.371094 85.613281 C 22.835938 85.96875 23.464844 86.035156 23.992188 85.78125 L 28.125 83.71875 L 32.257812 85.78125 C 32.789062 86.042969 33.421875 85.988281 33.894531 85.628906 C 34.367188 85.273438 34.597656 84.683594 34.492188 84.101562 L 33.722656 79.859375 L 37.003906 76.839844 C 37.449219 76.425781 37.613281 75.792969 37.429688 75.214844 Z M 30.972656 78.140625 C 30.578125 78.5 30.398438 79.039062 30.492188 79.566406 L 30.859375 81.589844 L 28.820312 80.574219 C 28.382812 80.355469 27.867188 80.355469 27.429688 80.574219 L 25.390625 81.589844 L 25.757812 79.566406 C 25.851562 79.039062 25.671875 78.5 25.277344 78.140625 L 23.804688 76.78125 L 25.921875 76.488281 C 26.425781 76.421875 26.863281 76.113281 27.097656 75.664062 L 28.125 73.691406 L 29.152344 75.664062 C 29.386719 76.113281 29.824219 76.421875 30.328125 76.488281 L 32.445312 76.78125 Z M 30.972656 78.140625 "/>
<path style=" stroke:none;fill-rule:nonzero;fill:rgb(0%,0%,0%);fill-opacity:1;" d="M 75 82.8125 L 78.125 82.8125 L 78.125 85.9375 L 75 85.9375 Z M 75 82.8125 "/>
<path style=" stroke:none;fill-rule:nonzero;fill:rgb(0%,0%,0%);fill-opacity:1;" d="M 37.5 82.8125 L 71.875 82.8125 L 71.875 85.9375 L 37.5 85.9375 Z M 37.5 82.8125 "/>
</g>
</svg>
