<?xml version="1.0" encoding="UTF-8"?>
<svg xmlns="http://www.w3.org/2000/svg" xmlns:xlink="http://www.w3.org/1999/xlink" width="100pt" height="100pt" viewBox="0 0 100 100" version="1.1">
<g id="surface1">
<path style=" stroke:none;fill-rule:nonzero;fill:rgb(99.607843%,93.333333%,83.921569%);fill-opacity:1;" d="M 1.5625 10.9375 L 98.4375 10.9375 L 98.4375 89.0625 L 1.5625 89.0625 Z M 1.5625 10.9375 "/>
<path style=" stroke:none;fill-rule:nonzero;fill:rgb(98.431373%,59.215686%,0%);fill-opacity:1;" d="M 1.5625 10.9375 L 98.4375 10.9375 L 98.4375 23.4375 L 1.5625 23.4375 Z M 1.5625 10.9375 "/>
<path style=" stroke:none;fill-rule:nonzero;fill:rgb(0%,0%,0%);fill-opacity:1;" d="M 98.4375 9.375 L 1.5625 9.375 C 0.699219 9.375 0 10.074219 0 10.9375 L 0 89.0625 C 0 89.925781 0.699219 90.625 1.5625 90.625 L 98.4375 90.625 C 99.300781 90.625 100 89.925781 100 89.0625 L 100 10.9375 C 100 10.074219 99.300781 9.375 98.4375 9.375 Z M 3.125 12.5 L 96.875 12.5 L 96.875 21.875 L 3.125 21.875 Z M 3.125 87.5 L 3.125 25 L 96.875 25 L 96.875 87.5 Z M 3.125 87.5 "/>
<path style=" stroke:none;fill-rule:nonzero;fill:rgb(0%,0%,0%);fill-opacity:1;" d="M 9.375 15.625 L 12.5 15.625 L 12.5 18.75 L 9.375 18.75 Z M 9.375 15.625 "/>
<path style=" stroke:none;fill-rule:nonzero;fill:rgb(0%,0%,0%);fill-opacity:1;" d="M 15.625 15.625 L 18.75 15.625 L 18.75 18.75 L 15.625 18.75 Z M 15.625 15.625 "/>
<path style=" stroke:none;fill-rule:nonzero;fill:rgb(0%,0%,0%);fill-opacity:1;" d="M 21.875 15.625 L 25 15.625 L 25 18.75 L 21.875 18.75 Z M 21.875 15.625 "/>
<path style=" stroke:none;fill-rule:nonzero;fill:rgb(0%,0%,0%);fill-opacity:1;" d="M 81.25 15.625 L 90.625 15.625 L 90.625 18.75 L 81.25 18.75 Z M 81.25 15.625 "/>
<path style=" stroke:none;fill-rule:nonzero;fill:rgb(99.215686%,80.392157%,23.137255%);fill-opacity:1;" d="M 12.5 64.0625 C 11.636719 64.0625 10.9375 63.363281 10.9375 62.5 L 10.9375 34.375 C 10.9375 33.511719 11.636719 32.8125 12.5 32.8125 L 87.5 32.8125 C 88.363281 32.8125 89.0625 33.511719 89.0625 34.375 L 89.0625 62.5 C 89.0625 63.363281 88.363281 64.0625 87.5 64.0625 Z M 12.5 64.0625 "/>
<path style=" stroke:none;fill-rule:nonzero;fill:rgb(0%,0%,0%);fill-opacity:1;" d="M 87.5 65.625 L 78.125 65.625 L 78.125 62.5 L 87.5 62.5 L 87.5 34.375 L 12.5 34.375 L 12.5 62.5 L 56.25 62.5 L 56.25 65.625 L 12.5 65.625 C 10.777344 65.625 9.375 64.222656 9.375 62.5 L 9.375 34.375 C 9.375 32.652344 10.777344 31.25 12.5 31.25 L 87.5 31.25 C 89.222656 31.25 90.625 32.652344 90.625 34.375 L 90.625 62.5 C 90.625 64.222656 89.222656 65.625 87.5 65.625 Z M 87.5 65.625 "/>
<path style=" stroke:none;fill-rule:nonzero;fill:rgb(0%,0%,0%);fill-opacity:1;" d="M 9.375 68.75 L 12.5 68.75 L 12.5 71.875 L 9.375 71.875 Z M 9.375 68.75 "/>
<path style=" stroke:none;fill-rule:nonzero;fill:rgb(0%,0%,0%);fill-opacity:1;" d="M 9.375 75 L 12.5 75 L 12.5 78.125 L 9.375 78.125 Z M 9.375 75 "/>
<path style=" stroke:none;fill-rule:nonzero;fill:rgb(0%,0%,0%);fill-opacity:1;" d="M 15.625 68.75 L 40.625 68.75 L 40.625 71.875 L 15.625 71.875 Z M 15.625 68.75 "/>
<path style=" stroke:none;fill-rule:nonzero;fill:rgb(0%,0%,0%);fill-opacity:1;" d="M 15.625 75 L 18.75 75 L 18.75 78.125 L 15.625 78.125 Z M 15.625 75 "/>
<path style=" stroke:none;fill-rule:nonzero;fill:rgb(0%,0%,0%);fill-opacity:1;" d="M 21.875 75 L 53.125 75 L 53.125 78.125 L 21.875 78.125 Z M 21.875 75 "/>
<path style=" stroke:none;fill-rule:nonzero;fill:rgb(0%,0%,0%);fill-opacity:1;" d="M 43.75 68.75 L 46.875 68.75 L 46.875 71.875 L 43.75 71.875 Z M 43.75 68.75 "/>
<path style=" stroke:none;fill-rule:nonzero;fill:rgb(0%,0%,0%);fill-opacity:1;" d="M 50 68.75 L 53.125 68.75 L 53.125 71.875 L 50 71.875 Z M 50 68.75 "/>
<path style=" stroke:none;fill-rule:nonzero;fill:rgb(0%,0%,0%);fill-opacity:1;" d="M 65.625 37.5 L 75 37.5 L 75 40.625 L 65.625 40.625 Z M 65.625 37.5 "/>
<path style=" stroke:none;fill-rule:nonzero;fill:rgb(0%,0%,0%);fill-opacity:1;" d="M 78.125 37.5 L 84.375 37.5 L 84.375 40.625 L 78.125 40.625 Z M 78.125 37.5 "/>
<path style=" stroke:none;fill-rule:nonzero;fill:rgb(97.647059%,31.372549%,33.333333%);fill-opacity:1;" d="M 67.1875 56.25 L 57.8125 70.3125 L 57.8125 71.875 L 62.5 71.875 L 62.5 79.6875 L 71.875 79.6875 L 71.875 71.875 L 76.5625 71.875 L 76.5625 70.3125 Z M 67.1875 56.25 "/>
<path style=" stroke:none;fill-rule:nonzero;fill:rgb(0%,0%,0%);fill-opacity:1;" d="M 71.875 81.25 L 62.5 81.25 C 61.636719 81.25 60.9375 80.550781 60.9375 79.6875 L 60.9375 73.4375 L 57.8125 73.4375 C 56.949219 73.4375 56.25 72.738281 56.25 71.875 L 56.25 70.3125 C 56.25 70.003906 56.34375 69.703125 56.511719 69.445312 L 65.886719 55.382812 C 66.46875 54.511719 67.90625 54.511719 68.488281 55.382812 L 77.863281 69.445312 C 78.03125 69.703125 78.125 70.003906 78.125 70.3125 L 78.125 71.875 C 78.125 72.738281 77.425781 73.4375 76.5625 73.4375 L 73.4375 73.4375 L 73.4375 79.6875 C 73.4375 80.550781 72.738281 81.25 71.875 81.25 Z M 64.0625 78.125 L 70.3125 78.125 L 70.3125 71.875 C 70.3125 71.011719 71.011719 70.3125 71.875 70.3125 L 74.683594 70.3125 L 67.1875 59.066406 L 59.691406 70.3125 L 62.5 70.3125 C 63.363281 70.3125 64.0625 71.011719 64.0625 71.875 Z M 64.0625 78.125 "/>
</g>
</svg>
