<svg id="coke" enable-background="new 0 0 300 300" height="512" viewBox="0 0 300 300" width="512" xmlns="http://www.w3.org/2000/svg"><g><circle cx="132" cy="134" fill="#edebdc" r="92"/><g fill="#4c241d"><path d="m240 82c-2.209 0-4-1.791-4-4v-8c0-2.209 1.791-4 4-4s4 1.791 4 4v8c0 2.209-1.791 4-4 4z"/><path d="m240 106c-2.209 0-4-1.791-4-4v-8c0-2.209 1.791-4 4-4s4 1.791 4 4v8c0 2.209-1.791 4-4 4z"/><path d="m232 90h-8c-2.209 0-4-1.791-4-4s1.791-4 4-4h8c2.209 0 4 1.791 4 4s-1.791 4-4 4z"/><path d="m256 90h-8c-2.209 0-4-1.791-4-4s1.791-4 4-4h8c2.209 0 4 1.791 4 4s-1.791 4-4 4z"/><path d="m170 98c-7.719 0-14-6.281-14-14s6.281-14 14-14 14 6.281 14 14-6.281 14-14 14zm0-20c-3.309 0-6 2.691-6 6s2.691 6 6 6 6-2.691 6-6-2.691-6-6-6z"/><circle cx="202.142" cy="40.391" r="4.276"/></g><g><path clip-rule="evenodd" d="m76.946 26h34.212c2.703 0 4.894 2.191 4.894 4.894v18.212c0 2.703-2.191 4.894-4.894 4.894h-34.212c-2.703 0-4.894-2.191-4.894-4.894v-18.212c0-2.703 2.191-4.894 4.894-4.894z" fill="#e66353" fill-rule="evenodd"/><path d="m111.158 58h-34.213c-4.904 0-8.893-3.99-8.893-8.895v-18.21c0-4.904 3.988-8.895 8.893-8.895h34.213c4.904 0 8.895 3.99 8.895 8.895v18.211c0 4.904-3.991 8.894-8.895 8.894zm-34.213-28c-.492 0-.893.4-.893.895v18.211c0 .494.4.895.893.895h34.213c.494 0 .895-.4.895-.895v-18.211c0-.494-.4-.895-.895-.895z" fill="#4c241d"/></g><g><path clip-rule="evenodd" d="m126.262 94.412-3.583-5.635c-2.405-3.781-5.098-10.27-6.07-14.577l-4.557-20.2h-36l-4.329 20.2c-.448 2.093-1.314 4.699-2.355 7.252 17.137 6.002 37.81 11.713 56.894 12.96z" fill="#fff" fill-rule="evenodd"/><path d="m126.262 98.412c-.086 0-.174-.002-.262-.008-16.594-1.086-36.094-5.52-57.953-13.176-1.035-.363-1.875-1.133-2.324-2.133-.451-.998-.471-2.139-.057-3.152 1.002-2.459 1.764-4.795 2.145-6.578l4.33-20.203c.396-1.844 2.025-3.162 3.912-3.162h36c1.869 0 3.49 1.295 3.902 3.119l4.557 20.201c.871 3.859 3.41 9.955 5.543 13.311l3.582 5.635c.809 1.271.834 2.889.066 4.186-.723 1.22-2.035 1.96-3.441 1.96zm-51.725-19.412c16.209 5.461 30.957 9.031 44.002 10.656-2.402-4.182-4.861-10.277-5.832-14.574l-3.853-17.082h-29.567l-3.652 17.039c-.254 1.182-.627 2.527-1.098 3.961z" fill="#4c241d"/></g><g><path clip-rule="evenodd" d="m132 128.093c2.447-5.849 4.175-18.093 4.175-18.093l-9.912-15.588c-19.084-1.248-39.758-6.958-56.894-12.96-1.103 2.705-2.403 5.349-3.628 7.254l-13.689 21.294s1.625 12.019 3.948 17.614v102.386l-4 16v16.915c0 6.122 4.963 11.085 11.085 11.085h61.831c6.122 0 11.085-4.963 11.085-11.085v-16.915l-4-16v-101.907z" fill="#6b4f5b" fill-rule="evenodd"/><path d="m124.916 278h-61.832c-8.316 0-15.084-6.768-15.084-15.084v-16.916c0-.326.041-.652.119-.971l3.881-15.521v-101.139c-2.322-6.211-3.846-17.342-3.912-17.834-.127-.941.086-1.898.6-2.697l13.688-21.293c1.037-1.615 2.236-4.021 3.291-6.604.805-1.973 3.014-2.961 5.025-2.264 21.176 7.418 39.961 11.705 55.832 12.742 1.271.084 2.43.77 3.113 1.846l9.914 15.588c.512.803.719 1.764.586 2.705-.07.5-1.693 11.859-4.137 18.301v100.648l3.881 15.521c.078.318.119.645.119.971v16.916c0 8.317-6.768 15.085-15.084 15.085zm-68.916-31.508v16.424c0 3.906 3.178 7.084 7.084 7.084h61.832c3.906 0 7.084-3.178 7.084-7.084v-16.424l-3.881-15.521c-.078-.319-.119-.645-.119-.971v-101.906c0-.529.105-1.055.311-1.543 1.617-3.867 3.049-11.623 3.688-15.666l-8.033-12.631c-15.246-1.229-32.854-5.199-52.426-11.824-.811 1.686-1.641 3.203-2.434 4.439l-12.881 20.037c.602 3.965 1.947 11.504 3.469 15.174.203.486.307 1.008.307 1.533v102.387c0 .326-.041.652-.119.971z" fill="#4c241d"/></g><g><path clip-rule="evenodd" d="m56 146h76v60h-76z" fill="#e66353" fill-rule="evenodd"/><path d="m132 210h-76c-2.209 0-4-1.791-4-4v-60c0-2.209 1.791-4 4-4h76c2.209 0 4 1.791 4 4v60c0 2.209-1.791 4-4 4zm-72-8h68v-52h-68z" fill="#4c241d"/></g><g><path clip-rule="evenodd" d="m68 182s36 4 52-8" fill="#e66353" fill-rule="evenodd"/><path d="m81.639 186.65c-7.779 0-13.49-.609-14.08-.676-2.195-.242-3.777-2.221-3.533-4.414.244-2.197 2.213-3.758 4.414-3.537.346.039 34.623 3.68 49.16-7.223 1.775-1.326 4.279-.963 5.6.799 1.326 1.768.969 4.275-.799 5.6-10.512 7.885-28.294 9.451-40.762 9.451z" fill="#fff"/></g><path d="m164 278h-48c-2.209 0-4-1.791-4-4s1.791-4 4-4h48c2.209 0 4 1.791 4 4s-1.791 4-4 4z" fill="#4c241d"/><path d="m236 278h-56c-2.209 0-4-1.791-4-4s1.791-4 4-4h56c2.209 0 4 1.791 4 4s-1.791 4-4 4z" fill="#4c241d"/><g><path d="m188 138v-12h-68v12l-12 16v108l12 12h68l12-12v-108z" fill="#e66353"/><path d="m188 278h-68c-1.061 0-2.078-.422-2.828-1.172l-12-12c-.75-.75-1.172-1.768-1.172-2.828v-108c0-.865.281-1.707.801-2.4l11.199-14.934v-10.666c0-2.209 1.791-4 4-4h68c2.209 0 4 1.791 4 4v10.666l11.199 14.934c.52.693.801 1.535.801 2.4v108c0 1.061-.422 2.078-1.172 2.828l-12 12c-.75.75-1.767 1.172-2.828 1.172zm-66.344-8h64.688l9.656-9.656v-105.01l-11.199-14.934c-.52-.693-.801-1.535-.801-2.4v-8h-60v8c0 .865-.281 1.707-.801 2.4l-11.199 14.934v105.01z" fill="#4c241d"/></g><path d="m200 158h-44c-2.209 0-4-1.791-4-4s1.791-4 4-4h44c2.209 0 4 1.791 4 4s-1.791 4-4 4z" fill="#4c241d"/><g><path clip-rule="evenodd" d="m128 222s36 4 52-8" fill="#e66353" fill-rule="evenodd"/><path d="m141.639 226.65c-7.779 0-13.49-.609-14.08-.676-2.195-.242-3.777-2.221-3.533-4.414.244-2.197 2.24-3.76 4.414-3.537.344.041 34.625 3.678 49.16-7.223 1.777-1.328 4.277-.965 5.6.799 1.326 1.768.969 4.275-.799 5.6-10.512 7.885-28.294 9.451-40.762 9.451z" fill="#fff"/></g></g></svg>