<?xml version="1.0" encoding="UTF-8"?>
<svg xmlns="http://www.w3.org/2000/svg" xmlns:xlink="http://www.w3.org/1999/xlink" width="100pt" height="100pt" viewBox="0 0 100 100" version="1.1">
<g id="surface1">
<path style=" stroke:none;fill-rule:nonzero;fill:rgb(90.196078%,10.196078%,15.294118%);fill-opacity:1;" d="M 40.027344 38.664062 C 42.0625 38.664062 43.902344 37.445312 44.699219 35.570312 C 45.496094 33.695312 45.097656 31.527344 43.6875 30.058594 L 41.34375 27.625 C 41.03125 27.300781 40.605469 27.117188 40.15625 27.105469 C 39.710938 27.105469 39.277344 27.273438 38.949219 27.578125 L 34.058594 32.28125 L 29.175781 36.980469 C 28.722656 37.398438 28.527344 38.027344 28.671875 38.625 C 28.8125 39.222656 29.269531 39.699219 29.863281 39.863281 C 30.453125 40.03125 31.089844 39.863281 31.523438 39.425781 L 35.183594 35.898438 L 35.632812 36.363281 L 33.453125 42.519531 C 33.242188 43.089844 33.355469 43.730469 33.75 44.199219 C 34.144531 44.664062 34.757812 44.878906 35.359375 44.765625 C 35.957031 44.652344 36.449219 44.226562 36.648438 43.648438 L 38.5 38.414062 C 38.996094 38.574219 39.507812 38.660156 40.027344 38.664062 Z M 40.070312 31.1875 L 41.246094 32.410156 C 41.898438 33.085938 41.878906 34.160156 41.203125 34.8125 C 40.527344 35.464844 39.453125 35.441406 38.800781 34.769531 L 37.625 33.546875 Z M 40.070312 31.1875 "/>
<path style=" stroke:none;fill-rule:nonzero;fill:rgb(90.196078%,10.196078%,15.294118%);fill-opacity:1;" d="M 31.964844 30.117188 C 33.222656 30.082031 34.417969 29.582031 35.324219 28.710938 C 37.347656 26.761719 37.40625 23.546875 35.460938 21.523438 L 33.109375 19.082031 C 32.457031 18.410156 31.386719 18.390625 30.714844 19.039062 L 20.949219 28.441406 C 20.277344 29.089844 20.257812 30.164062 20.90625 30.835938 L 23.257812 33.277344 C 24.1875 34.25 25.46875 34.808594 26.816406 34.832031 L 26.914062 34.832031 C 29.578125 34.839844 31.789062 32.773438 31.960938 30.113281 Z M 31.84375 22.660156 L 33.019531 23.878906 C 33.667969 24.554688 33.644531 25.628906 32.972656 26.277344 C 32.660156 26.609375 32.21875 26.78125 31.765625 26.75 C 31.316406 26.742188 30.890625 26.554688 30.582031 26.230469 L 29.40625 25.011719 Z M 28.089844 30.976562 C 27.777344 31.304688 27.335938 31.480469 26.882812 31.453125 C 26.433594 31.445312 26.007812 31.257812 25.699219 30.933594 L 24.523438 29.710938 L 26.964844 27.363281 L 28.136719 28.582031 C 28.78125 29.253906 28.761719 30.324219 28.089844 30.972656 Z M 28.089844 30.976562 "/>
<path style=" stroke:none;fill-rule:nonzero;fill:rgb(90.196078%,10.196078%,15.294118%);fill-opacity:1;" d="M 53.09375 39.828125 C 52.601562 39.320312 51.847656 39.167969 51.199219 39.449219 L 37.910156 45.191406 C 37.058594 45.566406 36.667969 46.558594 37.039062 47.414062 C 37.40625 48.265625 38.394531 48.664062 39.253906 48.300781 L 41.5 47.332031 L 45.160156 51.132812 L 44.105469 53.335938 C 43.703125 54.179688 44.0625 55.191406 44.90625 55.59375 C 45.132812 55.703125 45.382812 55.761719 45.632812 55.761719 C 46.285156 55.761719 46.878906 55.386719 47.160156 54.796875 L 53.394531 41.734375 C 53.703125 41.097656 53.582031 40.335938 53.09375 39.828125 Z M 44.820312 45.894531 L 48.394531 44.347656 L 46.71875 47.867188 Z M 44.820312 45.894531 "/>
<path style=" stroke:none;fill-rule:nonzero;fill:rgb(90.196078%,10.196078%,15.294118%);fill-opacity:1;" d="M 66.023438 53.25 C 65.375 52.578125 64.300781 52.558594 63.625 53.207031 L 58.117188 58.511719 L 60.566406 48.734375 C 60.746094 48.003906 60.421875 47.238281 59.769531 46.859375 C 59.117188 46.480469 58.292969 46.582031 57.746094 47.105469 L 47.984375 56.507812 C 47.339844 57.164062 47.332031 58.210938 47.96875 58.871094 C 48.609375 59.535156 49.65625 59.566406 50.335938 58.949219 L 55.84375 53.644531 L 53.394531 63.417969 C 53.210938 64.152344 53.535156 64.917969 54.1875 65.296875 C 54.84375 65.675781 55.667969 65.574219 56.210938 65.050781 L 65.972656 55.648438 C 66.648438 55 66.671875 53.925781 66.023438 53.25 Z M 66.023438 53.25 "/>
<path style=" stroke:none;fill-rule:nonzero;fill:rgb(90.196078%,10.196078%,15.294118%);fill-opacity:1;" d="M 69.550781 56.914062 C 69.238281 56.589844 68.8125 56.402344 68.363281 56.394531 C 67.917969 56.402344 67.488281 56.570312 67.15625 56.867188 L 57.394531 66.269531 C 56.71875 66.917969 56.699219 67.992188 57.347656 68.664062 L 58.523438 69.886719 C 60.605469 72.136719 63.742188 73.082031 66.722656 72.363281 C 69.703125 71.644531 72.0625 69.371094 72.894531 66.421875 C 73.722656 63.46875 72.894531 60.300781 70.722656 58.132812 Z M 68.148438 67.671875 C 66.128906 69.617188 62.910156 69.558594 60.960938 67.535156 L 68.28125 60.484375 C 70.230469 62.503906 70.171875 65.722656 68.148438 67.671875 Z M 68.148438 67.671875 "/>
<path style=" stroke:none;fill-rule:nonzero;fill:rgb(90.196078%,10.196078%,15.294118%);fill-opacity:1;" d="M 91.351562 55.492188 L 93.25 53.59375 L 90.851562 51.199219 L 88.953125 53.097656 L 88.953125 50.410156 L 85.566406 50.410156 L 85.566406 53.097656 L 83.664062 51.199219 L 81.269531 53.59375 L 83.167969 55.492188 L 80.480469 55.492188 L 80.480469 58.882812 L 83.167969 58.882812 L 81.269531 60.785156 L 83.664062 63.179688 L 85.566406 61.277344 L 85.566406 63.964844 L 88.953125 63.964844 L 88.953125 61.277344 L 90.851562 63.179688 L 93.25 60.785156 L 91.351562 58.882812 L 94.035156 58.882812 L 94.035156 55.492188 Z M 91.351562 55.492188 "/>
<path style=" stroke:none;fill-rule:nonzero;fill:rgb(90.196078%,10.196078%,15.294118%);fill-opacity:1;" d="M 87.257812 44.480469 C 84.3125 44.476562 81.457031 45.503906 79.1875 47.378906 L 35.820312 2.355469 C 35.476562 1.996094 34.988281 1.808594 34.488281 1.839844 L 6.480469 3.648438 L 3.5 0.550781 C 2.847656 -0.121094 1.777344 -0.140625 1.101562 0.507812 C 0.429688 1.15625 0.40625 2.230469 1.058594 2.902344 L 4.007812 5.964844 L 0.0195312 32.621094 C -0.0585938 33.140625 0.109375 33.667969 0.472656 34.046875 L 55.71875 91.402344 C 56.367188 92.078125 57.441406 92.097656 58.117188 91.449219 L 81.792969 68.644531 C 86.503906 70.90625 92.125 70.050781 95.953125 66.488281 C 99.777344 62.925781 101.03125 57.382812 99.113281 52.519531 C 97.191406 47.65625 92.488281 44.46875 87.257812 44.480469 Z M 6.972656 9.042969 L 9.5 11.667969 C 8.714844 13.226562 8.785156 15.074219 9.6875 16.566406 C 10.589844 18.058594 12.195312 18.984375 13.9375 19.011719 L 14.035156 19.011719 C 16.84375 19.039062 19.136719 16.785156 19.164062 13.976562 C 19.191406 11.167969 16.933594 8.875 14.128906 8.847656 C 13.371094 8.832031 12.625 8.992188 11.941406 9.3125 L 9.558594 6.84375 L 33.921875 5.273438 L 34.554688 5.929688 L 5.265625 34.140625 L 3.492188 32.296875 Z M 12.859375 12.710938 C 13.171875 12.40625 13.59375 12.234375 14.03125 12.234375 L 14.066406 12.234375 C 14.75 12.25 15.359375 12.675781 15.609375 13.3125 C 15.859375 13.949219 15.699219 14.675781 15.207031 15.152344 C 14.890625 15.472656 14.453125 15.644531 14 15.625 C 13.316406 15.609375 12.707031 15.1875 12.457031 14.546875 C 12.203125 13.910156 12.363281 13.183594 12.855469 12.710938 Z M 56.984375 87.832031 L 49.5 80.0625 L 65.050781 80.0625 Z M 68.515625 76.726562 L 68.515625 76.671875 L 46.234375 76.671875 L 7.625 36.578125 L 36.90625 8.367188 L 76.890625 49.878906 C 73.132812 55.179688 74 62.46875 78.902344 66.734375 Z M 87.257812 66.507812 C 82.113281 66.507812 77.941406 62.335938 77.941406 57.1875 C 77.941406 52.039062 82.113281 47.867188 87.257812 47.867188 C 92.40625 47.867188 96.578125 52.039062 96.578125 57.1875 C 96.574219 62.332031 92.402344 66.5 87.257812 66.507812 Z M 87.257812 66.507812 "/>
</g>
</svg>
