<?xml version="1.0" encoding="UTF-8"?>
<svg xmlns="http://www.w3.org/2000/svg" xmlns:xlink="http://www.w3.org/1999/xlink" width="100pt" height="100pt" viewBox="0 0 100 100" version="1.1">
<g id="surface1">
<path style=" stroke:none;fill-rule:nonzero;fill:rgb(90.196078%,10.196078%,15.294118%);fill-opacity:1;" d="M 13.484375 23.847656 L 15.089844 28.363281 C 15.160156 28.558594 15.296875 28.710938 15.46875 28.789062 L 19.480469 30.597656 C 20.046875 30.851562 20.046875 31.753906 19.480469 32.011719 L 15.46875 33.820312 C 15.296875 33.894531 15.160156 34.050781 15.089844 34.242188 L 13.484375 38.757812 C 13.257812 39.398438 12.453125 39.398438 12.226562 38.757812 L 10.621094 34.242188 C 10.554688 34.050781 10.417969 33.894531 10.246094 33.820312 L 6.234375 32.011719 C 5.664062 31.753906 5.664062 30.851562 6.234375 30.597656 L 10.246094 28.789062 C 10.417969 28.710938 10.554688 28.558594 10.621094 28.363281 L 12.226562 23.847656 C 12.453125 23.210938 13.257812 23.210938 13.484375 23.847656 Z M 13.484375 23.847656 "/>
<path style=" stroke:none;fill-rule:nonzero;fill:rgb(90.196078%,10.196078%,15.294118%);fill-opacity:1;" d="M 26.175781 7.214844 C 24.292969 6.769531 22.402344 7.9375 21.957031 9.820312 C 21.511719 11.707031 22.679688 13.597656 24.5625 14.042969 C 26.449219 14.488281 28.335938 13.320312 28.78125 11.433594 C 29.226562 9.550781 28.0625 7.660156 26.175781 7.214844 Z M 26.175781 7.214844 "/>
<path style=" stroke:none;fill-rule:nonzero;fill:rgb(90.196078%,10.196078%,15.294118%);fill-opacity:1;" d="M 52.851562 12.328125 C 52.851562 13.164062 52.175781 13.839844 51.339844 13.839844 C 50.503906 13.839844 49.828125 13.164062 49.828125 12.328125 C 49.828125 11.492188 50.503906 10.816406 51.339844 10.816406 C 52.175781 10.816406 52.851562 11.492188 52.851562 12.328125 Z M 52.851562 12.328125 "/>
<path style=" stroke:none;fill-rule:nonzero;fill:rgb(90.196078%,10.196078%,15.294118%);fill-opacity:1;" d="M 88.300781 66.949219 L 89.492188 70.296875 C 89.542969 70.441406 89.644531 70.554688 89.773438 70.613281 L 92.75 71.953125 C 93.167969 72.144531 93.167969 72.8125 92.75 73.003906 L 89.773438 74.34375 C 89.644531 74.402344 89.542969 74.515625 89.492188 74.65625 L 88.300781 78.007812 C 88.132812 78.480469 87.535156 78.480469 87.367188 78.007812 L 86.175781 74.65625 C 86.125 74.515625 86.023438 74.402344 85.898438 74.34375 L 82.921875 73.003906 C 82.5 72.8125 82.5 72.144531 82.921875 71.953125 L 85.898438 70.613281 C 86.023438 70.554688 86.125 70.441406 86.175781 70.296875 L 87.367188 66.949219 C 87.535156 66.476562 88.132812 66.476562 88.300781 66.949219 Z M 88.300781 66.949219 "/>
<path style=" stroke:none;fill-rule:nonzero;fill:rgb(90.196078%,10.196078%,15.294118%);fill-opacity:1;" d="M 98.871094 14.195312 L 85.898438 1.21875 C 84.394531 -0.285156 81.945312 -0.285156 80.441406 1.21875 L 74.902344 6.757812 C 73.628906 8.035156 73.4375 9.992188 74.328125 11.472656 L 73.3125 12.492188 C 70.445312 15.355469 67.097656 17.597656 63.355469 19.152344 C 58.957031 20.753906 52.007812 23.234375 50.78125 23.542969 C 43.667969 25.339844 36.488281 29.59375 30.5625 35.519531 C 26.644531 39.4375 24.375 42.566406 22.183594 47.0625 C 20.324219 50.882812 18.632812 54.015625 16.425781 56.90625 C 15.164062 58.554688 13.476562 59.9375 11.542969 60.902344 C 8.492188 62.421875 5.042969 65.378906 2.316406 68.8125 C -1.074219 73.085938 -0.703125 79.230469 3.175781 83.113281 L 16.804688 96.738281 C 18.894531 98.832031 21.664062 99.90625 24.449219 99.90625 C 26.5625 99.90625 28.6875 99.289062 30.535156 98.019531 C 34.289062 95.441406 37.476562 92.070312 39.058594 89.003906 C 40.328125 86.550781 42.039062 84.445312 44.148438 82.753906 C 46.722656 80.683594 49.402344 79 52.578125 77.453125 C 57.269531 75.167969 60.636719 73.378906 64.53125 69.488281 C 70.429688 63.585938 74.675781 56.433594 76.484375 49.347656 C 76.800781 48.121094 79.316406 41.164062 80.9375 36.761719 C 82.492188 33.003906 84.742188 29.640625 87.617188 26.765625 L 88.617188 25.761719 C 89.210938 26.121094 89.894531 26.316406 90.605469 26.316406 C 91.636719 26.316406 92.605469 25.914062 93.332031 25.1875 L 98.871094 19.648438 C 100.375 18.144531 100.375 15.699219 98.871094 14.195312 Z M 69.960938 55.539062 C 67.523438 56.648438 64.769531 57.335938 62.183594 57.464844 C 60.183594 57.566406 57.273438 55.726562 54.460938 53.949219 C 50.667969 51.554688 46.765625 49.09375 43.167969 49.65625 L 32.949219 39.4375 C 35.441406 38.65625 39.066406 38.027344 43.375 38.804688 C 48.027344 39.644531 51.457031 42.675781 54.484375 45.351562 C 57.183594 47.738281 59.734375 49.992188 62.789062 50.429688 C 63.421875 50.519531 64.128906 50.5625 64.855469 50.5625 C 66.265625 50.5625 67.742188 50.402344 68.871094 50.109375 L 71.320312 52.5625 C 70.917969 53.558594 70.464844 54.554688 69.960938 55.539062 Z M 63.121094 48.109375 C 60.765625 47.769531 58.574219 45.835938 56.039062 43.59375 C 52.78125 40.714844 49.089844 37.449219 43.792969 36.496094 C 40.550781 35.910156 37.648438 36.046875 35.25 36.46875 C 39.023438 33.101562 43.21875 30.449219 47.488281 28.730469 L 66.859375 48.097656 C 65.628906 48.25 64.207031 48.261719 63.121094 48.109375 Z M 50.867188 73.9375 C 47.417969 75.617188 44.507812 77.449219 41.699219 79.703125 C 39.160156 81.742188 37.105469 84.269531 35.585938 87.210938 C 34.304688 89.691406 31.519531 92.597656 28.320312 94.796875 C 25.597656 96.667969 21.917969 96.320312 19.570312 93.976562 L 5.941406 80.347656 C 3.464844 77.871094 3.222656 73.960938 5.378906 71.246094 C 7.730469 68.28125 10.761719 65.660156 13.285156 64.402344 C 15.75 63.175781 17.910156 61.402344 19.535156 59.28125 C 21.9375 56.132812 23.738281 52.804688 25.699219 48.773438 C 27.222656 45.644531 28.742188 43.308594 30.972656 40.78125 L 36.046875 45.855469 C 35.46875 46.636719 34.878906 47.4375 34.269531 48.265625 C 28.488281 56.125 21.933594 65.03125 15.261719 69.027344 C 14.703125 69.363281 14.523438 70.082031 14.855469 70.636719 C 15.078125 71.003906 15.464844 71.207031 15.863281 71.207031 C 16.070312 71.207031 16.277344 71.15625 16.464844 71.042969 C 23.542969 66.804688 30.246094 57.691406 36.160156 49.652344 C 36.6875 48.9375 37.210938 48.230469 37.726562 47.53125 L 44.289062 54.09375 L 21.179688 77.203125 C 20.71875 77.660156 20.71875 78.40625 21.179688 78.863281 C 21.40625 79.09375 21.707031 79.207031 22.007812 79.207031 C 22.308594 79.207031 22.609375 79.09375 22.835938 78.863281 L 45.945312 55.753906 L 52.28125 62.085938 C 51.527344 62.644531 50.765625 63.207031 49.992188 63.773438 C 42.054688 69.613281 33.0625 76.234375 28.8125 83.332031 C 28.476562 83.886719 28.660156 84.609375 29.214844 84.941406 C 29.402344 85.054688 29.613281 85.109375 29.816406 85.109375 C 30.214844 85.109375 30.605469 84.90625 30.824219 84.539062 C 34.832031 77.84375 43.625 71.375 51.382812 65.664062 C 52.253906 65.023438 53.113281 64.390625 53.957031 63.765625 L 59.214844 69.019531 C 56.710938 71.019531 54.210938 72.3125 50.867188 73.9375 Z M 61.765625 66.722656 C 61.503906 66.984375 61.246094 67.234375 60.988281 67.476562 L 45.605469 52.09375 C 47.945312 52.613281 50.605469 54.292969 53.207031 55.933594 C 56.363281 57.929688 59.351562 59.816406 62.023438 59.816406 C 62.117188 59.816406 62.207031 59.8125 62.296875 59.808594 C 64.222656 59.714844 66.222656 59.339844 68.148438 58.734375 C 66.386719 61.550781 64.238281 64.25 61.765625 66.722656 Z M 84.851562 24 C 81.601562 27.25 79.0625 31.054688 77.308594 35.304688 C 77.300781 35.328125 77.289062 35.351562 77.28125 35.375 C 76.863281 36.515625 73.164062 46.558594 72.695312 48.382812 C 72.550781 48.960938 72.382812 49.542969 72.199219 50.121094 L 61.886719 39.8125 L 68.058594 33.640625 C 68.515625 33.183594 68.515625 32.441406 68.058594 31.980469 C 67.601562 31.523438 66.859375 31.523438 66.398438 31.980469 L 60.230469 38.152344 L 49.929688 27.851562 C 50.53125 27.660156 51.136719 27.488281 51.742188 27.335938 C 53.554688 26.875 63.59375 23.226562 64.734375 22.8125 C 64.761719 22.800781 64.789062 22.792969 64.8125 22.78125 C 69.046875 21.027344 72.835938 18.496094 76.074219 15.257812 L 77.011719 14.320312 L 85.769531 23.082031 Z M 90.605469 22.382812 L 77.707031 9.488281 L 83.171875 4.023438 L 96.070312 16.921875 Z M 90.605469 22.382812 "/>
<path style=" stroke:none;fill-rule:nonzero;fill:rgb(90.196078%,10.196078%,15.294118%);fill-opacity:1;" d="M 69.15625 26.121094 C 68.460938 26.121094 67.789062 25.75 67.4375 25.097656 C 66.921875 24.148438 67.273438 22.960938 68.222656 22.445312 C 68.667969 22.207031 69.089844 21.964844 69.476562 21.722656 C 70.398438 21.160156 71.601562 21.449219 72.167969 22.367188 C 72.730469 23.289062 72.445312 24.492188 71.523438 25.058594 C 71.074219 25.332031 70.589844 25.613281 70.085938 25.882812 C 69.789062 26.046875 69.472656 26.121094 69.15625 26.121094 Z M 69.15625 26.121094 "/>
<path style=" stroke:none;fill-rule:nonzero;fill:rgb(90.196078%,10.196078%,15.294118%);fill-opacity:1;" d="M 56.082031 31.128906 C 55.179688 31.128906 54.371094 30.5 54.171875 29.582031 C 53.949219 28.523438 54.621094 27.484375 55.675781 27.261719 C 58.507812 26.65625 61.140625 25.582031 63.925781 24.449219 L 64.308594 24.292969 C 65.308594 23.886719 66.449219 24.367188 66.855469 25.367188 C 67.261719 26.367188 66.78125 27.507812 65.78125 27.914062 L 65.402344 28.070312 C 62.582031 29.21875 59.664062 30.40625 56.492188 31.085938 C 56.355469 31.113281 56.21875 31.128906 56.082031 31.128906 Z M 56.082031 31.128906 "/>
</g>
</svg>
