<?xml version="1.0" encoding="UTF-8"?>
<svg xmlns="http://www.w3.org/2000/svg" xmlns:xlink="http://www.w3.org/1999/xlink" width="100pt" height="100pt" viewBox="0 0 100 100" version="1.1">
<g id="surface1">
<path style=" stroke:none;fill-rule:nonzero;fill:rgb(90.196078%,10.196078%,15.294118%);fill-opacity:1;" d="M 19.476562 75.054688 C 18.9375 75.054688 18.476562 75.28125 18.101562 75.671875 C 17.738281 76.050781 17.523438 76.511719 17.523438 77.046875 L 17.523438 80.589844 L 12.402344 80.589844 L 12.402344 77.046875 C 12.402344 76.511719 12.214844 76.035156 11.835938 75.648438 C 11.46875 75.261719 11.007812 75.054688 10.46875 75.054688 C 9.921875 75.054688 9.457031 75.277344 9.074219 75.671875 C 8.710938 76.050781 8.496094 76.511719 8.496094 77.046875 L 8.496094 88.136719 C 8.496094 88.675781 8.695312 89.144531 9.074219 89.519531 C 9.457031 89.898438 9.933594 90.089844 10.46875 90.089844 C 11 90.089844 11.472656 89.902344 11.847656 89.515625 C 12.21875 89.140625 12.402344 88.667969 12.402344 88.136719 L 12.402344 84.207031 L 17.523438 84.207031 L 17.523438 88.136719 C 17.523438 88.667969 17.710938 89.140625 18.089844 89.519531 C 18.46875 89.898438 18.9375 90.089844 19.476562 90.089844 C 20.015625 90.089844 20.492188 89.886719 20.863281 89.492188 C 21.230469 89.117188 21.429688 88.664062 21.429688 88.136719 L 21.429688 77.046875 C 21.429688 76.5 21.242188 76.019531 20.851562 75.632812 C 20.476562 75.253906 20.011719 75.054688 19.476562 75.054688 Z M 19.476562 75.054688 "/>
<path style=" stroke:none;fill-rule:nonzero;fill:rgb(90.196078%,10.196078%,15.294118%);fill-opacity:1;" d="M 60.097656 74.960938 C 58.070312 74.960938 56.3125 75.621094 54.910156 77.097656 C 53.488281 78.601562 52.898438 80.46875 52.898438 82.527344 C 52.898438 84.597656 53.488281 86.488281 54.921875 88.011719 C 56.3125 89.480469 58.054688 90.164062 60.074219 90.164062 C 62.105469 90.164062 63.855469 89.476562 65.246094 87.988281 C 66.652344 86.472656 67.253906 84.617188 67.253906 82.566406 C 67.253906 80.5 66.660156 78.632812 65.238281 77.121094 C 63.855469 75.644531 62.113281 74.960938 60.097656 74.960938 Z M 62.328125 85.53125 C 61.746094 86.253906 61.003906 86.609375 60.074219 86.609375 C 59.144531 86.609375 58.398438 86.273438 57.816406 85.542969 C 57.140625 84.691406 56.9375 83.601562 56.9375 82.542969 C 56.9375 81.492188 57.160156 80.445312 57.839844 79.621094 C 58.425781 78.914062 59.15625 78.554688 60.074219 78.554688 C 61.003906 78.554688 61.757812 78.890625 62.332031 79.621094 C 63.003906 80.460938 63.214844 81.53125 63.214844 82.582031 C 63.214844 83.640625 62.996094 84.691406 62.328125 85.53125 Z M 62.328125 85.53125 "/>
<path style=" stroke:none;fill-rule:nonzero;fill:rgb(90.196078%,10.196078%,15.294118%);fill-opacity:1;" d="M 91.632812 75.074219 C 90.957031 75.074219 90.414062 75.367188 90.03125 75.917969 L 87.636719 79.332031 L 85.257812 75.917969 C 84.890625 75.359375 84.34375 75.074219 83.664062 75.074219 C 83.117188 75.074219 82.621094 75.261719 82.230469 75.652344 C 81.859375 76.023438 81.652344 76.480469 81.652344 77.007812 C 81.652344 77.445312 81.820312 77.839844 82.082031 78.1875 L 85.667969 83.113281 L 85.667969 88.078125 C 85.667969 88.628906 85.867188 89.113281 86.269531 89.5 C 86.652344 89.863281 87.109375 90.070312 87.636719 90.070312 C 88.183594 90.070312 88.65625 89.863281 89.03125 89.464844 C 89.398438 89.078125 89.589844 88.609375 89.589844 88.078125 L 89.589844 83.113281 L 93.214844 78.183594 C 93.476562 77.839844 93.601562 77.441406 93.601562 77.007812 C 93.601562 76.46875 93.390625 76.003906 93 75.636719 C 92.617188 75.277344 92.160156 75.074219 91.632812 75.074219 Z M 91.632812 75.074219 "/>
<path style=" stroke:none;fill-rule:nonzero;fill:rgb(90.196078%,10.196078%,15.294118%);fill-opacity:1;" d="M 77.425781 83.972656 C 77.875 83.847656 78.324219 83.683594 78.675781 83.445312 C 79.890625 82.621094 80.394531 81.382812 80.394531 79.941406 C 80.394531 78.585938 79.910156 77.429688 78.898438 76.535156 C 77.855469 75.609375 76.578125 75.226562 75.195312 75.226562 L 71.609375 75.226562 C 71.0625 75.226562 70.585938 75.421875 70.199219 75.808594 C 69.804688 76.195312 69.617188 76.6875 69.617188 77.242188 L 69.617188 88.078125 C 69.617188 88.625 69.8125 89.105469 70.199219 89.492188 L 70.214844 89.507812 C 70.605469 89.859375 71.078125 90.070312 71.609375 90.070312 C 72.140625 90.070312 72.609375 89.886719 72.988281 89.507812 C 73.363281 89.132812 73.546875 88.667969 73.546875 88.136719 L 73.546875 85.003906 L 77.039062 89.273438 C 77.429688 89.753906 77.941406 90.070312 78.570312 90.070312 C 79.109375 90.070312 79.585938 89.886719 79.976562 89.519531 L 79.988281 89.507812 L 80 89.5 C 80.359375 89.113281 80.5625 88.648438 80.5625 88.113281 C 80.5625 87.632812 80.382812 87.207031 80.054688 86.847656 Z M 76.113281 80.859375 C 75.859375 81.105469 75.566406 81.226562 75.21875 81.226562 L 73.5625 81.226562 L 73.5625 78.863281 L 75.179688 78.863281 C 75.535156 78.863281 75.84375 78.960938 76.097656 79.210938 L 76.113281 79.226562 C 76.355469 79.445312 76.484375 79.695312 76.484375 80.015625 C 76.484375 80.355469 76.355469 80.628906 76.113281 80.859375 Z M 76.113281 80.859375 "/>
<path style=" stroke:none;fill-rule:nonzero;fill:rgb(90.196078%,10.196078%,15.294118%);fill-opacity:1;" d="M 39.253906 81.550781 C 38.445312 81.039062 37.347656 80.6875 36.421875 80.429688 C 36.050781 80.328125 35.679688 80.21875 35.320312 80.085938 C 35.199219 80.042969 34.964844 79.960938 34.855469 79.882812 C 34.734375 79.78125 34.601562 79.644531 34.601562 79.476562 C 34.601562 79.246094 34.71875 79.085938 34.898438 78.953125 C 35.152344 78.757812 35.457031 78.691406 35.773438 78.691406 C 36.078125 78.691406 36.464844 78.785156 36.757812 78.867188 L 37.308594 79.058594 C 37.644531 79.167969 38.097656 79.304688 38.453125 79.304688 C 38.957031 79.304688 39.382812 79.113281 39.71875 78.746094 C 40.046875 78.382812 40.214844 77.945312 40.214844 77.453125 C 40.214844 76.601562 39.632812 76.019531 38.917969 75.632812 C 38.039062 75.15625 37.019531 75 36.023438 75 C 34.578125 75 33.21875 75.378906 32.105469 76.324219 C 31.054688 77.226562 30.523438 78.382812 30.523438 79.765625 C 30.523438 81.082031 31.007812 82.183594 32.125 82.910156 C 32.464844 83.128906 32.867188 83.300781 33.246094 83.445312 C 33.792969 83.65625 34.363281 83.832031 34.933594 84 C 35.457031 84.152344 36.078125 84.332031 36.578125 84.558594 C 36.714844 84.617188 36.902344 84.722656 36.980469 84.855469 C 37.050781 84.996094 37.082031 85.148438 37.082031 85.300781 C 37.082031 85.621094 36.953125 85.859375 36.699219 86.050781 C 36.378906 86.289062 35.996094 86.378906 35.601562 86.378906 C 34.988281 86.378906 34.273438 86.164062 33.710938 85.957031 C 33.3125 85.8125 32.625 85.566406 32.203125 85.566406 C 31.710938 85.566406 31.285156 85.753906 30.953125 86.117188 C 30.617188 86.488281 30.464844 86.941406 30.464844 87.441406 L 30.464844 87.539062 C 30.464844 88.488281 31.214844 89.082031 32 89.453125 C 33.0625 89.953125 34.285156 90.109375 35.445312 90.109375 C 36.957031 90.109375 38.417969 89.742188 39.570312 88.730469 C 40.65625 87.773438 41.160156 86.542969 41.160156 85.109375 C 41.160156 83.589844 40.574219 82.347656 39.253906 81.550781 Z M 39.253906 81.550781 "/>
<path style=" stroke:none;fill-rule:nonzero;fill:rgb(90.196078%,10.196078%,15.294118%);fill-opacity:1;" d="M 26.167969 75.054688 C 25.625 75.054688 25.152344 75.277344 24.777344 75.671875 C 24.410156 76.050781 24.195312 76.511719 24.195312 77.046875 L 24.195312 88.113281 C 24.195312 88.652344 24.382812 89.121094 24.765625 89.5 C 25.144531 89.878906 25.613281 90.070312 26.148438 90.070312 C 26.6875 90.070312 27.15625 89.878906 27.535156 89.5 C 27.910156 89.128906 28.105469 88.664062 28.105469 88.136719 L 28.105469 77.046875 C 28.105469 76.511719 27.914062 76.035156 27.539062 75.648438 C 27.167969 75.261719 26.707031 75.054688 26.167969 75.054688 Z M 26.167969 75.054688 "/>
<path style=" stroke:none;fill-rule:nonzero;fill:rgb(90.196078%,10.196078%,15.294118%);fill-opacity:1;" d="M 50.738281 75.210938 L 43.488281 75.210938 C 42.996094 75.210938 42.566406 75.398438 42.222656 75.753906 C 41.890625 76.101562 41.710938 76.527344 41.710938 77.007812 C 41.710938 77.511719 41.890625 77.960938 42.253906 78.316406 C 42.59375 78.636719 43 78.824219 43.472656 78.824219 L 45.160156 78.824219 L 45.160156 88.113281 C 45.160156 88.652344 45.363281 89.117188 45.742188 89.492188 L 45.757812 89.507812 C 46.152344 89.859375 46.621094 90.066406 47.152344 90.066406 C 47.679688 90.066406 48.136719 89.863281 48.503906 89.488281 C 48.875 89.109375 49.066406 88.644531 49.066406 88.113281 L 49.066406 78.847656 L 50.738281 78.847656 C 51.230469 78.847656 51.664062 78.664062 52.011719 78.316406 C 52.359375 77.964844 52.539062 77.539062 52.539062 77.046875 C 52.539062 76.550781 52.359375 76.105469 52.011719 75.753906 C 51.667969 75.398438 51.238281 75.210938 50.738281 75.210938 Z M 50.738281 75.210938 "/>
<path style=" stroke:none;fill-rule:nonzero;fill:rgb(90.196078%,10.196078%,15.294118%);fill-opacity:1;" d="M 76.027344 54.113281 C 80.160156 54.113281 82.324219 47.777344 82.324219 41.519531 C 82.324219 35.257812 80.160156 28.917969 76.027344 28.917969 C 71.894531 28.917969 69.734375 35.257812 69.734375 41.519531 C 69.734375 47.777344 71.894531 54.113281 76.027344 54.113281 Z M 76.027344 32.867188 C 76.710938 33.160156 78.382812 36.121094 78.382812 41.519531 C 78.382812 46.914062 76.710938 49.871094 76.027344 50.164062 C 75.34375 49.867188 73.671875 46.90625 73.671875 41.519531 C 73.671875 36.128906 75.34375 33.167969 76.027344 32.867188 Z M 76.027344 32.867188 "/>
<path style=" stroke:none;fill-rule:nonzero;fill:rgb(90.196078%,10.196078%,15.294118%);fill-opacity:1;" d="M 95.695312 66.09375 L 91.011719 66.09375 L 91.011719 3.886719 C 91.011719 1.851562 89.199219 0.195312 86.972656 0.195312 L 65.078125 0.195312 C 64.324219 0.195312 63.617188 0.390625 63.011719 0.722656 C 62.40625 0.390625 61.699219 0.195312 60.945312 0.195312 L 39.050781 0.195312 C 38.296875 0.195312 37.589844 0.390625 36.984375 0.722656 C 36.378906 0.390625 35.675781 0.195312 34.921875 0.195312 L 13.023438 0.195312 C 10.796875 0.195312 8.988281 1.851562 8.988281 3.886719 L 8.988281 66.09375 L 4.300781 66.09375 C 1.929688 66.09375 0 68.023438 0 70.398438 L 0 95.113281 C 0 97.484375 1.929688 99.414062 4.300781 99.414062 L 95.695312 99.414062 C 98.070312 99.414062 100 97.484375 100 95.113281 L 100 70.398438 C 100 68.023438 98.070312 66.09375 95.695312 66.09375 Z M 64.984375 4.144531 C 65.011719 4.140625 65.042969 4.132812 65.078125 4.132812 L 86.972656 4.132812 C 87.011719 4.132812 87.042969 4.136719 87.074219 4.144531 L 87.074219 9.296875 L 64.984375 9.296875 Z M 64.984375 13.238281 L 87.074219 13.238281 L 87.074219 17.789062 L 64.984375 17.789062 Z M 38.957031 4.144531 C 38.984375 4.136719 39.015625 4.132812 39.050781 4.132812 L 60.945312 4.132812 C 60.984375 4.132812 61.015625 4.136719 61.042969 4.144531 L 61.042969 9.296875 L 38.957031 9.296875 Z M 38.957031 13.238281 L 61.042969 13.238281 L 61.042969 17.789062 L 38.957031 17.789062 Z M 38.957031 21.730469 L 61.042969 21.730469 L 61.042969 41.339844 C 61.042969 42.429688 61.925781 43.308594 63.015625 43.308594 C 64.101562 43.308594 64.984375 42.429688 64.984375 41.339844 L 64.984375 21.730469 L 87.074219 21.730469 L 87.074219 66.09375 L 64.984375 66.09375 L 64.984375 56.929688 C 64.984375 55.839844 64.101562 54.960938 63.015625 54.960938 C 61.925781 54.960938 61.046875 55.839844 61.046875 56.929688 L 61.046875 66.09375 L 38.957031 66.09375 Z M 12.925781 4.144531 C 12.953125 4.136719 12.984375 4.132812 13.023438 4.132812 L 34.921875 4.132812 C 34.957031 4.132812 34.988281 4.136719 35.015625 4.144531 L 35.015625 9.296875 L 12.925781 9.296875 Z M 12.925781 13.238281 L 35.015625 13.238281 L 35.015625 17.789062 L 12.925781 17.789062 Z M 12.925781 21.730469 L 35.015625 21.730469 L 35.015625 66.09375 L 12.925781 66.09375 Z M 96.0625 95.113281 C 96.0625 95.304688 95.890625 95.476562 95.695312 95.476562 L 4.300781 95.476562 C 4.109375 95.476562 3.9375 95.304688 3.9375 95.113281 L 3.9375 70.398438 C 3.9375 70.203125 4.109375 70.03125 4.300781 70.03125 L 95.695312 70.03125 C 95.890625 70.03125 96.058594 70.203125 96.058594 70.398438 L 96.058594 95.113281 Z M 96.0625 95.113281 "/>
<path style=" stroke:none;fill-rule:nonzero;fill:rgb(90.196078%,10.196078%,15.294118%);fill-opacity:1;" d="M 49.476562 29.125 C 45.34375 29.125 43.179688 35.460938 43.179688 41.722656 C 43.179688 47.984375 45.34375 54.320312 49.476562 54.320312 C 53.609375 54.320312 55.773438 47.984375 55.773438 41.722656 C 55.773438 35.460938 53.613281 29.125 49.476562 29.125 Z M 49.476562 50.371094 C 48.789062 50.058594 47.117188 47.085938 47.117188 41.722656 C 47.117188 36.359375 48.789062 33.386719 49.476562 33.074219 C 50.167969 33.386719 51.835938 36.359375 51.835938 41.722656 C 51.835938 47.085938 50.167969 50.058594 49.476562 50.371094 Z M 49.476562 50.371094 "/>
<path style=" stroke:none;fill-rule:nonzero;fill:rgb(90.196078%,10.196078%,15.294118%);fill-opacity:1;" d="M 23.96875 28.917969 C 19.839844 28.917969 17.675781 35.257812 17.675781 41.519531 C 17.675781 47.777344 19.839844 54.113281 23.96875 54.113281 C 28.105469 54.113281 30.265625 47.777344 30.265625 41.519531 C 30.265625 35.257812 28.105469 28.917969 23.96875 28.917969 Z M 23.96875 50.160156 C 23.285156 49.851562 21.617188 46.882812 21.617188 41.519531 C 21.617188 36.152344 23.28125 33.183594 23.96875 32.867188 C 24.65625 33.179688 26.328125 36.144531 26.328125 41.519531 C 26.328125 46.890625 24.65625 49.855469 23.96875 50.160156 Z M 23.96875 50.160156 "/>
<path style=" stroke:none;fill-rule:nonzero;fill:rgb(90.196078%,10.196078%,15.294118%);fill-opacity:1;" d="M 63.015625 51.101562 C 64.101562 51.101562 64.984375 50.21875 64.984375 49.132812 L 64.984375 49.097656 C 64.984375 48.011719 64.101562 47.128906 63.015625 47.128906 C 61.925781 47.128906 61.046875 48.011719 61.046875 49.097656 L 61.046875 49.132812 C 61.042969 50.21875 61.925781 51.101562 63.015625 51.101562 Z M 63.015625 51.101562 "/>
</g>
</svg>
