<?xml version="1.0" encoding="UTF-8"?>
<svg xmlns="http://www.w3.org/2000/svg" xmlns:xlink="http://www.w3.org/1999/xlink" width="50pt" height="50pt" viewBox="0 0 50 50" version="1.1">
<g id="surface1">
<path style=" stroke:none;fill-rule:nonzero;fill:rgb(90.196078%,10.196078%,15.294118%);fill-opacity:1;" d="M 16.003906 23.046875 C 14.769531 22.691406 13.539062 22.511719 12.34375 22.511719 C 10.492188 22.511719 8.949219 22.933594 7.75 23.453125 C 8.90625 19.226562 11.675781 11.9375 17.199219 11.117188 C 17.710938 11.042969 18.128906 10.671875 18.269531 10.175781 L 19.476562 5.859375 C 19.578125 5.492188 19.515625 5.101562 19.308594 4.785156 C 19.101562 4.46875 18.765625 4.257812 18.390625 4.207031 C 17.984375 4.148438 17.570312 4.121094 17.15625 4.121094 C 10.527344 4.121094 3.964844 11.039062 1.195312 20.945312 C -0.429688 26.757812 -0.90625 35.492188 3.097656 40.992188 C 5.339844 44.070312 8.609375 45.710938 12.816406 45.875 C 12.832031 45.875 12.851562 45.878906 12.867188 45.878906 C 18.058594 45.878906 22.660156 42.382812 24.0625 37.375 C 24.898438 34.382812 24.519531 31.246094 22.996094 28.539062 C 21.488281 25.859375 19.003906 23.910156 16.003906 23.046875 Z M 16.003906 23.046875 "/>
<path style=" stroke:none;fill-rule:nonzero;fill:rgb(90.196078%,10.196078%,15.294118%);fill-opacity:1;" d="M 48.5 28.539062 C 46.992188 25.859375 44.507812 23.910156 41.503906 23.046875 C 40.273438 22.691406 39.042969 22.511719 37.84375 22.511719 C 35.996094 22.511719 34.453125 22.933594 33.253906 23.453125 C 34.410156 19.226562 37.179688 11.9375 42.703125 11.117188 C 43.214844 11.042969 43.632812 10.671875 43.773438 10.175781 L 44.980469 5.859375 C 45.082031 5.492188 45.019531 5.101562 44.8125 4.785156 C 44.605469 4.46875 44.269531 4.257812 43.894531 4.207031 C 43.488281 4.148438 43.070312 4.121094 42.660156 4.121094 C 36.03125 4.121094 29.46875 11.039062 26.699219 20.945312 C 25.074219 26.757812 24.597656 35.492188 28.601562 40.992188 C 30.84375 44.070312 34.113281 45.714844 38.320312 45.875 C 38.335938 45.878906 38.351562 45.878906 38.371094 45.878906 C 43.5625 45.878906 48.164062 42.382812 49.566406 37.375 C 50.402344 34.382812 50.023438 31.246094 48.5 28.539062 Z M 48.5 28.539062 "/>
</g>
</svg>
