<?xml version="1.0" encoding="UTF-8"?>
<svg xmlns="http://www.w3.org/2000/svg" xmlns:xlink="http://www.w3.org/1999/xlink" width="100pt" height="100pt" viewBox="0 0 100 100" version="1.1">
<g id="surface1">
<path style=" stroke:none;fill-rule:nonzero;fill:rgb(85.882353%,92.941176%,100%);fill-opacity:1;" d="M 78.460938 35.730469 L 78.460938 24.519531 C 78.460938 23.691406 77.789062 23.015625 76.957031 23.015625 L 42.898438 23.015625 C 42.070312 23.015625 41.398438 23.691406 41.398438 24.519531 L 41.398438 35.730469 Z M 78.460938 35.730469 "/>
<path style=" stroke:none;fill-rule:nonzero;fill:rgb(70.980392%,86.27451%,100%);fill-opacity:1;" d="M 51.390625 23.019531 L 42.898438 23.019531 C 42.070312 23.019531 41.398438 23.691406 41.398438 24.519531 L 41.398438 35.730469 L 50.15625 35.730469 L 50.15625 25.089844 C 50.15625 24.199219 50.65625 23.417969 51.390625 23.019531 Z M 51.390625 23.019531 "/>
<path style=" stroke:none;fill-rule:nonzero;fill:rgb(70.980392%,86.27451%,100%);fill-opacity:1;" d="M 86.011719 2.890625 C 85.242188 1.546875 83.53125 1.082031 82.1875 1.855469 L 70.648438 8.480469 C 68.601562 9.652344 67.328125 11.847656 67.328125 14.210938 L 67.328125 35.730469 L 72.933594 35.730469 L 72.933594 14.210938 C 72.933594 13.851562 73.125 13.519531 73.4375 13.339844 L 84.976562 6.714844 C 86.320312 5.945312 86.785156 4.230469 86.011719 2.890625 Z M 86.011719 2.890625 "/>
<path style=" stroke:none;fill-rule:nonzero;fill:rgb(54.509804%,79.215686%,100%);fill-opacity:1;" d="M 72.652344 7.328125 L 70.648438 8.480469 C 68.601562 9.652344 67.328125 11.847656 67.328125 14.210938 L 67.328125 35.730469 L 70.210938 35.730469 L 70.210938 12.453125 C 70.210938 10.449219 71.125 8.570312 72.652344 7.328125 Z M 72.652344 7.328125 "/>
<path style=" stroke:none;fill-rule:nonzero;fill:rgb(100%,60.784314%,0%);fill-opacity:1;" d="M 43.402344 91.871094 L 43.691406 97.519531 C 44.59375 98.167969 45.699219 98.550781 46.894531 98.550781 L 72.964844 98.550781 C 76 98.550781 78.460938 96.089844 78.460938 93.054688 L 78.460938 91.871094 Z M 43.402344 91.871094 "/>
<path style=" stroke:none;fill-rule:nonzero;fill:rgb(98.823529%,53.72549%,0%);fill-opacity:1;" d="M 43.402344 91.871094 L 43.691406 97.519531 C 44.59375 98.167969 45.699219 98.550781 46.894531 98.550781 L 51.390625 98.550781 C 50.65625 98.148438 50.15625 97.367188 50.15625 96.476562 L 50.15625 91.871094 Z M 43.402344 91.871094 "/>
<path style=" stroke:none;fill-rule:nonzero;fill:rgb(100%,71.372549%,25.098039%);fill-opacity:1;" d="M 41.398438 35.339844 L 41.398438 52.847656 C 51.964844 54.960938 59.929688 64.285156 59.929688 75.476562 C 59.929688 82.09375 57.140625 88.058594 52.679688 92.265625 L 78.460938 92.265625 L 78.460938 35.339844 Z M 41.398438 35.339844 "/>
<path style=" stroke:none;fill-rule:nonzero;fill:rgb(100%,71.372549%,25.098039%);fill-opacity:1;" d="M 78.460938 35.339844 L 41.398438 35.339844 L 41.398438 52.847656 L 43.421875 92.265625 L 78.460938 92.265625 Z M 78.460938 35.339844 "/>
<path style=" stroke:none;fill-rule:nonzero;fill:rgb(100%,60.784314%,0%);fill-opacity:1;" d="M 41.398438 35.339844 L 41.398438 52.847656 L 43.421875 92.265625 L 50.15625 92.265625 L 50.15625 35.339844 Z M 41.398438 35.339844 "/>
<path style=" stroke:none;fill-rule:nonzero;fill:rgb(100%,81.568627%,52.54902%);fill-opacity:1;" d="M 59.929688 75.476562 C 59.929688 88.21875 49.597656 98.550781 36.855469 98.550781 C 24.109375 98.550781 13.777344 88.21875 13.777344 75.476562 C 13.777344 62.730469 24.109375 52.398438 36.855469 52.398438 C 49.597656 52.398438 59.929688 62.730469 59.929688 75.476562 Z M 59.929688 75.476562 "/>
<path style=" stroke:none;fill-rule:nonzero;fill:rgb(100%,76.470588%,39.607843%);fill-opacity:1;" d="M 26.472656 75.476562 C 26.472656 64.933594 33.542969 56.042969 43.203125 53.285156 C 41.183594 52.707031 39.054688 52.398438 36.855469 52.398438 C 24.109375 52.398438 13.777344 62.730469 13.777344 75.476562 C 13.777344 88.21875 24.109375 98.550781 36.855469 98.550781 C 39.054688 98.550781 41.183594 98.242188 43.203125 97.667969 C 33.542969 94.910156 26.472656 86.019531 26.472656 75.476562 Z M 26.472656 75.476562 "/>
<path style=" stroke:none;fill-rule:nonzero;fill:rgb(100%,76.470588%,39.607843%);fill-opacity:1;" d="M 54.578125 75.476562 C 54.578125 85.265625 46.640625 93.199219 36.855469 93.199219 C 27.066406 93.199219 19.128906 85.265625 19.128906 75.476562 C 19.128906 65.6875 27.066406 57.75 36.855469 57.75 C 46.640625 57.75 54.578125 65.6875 54.578125 75.476562 Z M 54.578125 75.476562 "/>
<path style=" stroke:none;fill-rule:nonzero;fill:rgb(100%,71.372549%,25.098039%);fill-opacity:1;" d="M 34.613281 57.890625 C 25.882812 58.996094 19.128906 66.445312 19.128906 75.476562 C 19.128906 84.503906 25.882812 91.957031 34.613281 93.058594 C 29.632812 88.824219 26.472656 82.519531 26.472656 75.476562 C 26.472656 68.429688 29.632812 62.125 34.613281 57.890625 Z M 34.613281 57.890625 "/>
<path style=" stroke:none;fill-rule:nonzero;fill:rgb(0%,0%,0%);fill-opacity:1;" d="M 17.582031 75.460938 C 17.582031 86.03125 26.1875 94.648438 36.773438 94.648438 C 47.34375 94.648438 55.960938 86.046875 55.960938 75.460938 C 55.960938 64.890625 47.359375 56.269531 36.773438 56.269531 C 26.203125 56.269531 17.582031 64.871094 17.582031 75.460938 Z M 24.292969 65.050781 L 33.234375 73.996094 L 20.582031 73.996094 C 20.886719 70.609375 22.230469 67.523438 24.292969 65.050781 Z M 20.582031 76.925781 L 33.234375 76.925781 L 24.292969 85.867188 C 22.230469 83.398438 20.886719 80.308594 20.582031 76.925781 Z M 35.308594 91.648438 C 31.921875 91.347656 28.835938 90.003906 26.363281 87.941406 L 35.308594 78.996094 Z M 35.308594 71.921875 L 26.363281 62.980469 C 28.835938 60.917969 31.921875 59.574219 35.308594 59.269531 Z M 49.25 85.867188 L 40.308594 76.925781 L 52.960938 76.925781 C 52.65625 80.308594 51.316406 83.398438 49.25 85.867188 Z M 52.960938 73.996094 L 40.308594 73.996094 L 49.25 65.050781 C 51.316406 67.523438 52.65625 70.609375 52.960938 73.996094 Z M 38.238281 59.269531 C 41.621094 59.574219 44.710938 60.917969 47.179688 62.980469 L 38.238281 71.921875 Z M 38.238281 78.996094 L 47.179688 87.941406 C 44.710938 90.003906 41.621094 91.347656 38.238281 91.648438 Z M 38.238281 78.996094 "/>
<path style=" stroke:none;fill-rule:nonzero;fill:rgb(0%,0%,0%);fill-opacity:1;" d="M 42.820312 24.46875 L 55.492188 24.46875 C 56.300781 24.46875 56.957031 23.8125 56.957031 23.003906 C 56.957031 22.195312 56.300781 21.539062 55.492188 21.539062 L 42.820312 21.539062 C 41.183594 21.539062 39.851562 22.867188 39.851562 24.503906 L 39.851562 51.113281 C 38.84375 50.984375 37.816406 50.921875 36.773438 50.921875 C 23.242188 50.921875 12.230469 61.929688 12.230469 75.460938 C 12.230469 88.992188 23.242188 100 36.773438 100 C 39.0625 100 41.28125 99.683594 43.386719 99.09375 C 44.429688 99.6875 45.597656 100 46.8125 100 L 72.882812 100 C 76.71875 100 79.84375 96.878906 79.84375 93.039062 C 79.84375 91.765625 79.84375 68.492188 79.84375 67.207031 C 79.84375 66.398438 79.1875 65.742188 78.378906 65.742188 C 77.570312 65.742188 76.914062 66.398438 76.914062 67.207031 L 76.914062 90.785156 L 55.921875 90.785156 C 59.292969 86.585938 61.3125 81.253906 61.3125 75.460938 C 61.3125 64 53.417969 54.351562 42.78125 51.664062 L 42.78125 36.789062 L 76.914062 36.789062 L 76.914062 60.371094 C 76.914062 61.179688 77.570312 61.835938 78.378906 61.835938 C 79.1875 61.835938 79.84375 61.179688 79.84375 60.371094 C 79.84375 58.433594 79.84375 25.316406 79.84375 24.503906 C 79.84375 22.867188 78.511719 21.539062 76.875 21.539062 L 74.316406 21.539062 L 74.316406 14.460938 L 85.625 7.96875 C 87.667969 6.796875 88.375 4.183594 87.203125 2.144531 C 86.027344 0.0976562 83.421875 -0.605469 81.375 0.566406 L 69.835938 7.191406 C 67.335938 8.628906 65.78125 11.3125 65.78125 14.195312 L 65.78125 21.539062 L 62.328125 21.539062 C 61.519531 21.539062 60.863281 22.195312 60.863281 23.003906 C 60.863281 23.8125 61.519531 24.46875 62.328125 24.46875 L 65.78125 24.46875 L 65.78125 33.859375 L 42.78125 33.859375 L 42.78125 24.503906 C 42.78125 24.484375 42.796875 24.46875 42.820312 24.46875 Z M 76.855469 93.714844 C 76.535156 95.617188 74.875 97.070312 72.882812 97.070312 L 48.398438 97.070312 C 50.109375 96.144531 51.714844 95.019531 53.164062 93.714844 Z M 58.382812 75.460938 C 58.382812 87.375 48.6875 97.070312 36.773438 97.070312 C 24.855469 97.070312 15.160156 87.375 15.160156 75.460938 C 15.160156 63.542969 24.855469 53.851562 36.773438 53.851562 C 48.6875 53.851562 58.382812 63.542969 58.382812 75.460938 Z M 76.875 24.46875 C 76.894531 24.46875 76.914062 24.484375 76.914062 24.503906 L 76.914062 33.859375 L 74.316406 33.859375 L 74.316406 24.46875 Z M 68.710938 14.195312 C 68.710938 12.355469 69.703125 10.648438 71.292969 9.734375 L 82.835938 3.109375 C 83.476562 2.742188 84.292969 2.960938 84.660156 3.601562 C 85.027344 4.242188 84.808594 5.0625 84.167969 5.429688 L 72.625 12.054688 C 71.863281 12.492188 71.386719 13.3125 71.386719 14.195312 L 71.386719 21.539062 L 68.710938 21.539062 Z M 68.710938 24.46875 L 71.386719 24.46875 L 71.386719 33.859375 L 68.710938 33.859375 Z M 68.710938 24.46875 "/>
</g>
</svg>
