<?xml version="1.0" encoding="UTF-8"?>
<svg xmlns="http://www.w3.org/2000/svg" xmlns:xlink="http://www.w3.org/1999/xlink" width="100pt" height="100pt" viewBox="0 0 100 100" version="1.1">
<g id="surface1">
<path style=" stroke:none;fill-rule:nonzero;fill:rgb(90.196078%,10.196078%,15.294118%);fill-opacity:1;" d="M 93.820312 96.628906 L 91.011719 96.628906 L 91.011719 8.425781 C 91.011719 7.496094 90.257812 6.742188 89.324219 6.742188 L 57.867188 6.742188 C 56.933594 6.742188 56.179688 7.496094 56.179688 8.425781 L 56.179688 15.730469 L 52.808594 15.730469 L 52.808594 8.425781 C 52.808594 7.496094 52.054688 6.742188 51.125 6.742188 L 43.820312 6.742188 L 43.820312 1.683594 C 43.820312 0.753906 43.066406 0 42.136719 0 C 41.203125 0 40.449219 0.753906 40.449219 1.683594 L 40.449219 6.742188 L 33.144531 6.742188 C 32.214844 6.742188 31.460938 7.496094 31.460938 8.425781 L 31.460938 15.730469 L 26.40625 15.730469 C 25.472656 15.730469 24.71875 16.484375 24.71875 17.414062 L 24.71875 31.460938 L 10.675781 31.460938 C 9.742188 31.460938 8.988281 32.214844 8.988281 33.144531 L 8.988281 96.628906 L 6.179688 96.628906 C 5.25 96.628906 4.496094 97.382812 4.496094 98.3125 C 4.496094 99.246094 5.25 100 6.179688 100 L 93.820312 100 C 94.75 100 95.503906 99.246094 95.503906 98.316406 C 95.503906 97.382812 94.75 96.628906 93.820312 96.628906 Z M 34.832031 10.113281 L 49.4375 10.113281 L 49.4375 15.730469 L 34.832031 15.730469 Z M 29.214844 96.628906 L 28.089844 96.628906 L 28.089844 93.820312 C 28.089844 92.890625 27.335938 92.136719 26.40625 92.136719 C 25.472656 92.136719 24.71875 92.890625 24.71875 93.820312 L 24.71875 96.628906 L 23.59375 96.628906 L 23.59375 91.011719 L 29.214844 91.011719 Z M 40.449219 53.371094 L 40.449219 96.628906 L 32.585938 96.628906 L 32.585938 89.324219 C 32.585938 88.394531 31.828125 87.640625 30.898438 87.640625 L 21.910156 87.640625 C 20.980469 87.640625 20.226562 88.394531 20.226562 89.324219 L 20.226562 96.628906 L 12.359375 96.628906 L 12.359375 34.832031 L 40.449219 34.832031 Z M 42.132812 31.460938 L 28.089844 31.460938 L 28.089844 19.101562 L 56.179688 19.101562 L 56.179688 51.683594 L 43.820312 51.683594 L 43.820312 46.066406 L 48.875 46.066406 C 49.808594 46.066406 50.5625 45.3125 50.5625 44.382812 C 50.5625 43.449219 49.808594 42.695312 48.875 42.695312 L 43.820312 42.695312 L 43.820312 37.078125 L 48.875 37.078125 C 49.808594 37.078125 50.5625 36.324219 50.5625 35.394531 C 50.5625 34.460938 49.808594 33.707031 48.875 33.707031 L 43.820312 33.707031 L 43.820312 33.144531 C 43.820312 32.214844 43.066406 31.460938 42.132812 31.460938 Z M 71.910156 96.628906 L 43.820312 96.628906 L 43.820312 55.054688 L 71.910156 55.054688 Z M 87.640625 96.628906 L 75.28125 96.628906 L 75.28125 51.125 C 75.28125 50.191406 74.527344 49.4375 73.59375 49.4375 C 72.664062 49.4375 71.910156 50.191406 71.910156 51.125 L 71.910156 51.683594 L 68.539062 51.683594 L 68.539062 51.125 C 68.539062 50.191406 67.785156 49.4375 66.855469 49.4375 C 65.921875 49.4375 65.167969 50.191406 65.167969 51.125 L 65.167969 51.683594 L 59.550781 51.683594 L 59.550781 10.113281 L 87.640625 10.113281 Z M 87.640625 96.628906 "/>
<path style=" stroke:none;fill-rule:nonzero;fill:rgb(90.196078%,10.196078%,15.294118%);fill-opacity:1;" d="M 51.125 93.257812 C 52.054688 93.257812 52.808594 92.503906 52.808594 91.574219 L 52.808594 60.113281 C 52.808594 59.183594 52.054688 58.425781 51.125 58.425781 C 50.191406 58.425781 49.4375 59.183594 49.4375 60.113281 L 49.4375 91.574219 C 49.4375 92.503906 50.191406 93.257812 51.125 93.257812 Z M 51.125 93.257812 "/>
<path style=" stroke:none;fill-rule:nonzero;fill:rgb(90.196078%,10.196078%,15.294118%);fill-opacity:1;" d="M 57.867188 93.257812 C 58.796875 93.257812 59.550781 92.503906 59.550781 91.574219 L 59.550781 60.113281 C 59.550781 59.183594 58.796875 58.425781 57.867188 58.425781 C 56.933594 58.425781 56.179688 59.183594 56.179688 60.113281 L 56.179688 91.574219 C 56.179688 92.503906 56.933594 93.257812 57.867188 93.257812 Z M 57.867188 93.257812 "/>
<path style=" stroke:none;fill-rule:nonzero;fill:rgb(90.196078%,10.196078%,15.294118%);fill-opacity:1;" d="M 64.605469 93.257812 C 65.539062 93.257812 66.292969 92.503906 66.292969 91.574219 L 66.292969 60.113281 C 66.292969 59.183594 65.539062 58.425781 64.605469 58.425781 C 63.675781 58.425781 62.921875 59.183594 62.921875 60.113281 L 62.921875 91.574219 C 62.921875 92.503906 63.675781 93.257812 64.605469 93.257812 Z M 64.605469 93.257812 "/>
<path style=" stroke:none;fill-rule:nonzero;fill:rgb(90.196078%,10.196078%,15.294118%);fill-opacity:1;" d="M 66.855469 21.347656 C 67.785156 21.347656 68.539062 20.59375 68.539062 19.664062 L 68.539062 17.414062 C 68.539062 16.484375 67.785156 15.730469 66.855469 15.730469 C 65.921875 15.730469 65.167969 16.484375 65.167969 17.414062 L 65.167969 19.664062 C 65.167969 20.59375 65.921875 21.347656 66.855469 21.347656 Z M 66.855469 21.347656 "/>
<path style=" stroke:none;fill-rule:nonzero;fill:rgb(90.196078%,10.196078%,15.294118%);fill-opacity:1;" d="M 73.59375 21.347656 C 74.527344 21.347656 75.28125 20.59375 75.28125 19.664062 L 75.28125 17.414062 C 75.28125 16.484375 74.527344 15.730469 73.59375 15.730469 C 72.664062 15.730469 71.910156 16.484375 71.910156 17.414062 L 71.910156 19.664062 C 71.910156 20.59375 72.664062 21.347656 73.59375 21.347656 Z M 73.59375 21.347656 "/>
<path style=" stroke:none;fill-rule:nonzero;fill:rgb(90.196078%,10.196078%,15.294118%);fill-opacity:1;" d="M 80.335938 21.347656 C 81.269531 21.347656 82.023438 20.59375 82.023438 19.664062 L 82.023438 17.414062 C 82.023438 16.484375 81.269531 15.730469 80.335938 15.730469 C 79.40625 15.730469 78.652344 16.484375 78.652344 17.414062 L 78.652344 19.664062 C 78.652344 20.59375 79.40625 21.347656 80.335938 21.347656 Z M 80.335938 21.347656 "/>
<path style=" stroke:none;fill-rule:nonzero;fill:rgb(90.196078%,10.196078%,15.294118%);fill-opacity:1;" d="M 66.855469 32.585938 C 67.785156 32.585938 68.539062 31.828125 68.539062 30.898438 L 68.539062 28.652344 C 68.539062 27.71875 67.785156 26.964844 66.855469 26.964844 C 65.921875 26.964844 65.167969 27.71875 65.167969 28.652344 L 65.167969 30.898438 C 65.167969 31.828125 65.921875 32.585938 66.855469 32.585938 Z M 66.855469 32.585938 "/>
<path style=" stroke:none;fill-rule:nonzero;fill:rgb(90.196078%,10.196078%,15.294118%);fill-opacity:1;" d="M 73.59375 32.585938 C 74.527344 32.585938 75.28125 31.828125 75.28125 30.898438 L 75.28125 28.652344 C 75.28125 27.71875 74.527344 26.964844 73.59375 26.964844 C 72.664062 26.964844 71.910156 27.71875 71.910156 28.652344 L 71.910156 30.898438 C 71.910156 31.828125 72.664062 32.585938 73.59375 32.585938 Z M 73.59375 32.585938 "/>
<path style=" stroke:none;fill-rule:nonzero;fill:rgb(90.196078%,10.196078%,15.294118%);fill-opacity:1;" d="M 80.335938 32.585938 C 81.269531 32.585938 82.023438 31.828125 82.023438 30.898438 L 82.023438 28.652344 C 82.023438 27.71875 81.269531 26.964844 80.335938 26.964844 C 79.40625 26.964844 78.652344 27.71875 78.652344 28.652344 L 78.652344 30.898438 C 78.652344 31.828125 79.40625 32.585938 80.335938 32.585938 Z M 80.335938 32.585938 "/>
<path style=" stroke:none;fill-rule:nonzero;fill:rgb(90.196078%,10.196078%,15.294118%);fill-opacity:1;" d="M 66.855469 43.820312 C 67.785156 43.820312 68.539062 43.066406 68.539062 42.136719 L 68.539062 39.886719 C 68.539062 38.957031 67.785156 38.203125 66.855469 38.203125 C 65.921875 38.203125 65.167969 38.957031 65.167969 39.886719 L 65.167969 42.136719 C 65.167969 43.066406 65.921875 43.820312 66.855469 43.820312 Z M 66.855469 43.820312 "/>
<path style=" stroke:none;fill-rule:nonzero;fill:rgb(90.196078%,10.196078%,15.294118%);fill-opacity:1;" d="M 73.59375 43.820312 C 74.527344 43.820312 75.28125 43.066406 75.28125 42.136719 L 75.28125 39.886719 C 75.28125 38.957031 74.527344 38.203125 73.59375 38.203125 C 72.664062 38.203125 71.910156 38.957031 71.910156 39.886719 L 71.910156 42.136719 C 71.910156 43.066406 72.664062 43.820312 73.59375 43.820312 Z M 73.59375 43.820312 "/>
<path style=" stroke:none;fill-rule:nonzero;fill:rgb(90.196078%,10.196078%,15.294118%);fill-opacity:1;" d="M 80.335938 43.820312 C 81.269531 43.820312 82.023438 43.066406 82.023438 42.136719 L 82.023438 39.886719 C 82.023438 38.957031 81.269531 38.203125 80.335938 38.203125 C 79.40625 38.203125 78.652344 38.957031 78.652344 39.886719 L 78.652344 42.136719 C 78.652344 43.066406 79.40625 43.820312 80.335938 43.820312 Z M 80.335938 43.820312 "/>
<path style=" stroke:none;fill-rule:nonzero;fill:rgb(90.196078%,10.196078%,15.294118%);fill-opacity:1;" d="M 19.664062 48.316406 C 20.59375 48.316406 21.347656 47.558594 21.347656 46.628906 L 21.347656 44.382812 C 21.347656 43.449219 20.59375 42.695312 19.664062 42.695312 C 18.730469 42.695312 17.976562 43.449219 17.976562 44.382812 L 17.976562 46.628906 C 17.976562 47.558594 18.730469 48.316406 19.664062 48.316406 Z M 19.664062 48.316406 "/>
<path style=" stroke:none;fill-rule:nonzero;fill:rgb(90.196078%,10.196078%,15.294118%);fill-opacity:1;" d="M 26.40625 48.316406 C 27.335938 48.316406 28.089844 47.558594 28.089844 46.628906 L 28.089844 44.382812 C 28.089844 43.449219 27.335938 42.695312 26.40625 42.695312 C 25.472656 42.695312 24.71875 43.449219 24.71875 44.382812 L 24.71875 46.628906 C 24.71875 47.558594 25.472656 48.316406 26.40625 48.316406 Z M 26.40625 48.316406 "/>
<path style=" stroke:none;fill-rule:nonzero;fill:rgb(90.196078%,10.196078%,15.294118%);fill-opacity:1;" d="M 33.144531 48.316406 C 34.078125 48.316406 34.832031 47.558594 34.832031 46.628906 L 34.832031 44.382812 C 34.832031 43.449219 34.078125 42.695312 33.144531 42.695312 C 32.214844 42.695312 31.460938 43.449219 31.460938 44.382812 L 31.460938 46.628906 C 31.460938 47.558594 32.214844 48.316406 33.144531 48.316406 Z M 33.144531 48.316406 "/>
<path style=" stroke:none;fill-rule:nonzero;fill:rgb(90.196078%,10.196078%,15.294118%);fill-opacity:1;" d="M 19.664062 59.550781 C 20.59375 59.550781 21.347656 58.796875 21.347656 57.867188 L 21.347656 55.617188 C 21.347656 54.6875 20.59375 53.933594 19.664062 53.933594 C 18.730469 53.933594 17.976562 54.6875 17.976562 55.617188 L 17.976562 57.867188 C 17.976562 58.796875 18.730469 59.550781 19.664062 59.550781 Z M 19.664062 59.550781 "/>
<path style=" stroke:none;fill-rule:nonzero;fill:rgb(90.196078%,10.196078%,15.294118%);fill-opacity:1;" d="M 26.40625 59.550781 C 27.335938 59.550781 28.089844 58.796875 28.089844 57.867188 L 28.089844 55.617188 C 28.089844 54.6875 27.335938 53.933594 26.40625 53.933594 C 25.472656 53.933594 24.71875 54.6875 24.71875 55.617188 L 24.71875 57.867188 C 24.71875 58.796875 25.472656 59.550781 26.40625 59.550781 Z M 26.40625 59.550781 "/>
<path style=" stroke:none;fill-rule:nonzero;fill:rgb(90.196078%,10.196078%,15.294118%);fill-opacity:1;" d="M 33.144531 59.550781 C 34.078125 59.550781 34.832031 58.796875 34.832031 57.867188 L 34.832031 55.617188 C 34.832031 54.6875 34.078125 53.933594 33.144531 53.933594 C 32.214844 53.933594 31.460938 54.6875 31.460938 55.617188 L 31.460938 57.867188 C 31.460938 58.796875 32.214844 59.550781 33.144531 59.550781 Z M 33.144531 59.550781 "/>
<path style=" stroke:none;fill-rule:nonzero;fill:rgb(90.196078%,10.196078%,15.294118%);fill-opacity:1;" d="M 19.664062 70.785156 C 20.59375 70.785156 21.347656 70.03125 21.347656 69.101562 L 21.347656 66.855469 C 21.347656 65.921875 20.59375 65.167969 19.664062 65.167969 C 18.730469 65.167969 17.976562 65.921875 17.976562 66.855469 L 17.976562 69.101562 C 17.976562 70.03125 18.730469 70.785156 19.664062 70.785156 Z M 19.664062 70.785156 "/>
<path style=" stroke:none;fill-rule:nonzero;fill:rgb(90.196078%,10.196078%,15.294118%);fill-opacity:1;" d="M 26.40625 70.785156 C 27.335938 70.785156 28.089844 70.03125 28.089844 69.101562 L 28.089844 66.855469 C 28.089844 65.921875 27.335938 65.167969 26.40625 65.167969 C 25.472656 65.167969 24.71875 65.921875 24.71875 66.855469 L 24.71875 69.101562 C 24.71875 70.03125 25.472656 70.785156 26.40625 70.785156 Z M 26.40625 70.785156 "/>
<path style=" stroke:none;fill-rule:nonzero;fill:rgb(90.196078%,10.196078%,15.294118%);fill-opacity:1;" d="M 33.144531 70.785156 C 34.078125 70.785156 34.832031 70.03125 34.832031 69.101562 L 34.832031 66.855469 C 34.832031 65.921875 34.078125 65.167969 33.144531 65.167969 C 32.214844 65.167969 31.460938 65.921875 31.460938 66.855469 L 31.460938 69.101562 C 31.460938 70.03125 32.214844 70.785156 33.144531 70.785156 Z M 33.144531 70.785156 "/>
<path style=" stroke:none;fill-rule:nonzero;fill:rgb(90.196078%,10.196078%,15.294118%);fill-opacity:1;" d="M 19.664062 82.023438 C 20.59375 82.023438 21.347656 81.269531 21.347656 80.335938 L 21.347656 78.089844 C 21.347656 77.160156 20.59375 76.40625 19.664062 76.40625 C 18.730469 76.40625 17.976562 77.160156 17.976562 78.089844 L 17.976562 80.335938 C 17.976562 81.269531 18.730469 82.023438 19.664062 82.023438 Z M 19.664062 82.023438 "/>
<path style=" stroke:none;fill-rule:nonzero;fill:rgb(90.196078%,10.196078%,15.294118%);fill-opacity:1;" d="M 26.40625 82.023438 C 27.335938 82.023438 28.089844 81.269531 28.089844 80.335938 L 28.089844 78.089844 C 28.089844 77.160156 27.335938 76.40625 26.40625 76.40625 C 25.472656 76.40625 24.71875 77.160156 24.71875 78.089844 L 24.71875 80.335938 C 24.71875 81.269531 25.472656 82.023438 26.40625 82.023438 Z M 26.40625 82.023438 "/>
<path style=" stroke:none;fill-rule:nonzero;fill:rgb(90.196078%,10.196078%,15.294118%);fill-opacity:1;" d="M 33.144531 82.023438 C 34.078125 82.023438 34.832031 81.269531 34.832031 80.335938 L 34.832031 78.089844 C 34.832031 77.160156 34.078125 76.40625 33.144531 76.40625 C 32.214844 76.40625 31.460938 77.160156 31.460938 78.089844 L 31.460938 80.335938 C 31.460938 81.269531 32.214844 82.023438 33.144531 82.023438 Z M 33.144531 82.023438 "/>
<path style=" stroke:none;fill-rule:nonzero;fill:rgb(90.196078%,10.196078%,15.294118%);fill-opacity:1;" d="M 80.335938 55.054688 C 81.269531 55.054688 82.023438 54.300781 82.023438 53.371094 L 82.023438 51.125 C 82.023438 50.191406 81.269531 49.4375 80.335938 49.4375 C 79.40625 49.4375 78.652344 50.191406 78.652344 51.125 L 78.652344 53.371094 C 78.652344 54.300781 79.40625 55.054688 80.335938 55.054688 Z M 80.335938 55.054688 "/>
<path style=" stroke:none;fill-rule:nonzero;fill:rgb(90.196078%,10.196078%,15.294118%);fill-opacity:1;" d="M 80.335938 66.292969 C 81.269531 66.292969 82.023438 65.539062 82.023438 64.605469 L 82.023438 62.359375 C 82.023438 61.429688 81.269531 60.675781 80.335938 60.675781 C 79.40625 60.675781 78.652344 61.429688 78.652344 62.359375 L 78.652344 64.605469 C 78.652344 65.539062 79.40625 66.292969 80.335938 66.292969 Z M 80.335938 66.292969 "/>
<path style=" stroke:none;fill-rule:nonzero;fill:rgb(90.196078%,10.196078%,15.294118%);fill-opacity:1;" d="M 80.335938 77.527344 C 81.269531 77.527344 82.023438 76.773438 82.023438 75.84375 L 82.023438 73.59375 C 82.023438 72.664062 81.269531 71.910156 80.335938 71.910156 C 79.40625 71.910156 78.652344 72.664062 78.652344 73.59375 L 78.652344 75.84375 C 78.652344 76.773438 79.40625 77.527344 80.335938 77.527344 Z M 80.335938 77.527344 "/>
<path style=" stroke:none;fill-rule:nonzero;fill:rgb(90.196078%,10.196078%,15.294118%);fill-opacity:1;" d="M 80.335938 88.765625 C 81.269531 88.765625 82.023438 88.007812 82.023438 87.078125 L 82.023438 84.832031 C 82.023438 83.898438 81.269531 83.144531 80.335938 83.144531 C 79.40625 83.144531 78.652344 83.898438 78.652344 84.832031 L 78.652344 87.078125 C 78.652344 88.007812 79.40625 88.765625 80.335938 88.765625 Z M 80.335938 88.765625 "/>
<path style=" stroke:none;fill-rule:nonzero;fill:rgb(90.196078%,10.196078%,15.294118%);fill-opacity:1;" d="M 50.5625 26.40625 C 50.5625 25.472656 49.808594 24.71875 48.875 24.71875 L 35.394531 24.71875 C 34.460938 24.71875 33.707031 25.472656 33.707031 26.40625 C 33.707031 27.335938 34.460938 28.089844 35.394531 28.089844 L 48.875 28.089844 C 49.808594 28.089844 50.5625 27.335938 50.5625 26.40625 Z M 50.5625 26.40625 "/>
</g>
</svg>
