<?xml version="1.0" encoding="UTF-8"?>
<svg xmlns="http://www.w3.org/2000/svg" xmlns:xlink="http://www.w3.org/1999/xlink" width="100pt" height="100pt" viewBox="0 0 100 100" version="1.1">
<g id="surface1">
<path style=" stroke:none;fill-rule:nonzero;fill:rgb(80.392157%,93.333333%,96.470588%);fill-opacity:1;" d="M 79.6875 95.3125 L 57.8125 95.3125 L 54.6875 57.8125 L 82.8125 57.8125 Z M 79.6875 95.3125 "/>
<path style=" stroke:none;fill-rule:nonzero;fill:rgb(80.392157%,93.333333%,96.470588%);fill-opacity:1;" d="M 39.0625 20.3125 L 39.0625 14.0625 L 26.5625 14.0625 L 26.5625 20.3125 L 17.1875 29.6875 L 17.1875 90.625 C 17.1875 93.214844 19.285156 95.3125 21.875 95.3125 L 43.75 95.3125 C 46.339844 95.3125 48.4375 93.214844 48.4375 90.625 L 48.4375 29.6875 Z M 39.0625 20.3125 "/>
<path style=" stroke:none;fill-rule:nonzero;fill:rgb(52.941176%,80.784314%,91.372549%);fill-opacity:1;" d="M 40.625 35.9375 C 36.71875 35.9375 36.71875 34.375 32.8125 34.375 C 28.90625 34.375 28.90625 35.9375 25 35.9375 C 21.09375 35.9375 21.09375 34.375 17.1875 34.375 L 17.1875 90.625 C 17.1875 93.214844 19.285156 95.3125 21.875 95.3125 L 43.75 95.3125 C 46.339844 95.3125 48.4375 93.214844 48.4375 90.625 L 48.4375 34.375 C 44.53125 34.375 44.53125 35.9375 40.625 35.9375 Z M 40.625 35.9375 "/>
<path style=" stroke:none;fill-rule:nonzero;fill:rgb(9.803922%,36.078431%,52.156863%);fill-opacity:1;" d="M 23.4375 4.6875 L 42.1875 4.6875 L 42.1875 14.0625 L 23.4375 14.0625 Z M 23.4375 4.6875 "/>
<path style=" stroke:none;fill-rule:nonzero;fill:rgb(52.941176%,80.784314%,91.372549%);fill-opacity:1;" d="M 28.125 4.6875 L 31.25 4.6875 L 31.25 9.375 L 28.125 9.375 Z M 28.125 4.6875 "/>
<path style=" stroke:none;fill-rule:nonzero;fill:rgb(52.941176%,80.784314%,91.372549%);fill-opacity:1;" d="M 34.375 4.6875 L 37.5 4.6875 L 37.5 9.375 L 34.375 9.375 Z M 34.375 4.6875 "/>
<path style=" stroke:none;fill-rule:nonzero;fill:rgb(9.803922%,36.078431%,52.156863%);fill-opacity:1;" d="M 17.1875 42.1875 L 48.4375 42.1875 L 48.4375 67.1875 L 17.1875 67.1875 Z M 17.1875 42.1875 "/>
<path style=" stroke:none;fill-rule:nonzero;fill:rgb(95.686275%,95.686275%,90.196078%);fill-opacity:1;" d="M 37.5 56.25 C 37.5 58.839844 35.402344 60.9375 32.8125 60.9375 C 30.222656 60.9375 28.125 58.839844 28.125 56.25 C 28.125 53.660156 32.8125 48.4375 32.8125 48.4375 C 32.8125 48.4375 37.5 53.660156 37.5 56.25 Z M 37.5 56.25 "/>
<path style=" stroke:none;fill-rule:nonzero;fill:rgb(52.941176%,80.784314%,91.372549%);fill-opacity:1;" d="M 57.8125 95.3125 L 79.6875 95.3125 L 82.273438 64.261719 C 80.28125 64.6875 79.601562 65.625 76.5625 65.625 C 72.65625 65.625 72.65625 64.0625 68.75 64.0625 C 64.84375 64.0625 64.84375 65.625 60.9375 65.625 C 57.902344 65.625 57.21875 64.6875 55.234375 64.261719 Z M 57.8125 95.3125 "/>
<path style=" stroke:none;fill-rule:nonzero;fill:rgb(0%,0%,0%);fill-opacity:1;" d="M 40.625 19.664062 L 40.625 15.625 L 42.1875 15.625 C 43.050781 15.625 43.75 14.925781 43.75 14.0625 L 43.75 4.6875 C 43.75 3.824219 43.050781 3.125 42.1875 3.125 L 23.4375 3.125 C 22.574219 3.125 21.875 3.824219 21.875 4.6875 L 21.875 14.0625 C 21.875 14.925781 22.574219 15.625 23.4375 15.625 L 25 15.625 L 25 19.664062 L 16.082031 28.582031 C 15.789062 28.875 15.625 29.273438 15.625 29.6875 L 15.625 90.625 C 15.625 94.078125 18.421875 96.875 21.875 96.875 L 43.75 96.875 C 47.203125 96.875 50 94.078125 50 90.625 L 50 29.6875 C 50 29.273438 49.835938 28.875 49.542969 28.582031 Z M 25 6.25 L 28.125 6.25 L 28.125 9.375 L 31.25 9.375 L 31.25 6.25 L 34.375 6.25 L 34.375 9.375 L 37.5 9.375 L 37.5 6.25 L 40.625 6.25 L 40.625 12.5 L 25 12.5 Z M 46.875 90.625 C 46.875 92.351562 45.476562 93.75 43.75 93.75 L 21.875 93.75 C 20.148438 93.75 18.75 92.351562 18.75 90.625 L 18.75 68.75 L 46.875 68.75 Z M 46.875 65.625 L 18.75 65.625 L 18.75 43.75 L 46.875 43.75 Z M 46.875 40.625 L 18.75 40.625 L 18.75 36.070312 C 19.355469 36.1875 19.941406 36.367188 20.507812 36.609375 C 21.921875 37.230469 23.457031 37.535156 25 37.5 C 26.542969 37.53125 28.074219 37.226562 29.484375 36.609375 C 30.527344 36.136719 31.660156 35.90625 32.804688 35.9375 C 33.949219 35.90625 35.089844 36.136719 36.132812 36.609375 C 37.546875 37.230469 39.082031 37.535156 40.625 37.5 C 42.167969 37.53125 43.699219 37.226562 45.113281 36.609375 C 45.679688 36.367188 46.269531 36.1875 46.875 36.070312 Z M 46.875 32.902344 C 45.867188 33.027344 44.882812 33.296875 43.949219 33.703125 C 42.90625 34.175781 41.769531 34.40625 40.625 34.375 C 39.480469 34.40625 38.339844 34.175781 37.296875 33.703125 C 35.882812 33.082031 34.347656 32.777344 32.804688 32.8125 C 31.261719 32.78125 29.730469 33.085938 28.320312 33.703125 C 27.277344 34.175781 26.144531 34.40625 25 34.375 C 23.855469 34.40625 22.71875 34.175781 21.679688 33.703125 C 20.746094 33.296875 19.757812 33.027344 18.75 32.902344 L 18.75 30.335938 L 27.667969 21.417969 C 27.960938 21.125 28.125 20.726562 28.125 20.3125 L 28.125 15.625 L 37.5 15.625 L 37.5 20.3125 C 37.5 20.726562 37.664062 21.125 37.957031 21.417969 L 46.875 30.335938 Z M 46.875 32.902344 "/>
<path style=" stroke:none;fill-rule:nonzero;fill:rgb(0%,0%,0%);fill-opacity:1;" d="M 32.8125 62.5 C 36.265625 62.5 39.0625 59.703125 39.0625 56.25 C 39.0625 53.21875 34.824219 48.339844 33.976562 47.394531 C 33.671875 47.078125 33.25 46.898438 32.8125 46.898438 C 32.375 46.898438 31.953125 47.078125 31.648438 47.394531 C 30.800781 48.339844 26.5625 53.21875 26.5625 56.25 C 26.5625 59.703125 29.359375 62.5 32.8125 62.5 Z M 32.8125 50.859375 C 34.472656 52.9375 35.9375 55.28125 35.9375 56.25 C 35.9375 57.976562 34.539062 59.375 32.8125 59.375 C 31.085938 59.375 29.6875 57.976562 29.6875 56.25 C 29.6875 55.253906 31.15625 52.929688 32.8125 50.859375 Z M 32.8125 50.859375 "/>
<path style=" stroke:none;fill-rule:nonzero;fill:rgb(0%,0%,0%);fill-opacity:1;" d="M 29.6875 24.351562 L 23.894531 30.144531 L 26.105469 32.355469 L 32.355469 26.105469 C 32.648438 25.8125 32.8125 25.414062 32.8125 25 L 32.8125 21.875 L 29.6875 21.875 Z M 29.6875 24.351562 "/>
<path style=" stroke:none;fill-rule:nonzero;fill:rgb(0%,0%,0%);fill-opacity:1;" d="M 23.4375 90.625 L 28.125 90.625 L 28.125 87.5 L 25 87.5 L 25 81.25 L 21.875 81.25 L 21.875 89.0625 C 21.875 89.925781 22.574219 90.625 23.4375 90.625 Z M 23.4375 90.625 "/>
<path style=" stroke:none;fill-rule:nonzero;fill:rgb(0%,0%,0%);fill-opacity:1;" d="M 31.25 87.5 L 34.375 87.5 L 34.375 90.625 L 31.25 90.625 Z M 31.25 87.5 "/>
<path style=" stroke:none;fill-rule:nonzero;fill:rgb(0%,0%,0%);fill-opacity:1;" d="M 37.5 87.5 L 40.625 87.5 L 40.625 90.625 L 37.5 90.625 Z M 37.5 87.5 "/>
<path style=" stroke:none;fill-rule:nonzero;fill:rgb(0%,0%,0%);fill-opacity:1;" d="M 82.8125 56.25 L 54.6875 56.25 C 54.25 56.25 53.832031 56.429688 53.535156 56.753906 C 53.238281 57.074219 53.089844 57.503906 53.125 57.941406 L 56.25 95.441406 C 56.316406 96.253906 56.996094 96.878906 57.8125 96.875 L 79.6875 96.875 C 80.503906 96.878906 81.183594 96.253906 81.25 95.441406 L 84.375 57.941406 C 84.410156 57.503906 84.261719 57.074219 83.964844 56.753906 C 83.667969 56.429688 83.25 56.25 82.8125 56.25 Z M 78.25 93.75 L 59.25 93.75 L 56.980469 66.503906 C 58.238281 66.988281 59.582031 67.21875 60.929688 67.1875 C 62.472656 67.21875 64.003906 66.914062 65.414062 66.296875 C 67.542969 65.402344 69.941406 65.402344 72.070312 66.296875 C 73.484375 66.917969 75.019531 67.222656 76.5625 67.1875 C 77.914062 67.21875 79.261719 66.988281 80.523438 66.503906 Z M 80.808594 63.046875 C 80.476562 63.164062 80.175781 63.28125 79.894531 63.390625 C 77.761719 64.285156 75.363281 64.285156 73.230469 63.390625 C 70.355469 62.203125 67.128906 62.203125 64.257812 63.390625 C 62.125 64.285156 59.726562 64.285156 57.597656 63.390625 C 57.320312 63.28125 57.023438 63.164062 56.691406 63.050781 L 56.386719 59.375 L 81.113281 59.375 Z M 80.808594 63.046875 "/>
<path style=" stroke:none;fill-rule:nonzero;fill:rgb(0%,0%,0%);fill-opacity:1;" d="M 71.875 73.4375 L 75 73.4375 L 75 76.5625 L 71.875 76.5625 Z M 71.875 73.4375 "/>
<path style=" stroke:none;fill-rule:nonzero;fill:rgb(0%,0%,0%);fill-opacity:1;" d="M 64.0625 81.25 L 67.1875 81.25 L 67.1875 84.375 L 64.0625 84.375 Z M 64.0625 81.25 "/>
</g>
</svg>
