<?xml version="1.0" encoding="UTF-8"?>
<svg xmlns="http://www.w3.org/2000/svg" xmlns:xlink="http://www.w3.org/1999/xlink" width="100pt" height="100pt" viewBox="0 0 100 100" version="1.1">
<g id="surface1">
<path style=" stroke:none;fill-rule:nonzero;fill:rgb(38.431373%,23.137255%,15.686275%);fill-opacity:1;" d="M 88.164062 50.125 C 79.328125 63.894531 64.9375 70.925781 53.6875 67.832031 C 51.871094 67.335938 50.140625 66.566406 48.554688 65.550781 C 48.273438 65.371094 48 65.183594 47.734375 64.988281 C 36.890625 57.179688 36.078125 38.710938 46.085938 23.117188 C 55.851562 7.898438 72.398438 0.910156 83.992188 6.726562 C 85.847656 7.65625 87.53125 8.890625 88.972656 10.375 C 97.414062 19.066406 97.347656 35.808594 88.164062 50.121094 Z M 88.164062 50.125 "/>
<path style=" stroke:none;fill-rule:nonzero;fill:rgb(52.156863%,31.372549%,21.568627%);fill-opacity:1;" d="M 88.972656 10.375 L 86.027344 13.253906 C 79.222656 19.894531 74.6875 28.511719 73.058594 37.878906 C 71.121094 49.023438 65.082031 59.039062 56.125 65.949219 L 53.6875 67.832031 C 51.871094 67.335938 50.140625 66.566406 48.558594 65.550781 C 48.273438 65.371094 48 65.183594 47.734375 64.988281 L 50.863281 62.574219 C 59.820312 55.664062 65.863281 45.648438 67.796875 34.503906 C 69.425781 25.136719 73.964844 16.519531 80.765625 9.878906 L 83.992188 6.726562 C 85.847656 7.65625 87.53125 8.890625 88.972656 10.375 Z M 88.972656 10.375 "/>
<path style=" stroke:none;fill-rule:nonzero;fill:rgb(45.490196%,27.45098%,18.823529%);fill-opacity:1;" d="M 42.835938 91.425781 C 41.203125 92.363281 39.4375 93.046875 37.601562 93.453125 C 37.273438 93.523438 36.949219 93.585938 36.625 93.640625 C 23.433594 95.808594 9.777344 83.351562 5.789062 65.257812 C 1.898438 47.601562 8.625 30.941406 20.925781 26.832031 C 21.542969 26.625 22.171875 26.449219 22.808594 26.3125 C 24.195312 26.003906 25.609375 25.859375 27.027344 25.878906 C 39.144531 26.03125 50.957031 37.890625 54.617188 54.5 C 58.136719 70.480469 52.964844 85.640625 42.835938 91.425781 Z M 42.835938 91.425781 "/>
<path style=" stroke:none;fill-rule:nonzero;fill:rgb(56.078431%,33.72549%,23.137255%);fill-opacity:1;" d="M 43.222656 88.371094 L 42.835938 91.425781 C 41.203125 92.363281 39.4375 93.046875 37.601562 93.453125 C 37.273438 93.523438 36.949219 93.585938 36.625 93.636719 L 37.121094 89.71875 C 37.359375 87.828125 37.480469 85.925781 37.480469 84.023438 C 37.480469 74.667969 34.582031 65.546875 29.179688 57.90625 C 23.691406 50.144531 20.789062 40.851562 20.882812 31.34375 L 20.925781 26.832031 C 21.542969 26.625 22.171875 26.449219 22.808594 26.3125 C 24.195312 26.003906 25.609375 25.859375 27.027344 25.878906 L 26.988281 30 C 26.984375 30.152344 26.984375 30.300781 26.984375 30.453125 C 26.988281 39.804688 29.886719 48.925781 35.285156 56.5625 C 41.816406 65.800781 44.648438 77.148438 43.222656 88.371094 Z M 43.222656 88.371094 "/>
<path style=" stroke:none;fill-rule:nonzero;fill:rgb(45.490196%,27.45098%,18.823529%);fill-opacity:1;" d="M 56.667969 22.601562 C 56.027344 22.601562 55.449219 22.207031 55.214844 21.609375 C 54.980469 21.011719 55.136719 20.332031 55.605469 19.894531 C 56.324219 19.226562 57.078125 18.582031 57.851562 17.972656 C 58.53125 17.441406 59.511719 17.558594 60.046875 18.238281 C 60.578125 18.914062 60.460938 19.898438 59.78125 20.429688 C 59.078125 20.984375 58.390625 21.574219 57.734375 22.183594 C 57.445312 22.453125 57.066406 22.601562 56.667969 22.601562 Z M 56.667969 22.601562 "/>
<path style=" stroke:none;fill-rule:nonzero;fill:rgb(45.490196%,27.45098%,18.823529%);fill-opacity:1;" d="M 49.378906 32.359375 C 48.839844 32.359375 48.335938 32.078125 48.050781 31.621094 C 47.769531 31.160156 47.742188 30.585938 47.980469 30.101562 C 49.074219 27.90625 50.386719 25.832031 51.90625 23.90625 C 52.25 23.460938 52.804688 23.234375 53.363281 23.3125 C 53.921875 23.390625 54.390625 23.765625 54.597656 24.289062 C 54.804688 24.8125 54.714844 25.40625 54.359375 25.84375 C 52.976562 27.597656 51.777344 29.492188 50.78125 31.492188 C 50.515625 32.023438 49.972656 32.359375 49.378906 32.359375 Z M 49.378906 32.359375 "/>
<path style=" stroke:none;fill-rule:nonzero;fill:rgb(54.509804%,32.941176%,22.745098%);fill-opacity:1;" d="M 19.644531 81.257812 C 19.1875 81.257812 18.753906 81.058594 18.457031 80.710938 C 17.820312 79.964844 17.207031 79.183594 16.632812 78.386719 C 16.128906 77.6875 16.285156 76.710938 16.988281 76.207031 C 17.6875 75.703125 18.664062 75.859375 19.167969 76.5625 C 19.691406 77.285156 20.25 78 20.832031 78.679688 C 21.230469 79.144531 21.320312 79.796875 21.066406 80.347656 C 20.808594 80.902344 20.257812 81.257812 19.644531 81.257812 Z M 19.644531 81.257812 "/>
<path style=" stroke:none;fill-rule:nonzero;fill:rgb(54.509804%,32.941176%,22.745098%);fill-opacity:1;" d="M 29.089844 88.949219 C 28.824219 88.949219 28.566406 88.882812 28.335938 88.753906 C 26.191406 87.570312 24.171875 86.171875 22.3125 84.574219 C 21.664062 84.011719 21.59375 83.03125 22.152344 82.378906 C 22.714844 81.726562 23.691406 81.648438 24.347656 82.203125 C 26.042969 83.660156 27.886719 84.9375 29.84375 86.015625 C 30.46875 86.359375 30.78125 87.085938 30.605469 87.773438 C 30.425781 88.464844 29.800781 88.949219 29.089844 88.949219 Z M 29.089844 88.949219 "/>
<path style=" stroke:none;fill-rule:nonzero;fill:rgb(0%,0%,0%);fill-opacity:1;" d="M 33.585938 95.449219 C 34.6875 95.449219 35.789062 95.359375 36.875 95.179688 C 37.222656 95.125 37.582031 95.054688 37.9375 94.976562 C 39.929688 94.535156 41.84375 93.796875 43.613281 92.78125 C 48.898438 89.765625 53.058594 84.253906 55.332031 77.269531 C 56.097656 74.90625 56.636719 72.472656 56.949219 70.007812 C 57.699219 70.078125 58.460938 70.121094 59.226562 70.121094 C 63.882812 70.121094 68.773438 68.773438 73.578125 66.148438 C 79.785156 62.75 85.285156 57.5 89.476562 50.964844 C 98.953125 36.203125 99.210938 18.675781 90.09375 9.289062 C 88.53125 7.675781 86.703125 6.335938 84.695312 5.328125 C 78.648438 2.296875 71.207031 2.390625 63.738281 5.597656 C 56.378906 8.757812 49.644531 14.679688 44.769531 22.273438 C 43.328125 24.519531 42.074219 26.875 41.023438 29.324219 C 36.753906 26.1875 31.960938 24.378906 27.050781 24.316406 C 25.511719 24.296875 23.976562 24.453125 22.472656 24.785156 C 21.785156 24.9375 21.101562 25.125 20.433594 25.351562 C 14.019531 27.496094 8.832031 32.835938 5.835938 40.390625 C 2.878906 47.832031 2.324219 56.785156 4.265625 65.597656 C 8.109375 83.039062 20.59375 95.449219 33.585938 95.449219 Z M 88.890625 12.640625 C 92.042969 16.53125 93.710938 21.960938 93.617188 28.117188 C 93.507812 35.132812 91.105469 42.648438 86.847656 49.28125 C 82.9375 55.375 77.828125 60.261719 72.078125 63.40625 C 67.179688 66.085938 62.039062 67.304688 57.429688 66.914062 C 66.511719 59.777344 72.628906 49.527344 74.597656 38.144531 C 76.171875 29.101562 80.550781 20.785156 87.117188 14.371094 Z M 81.855469 10.996094 L 84.261719 8.648438 C 84.457031 8.765625 84.652344 8.882812 84.847656 9.007812 C 85.5 9.425781 86.125 9.890625 86.714844 10.398438 L 84.933594 12.136719 C 77.898438 19.007812 73.203125 27.921875 71.519531 37.613281 C 69.816406 47.453125 64.785156 56.414062 57.265625 62.988281 C 57.226562 61.722656 57.128906 60.449219 56.984375 59.171875 C 63.441406 52.453125 67.746094 43.953125 69.339844 34.769531 C 70.890625 25.722656 75.273438 17.398438 81.855469 10.996094 Z M 47.398438 23.964844 C 56.042969 10.492188 70.457031 3.535156 81.21875 7.25 L 79.675781 8.761719 C 72.621094 15.621094 67.925781 24.539062 66.257812 34.238281 C 64.914062 41.992188 61.496094 49.238281 56.363281 55.207031 C 56.292969 54.859375 56.222656 54.511719 56.144531 54.164062 C 54.074219 44.765625 49.453125 36.742188 43.542969 31.390625 C 44.597656 28.800781 45.886719 26.3125 47.398438 23.964844 Z M 28.550781 30.011719 L 28.578125 27.53125 C 33.558594 28.046875 38.582031 30.695312 42.875 35.109375 C 47.769531 40.136719 51.398438 47.144531 53.09375 54.839844 C 54.722656 62.226562 54.460938 69.851562 52.363281 76.304688 C 50.753906 81.242188 48.132812 85.328125 44.828125 88.125 C 46.183594 76.65625 43.238281 65.085938 36.5625 55.660156 C 31.335938 48.296875 28.535156 39.484375 28.546875 30.453125 C 28.546875 30.308594 28.546875 30.164062 28.550781 30.011719 Z M 22.449219 31.359375 L 22.480469 28 C 22.699219 27.941406 22.921875 27.886719 23.144531 27.835938 C 23.90625 27.671875 24.675781 27.554688 25.453125 27.496094 L 25.425781 29.980469 C 25.425781 30.136719 25.425781 30.292969 25.425781 30.453125 C 25.410156 40.132812 28.410156 49.574219 34.011719 57.464844 C 40.324219 66.378906 43.058594 77.339844 41.675781 88.175781 L 41.390625 90.433594 C 40.449219 90.917969 39.46875 91.316406 38.457031 91.617188 L 38.671875 89.914062 C 38.917969 87.960938 39.042969 85.992188 39.042969 84.023438 C 39.058594 74.34375 36.058594 64.902344 30.457031 57.007812 C 25.140625 49.519531 22.335938 40.539062 22.445312 31.359375 Z M 19.34375 29.167969 L 19.320312 31.328125 C 19.203125 41.167969 22.210938 50.789062 27.90625 58.8125 C 33.132812 66.175781 35.933594 74.992188 35.917969 84.023438 C 35.917969 85.859375 35.800781 87.699219 35.570312 89.519531 L 35.226562 92.246094 C 29.664062 92.773438 23.878906 90.546875 18.8125 85.898438 C 13.253906 80.796875 9.171875 73.347656 7.316406 64.921875 C 3.871094 49.292969 9.113281 34.171875 19.34375 29.167969 Z M 19.34375 29.167969 "/>
<path style=" stroke:none;fill-rule:nonzero;fill:rgb(0%,0%,0%);fill-opacity:1;" d="M 56.667969 22.601562 C 57.066406 22.601562 57.445312 22.453125 57.734375 22.183594 C 58.390625 21.574219 59.078125 20.984375 59.78125 20.429688 C 60.460938 19.898438 60.578125 18.914062 60.042969 18.238281 C 59.511719 17.558594 58.527344 17.441406 57.851562 17.972656 C 57.078125 18.578125 56.324219 19.226562 55.605469 19.894531 C 55.132812 20.332031 54.980469 21.011719 55.214844 21.609375 C 55.449219 22.207031 56.027344 22.601562 56.667969 22.601562 Z M 56.667969 22.601562 "/>
<path style=" stroke:none;fill-rule:nonzero;fill:rgb(0%,0%,0%);fill-opacity:1;" d="M 48.6875 32.195312 C 49.054688 32.382812 49.484375 32.410156 49.878906 32.277344 C 50.269531 32.148438 50.597656 31.863281 50.78125 31.492188 C 51.777344 29.492188 52.976562 27.597656 54.359375 25.84375 C 54.714844 25.40625 54.804688 24.8125 54.597656 24.289062 C 54.390625 23.765625 53.921875 23.390625 53.363281 23.3125 C 52.804688 23.234375 52.25 23.460938 51.90625 23.90625 C 50.386719 25.832031 49.074219 27.90625 47.980469 30.101562 C 47.597656 30.875 47.914062 31.8125 48.683594 32.195312 Z M 48.6875 32.195312 "/>
<path style=" stroke:none;fill-rule:nonzero;fill:rgb(0%,0%,0%);fill-opacity:1;" d="M 18.457031 80.710938 C 19.019531 81.367188 20.003906 81.445312 20.660156 80.882812 C 21.316406 80.324219 21.394531 79.335938 20.832031 78.679688 C 20.25 78 19.691406 77.285156 19.167969 76.5625 C 18.664062 75.859375 17.6875 75.703125 16.984375 76.207031 C 16.285156 76.710938 16.128906 77.6875 16.632812 78.386719 C 17.207031 79.183594 17.820312 79.964844 18.457031 80.710938 Z M 18.457031 80.710938 "/>
<path style=" stroke:none;fill-rule:nonzero;fill:rgb(0%,0%,0%);fill-opacity:1;" d="M 22.3125 84.574219 C 24.171875 86.171875 26.191406 87.574219 28.335938 88.753906 C 28.824219 89.027344 29.421875 89.015625 29.902344 88.726562 C 30.378906 88.4375 30.667969 87.914062 30.65625 87.355469 C 30.644531 86.796875 30.335938 86.285156 29.84375 86.015625 C 27.886719 84.9375 26.042969 83.660156 24.347656 82.203125 C 23.691406 81.652344 22.714844 81.730469 22.152344 82.378906 C 21.59375 83.03125 21.664062 84.011719 22.3125 84.574219 Z M 22.3125 84.574219 "/>
</g>
</svg>
