<?xml version="1.0" encoding="UTF-8"?>
<svg xmlns="http://www.w3.org/2000/svg" xmlns:xlink="http://www.w3.org/1999/xlink" width="100pt" height="100pt" viewBox="0 0 100 100" version="1.1">
<g id="surface1">
<path style=" stroke:none;fill-rule:nonzero;fill:rgb(90.196078%,10.196078%,15.294118%);fill-opacity:1;" d="M 89.0625 9.375 L 79.6875 9.375 L 79.6875 7.8125 C 79.6875 5.222656 77.589844 3.125 75 3.125 C 72.410156 3.125 70.3125 5.222656 70.3125 7.8125 L 70.3125 9.375 L 54.6875 9.375 L 54.6875 7.8125 C 54.6875 5.222656 52.589844 3.125 50 3.125 C 47.410156 3.125 45.3125 5.222656 45.3125 7.8125 L 45.3125 9.375 L 29.6875 9.375 L 29.6875 7.8125 C 29.6875 5.222656 27.589844 3.125 25 3.125 C 22.410156 3.125 20.3125 5.222656 20.3125 7.8125 L 20.3125 9.375 L 10.9375 9.375 C 6.625 9.378906 3.128906 12.875 3.125 17.1875 L 3.125 89.0625 C 3.128906 93.375 6.625 96.871094 10.9375 96.875 L 89.0625 96.875 C 93.375 96.871094 96.871094 93.375 96.875 89.0625 L 96.875 17.1875 C 96.871094 12.875 93.375 9.378906 89.0625 9.375 Z M 73.4375 7.8125 C 73.4375 6.949219 74.136719 6.25 75 6.25 C 75.863281 6.25 76.5625 6.949219 76.5625 7.8125 L 76.5625 17.1875 C 76.5625 18.050781 75.863281 18.75 75 18.75 C 74.136719 18.75 73.4375 18.050781 73.4375 17.1875 Z M 48.4375 7.8125 C 48.4375 6.949219 49.136719 6.25 50 6.25 C 50.863281 6.25 51.5625 6.949219 51.5625 7.8125 L 51.5625 17.1875 C 51.5625 18.050781 50.863281 18.75 50 18.75 C 49.136719 18.75 48.4375 18.050781 48.4375 17.1875 Z M 23.4375 7.8125 C 23.4375 6.949219 24.136719 6.25 25 6.25 C 25.863281 6.25 26.5625 6.949219 26.5625 7.8125 L 26.5625 17.1875 C 26.5625 18.050781 25.863281 18.75 25 18.75 C 24.136719 18.75 23.4375 18.050781 23.4375 17.1875 Z M 10.9375 12.5 L 20.3125 12.5 L 20.3125 17.1875 C 20.3125 19.777344 22.410156 21.875 25 21.875 C 27.589844 21.875 29.6875 19.777344 29.6875 17.1875 L 29.6875 12.5 L 45.3125 12.5 L 45.3125 17.1875 C 45.3125 19.777344 47.410156 21.875 50 21.875 C 52.589844 21.875 54.6875 19.777344 54.6875 17.1875 L 54.6875 12.5 L 70.3125 12.5 L 70.3125 17.1875 C 70.3125 19.777344 72.410156 21.875 75 21.875 C 77.589844 21.875 79.6875 19.777344 79.6875 17.1875 L 79.6875 12.5 L 89.0625 12.5 C 91.648438 12.503906 93.746094 14.601562 93.75 17.1875 L 93.75 28.125 L 6.25 28.125 L 6.25 17.1875 C 6.253906 14.601562 8.351562 12.503906 10.9375 12.5 Z M 89.0625 93.75 L 10.9375 93.75 C 8.351562 93.746094 6.253906 91.648438 6.25 89.0625 L 6.25 31.25 L 93.75 31.25 L 93.75 89.0625 C 93.746094 91.648438 91.648438 93.746094 89.0625 93.75 Z M 89.0625 93.75 "/>
<path style=" stroke:none;fill-rule:nonzero;fill:rgb(90.196078%,10.196078%,15.294118%);fill-opacity:1;" d="M 85.9375 42.1875 L 79.6875 42.1875 C 78.824219 42.1875 78.125 42.886719 78.125 43.75 L 78.125 50 C 78.125 50.863281 78.824219 51.5625 79.6875 51.5625 L 85.9375 51.5625 C 86.800781 51.5625 87.5 50.863281 87.5 50 L 87.5 43.75 C 87.5 42.886719 86.800781 42.1875 85.9375 42.1875 Z M 84.375 48.4375 L 81.25 48.4375 L 81.25 45.3125 L 84.375 45.3125 Z M 84.375 48.4375 "/>
<path style=" stroke:none;fill-rule:nonzero;fill:rgb(90.196078%,10.196078%,15.294118%);fill-opacity:1;" d="M 54.6875 73.4375 L 48.4375 73.4375 C 47.574219 73.4375 46.875 74.136719 46.875 75 L 46.875 81.25 C 46.875 82.113281 47.574219 82.8125 48.4375 82.8125 L 54.6875 82.8125 C 55.550781 82.8125 56.25 82.113281 56.25 81.25 L 56.25 75 C 56.25 74.136719 55.550781 73.4375 54.6875 73.4375 Z M 53.125 79.6875 L 50 79.6875 L 50 76.5625 L 53.125 76.5625 Z M 53.125 79.6875 "/>
<path style=" stroke:none;fill-rule:nonzero;fill:rgb(90.196078%,10.196078%,15.294118%);fill-opacity:1;" d="M 39.0625 42.1875 L 32.8125 42.1875 C 31.949219 42.1875 31.25 42.886719 31.25 43.75 L 31.25 50 C 31.25 50.863281 31.949219 51.5625 32.8125 51.5625 L 39.0625 51.5625 C 39.925781 51.5625 40.625 50.863281 40.625 50 L 40.625 43.75 C 40.625 42.886719 39.925781 42.1875 39.0625 42.1875 Z M 37.5 48.4375 L 34.375 48.4375 L 34.375 45.3125 L 37.5 45.3125 Z M 37.5 48.4375 "/>
<path style=" stroke:none;fill-rule:nonzero;fill:rgb(90.196078%,10.196078%,15.294118%);fill-opacity:1;" d="M 23.4375 57.8125 L 17.1875 57.8125 C 16.324219 57.8125 15.625 58.511719 15.625 59.375 L 15.625 65.625 C 15.625 66.488281 16.324219 67.1875 17.1875 67.1875 L 23.4375 67.1875 C 24.300781 67.1875 25 66.488281 25 65.625 L 25 59.375 C 25 58.511719 24.300781 57.8125 23.4375 57.8125 Z M 21.875 64.0625 L 18.75 64.0625 L 18.75 60.9375 L 21.875 60.9375 Z M 21.875 64.0625 "/>
<path style=" stroke:none;fill-rule:nonzero;fill:rgb(90.196078%,10.196078%,15.294118%);fill-opacity:1;" d="M 39.0625 57.8125 L 32.8125 57.8125 C 31.949219 57.8125 31.25 58.511719 31.25 59.375 L 31.25 65.625 C 31.25 66.488281 31.949219 67.1875 32.8125 67.1875 L 39.0625 67.1875 C 39.925781 67.1875 40.625 66.488281 40.625 65.625 L 40.625 59.375 C 40.625 58.511719 39.925781 57.8125 39.0625 57.8125 Z M 37.5 64.0625 L 34.375 64.0625 L 34.375 60.9375 L 37.5 60.9375 Z M 37.5 64.0625 "/>
<path style=" stroke:none;fill-rule:nonzero;fill:rgb(90.196078%,10.196078%,15.294118%);fill-opacity:1;" d="M 23.4375 73.4375 L 17.1875 73.4375 C 16.324219 73.4375 15.625 74.136719 15.625 75 L 15.625 81.25 C 15.625 82.113281 16.324219 82.8125 17.1875 82.8125 L 23.4375 82.8125 C 24.300781 82.8125 25 82.113281 25 81.25 L 25 75 C 25 74.136719 24.300781 73.4375 23.4375 73.4375 Z M 21.875 79.6875 L 18.75 79.6875 L 18.75 76.5625 L 21.875 76.5625 Z M 21.875 79.6875 "/>
<path style=" stroke:none;fill-rule:nonzero;fill:rgb(90.196078%,10.196078%,15.294118%);fill-opacity:1;" d="M 39.0625 73.4375 L 32.8125 73.4375 C 31.949219 73.4375 31.25 74.136719 31.25 75 L 31.25 81.25 C 31.25 82.113281 31.949219 82.8125 32.8125 82.8125 L 39.0625 82.8125 C 39.925781 82.8125 40.625 82.113281 40.625 81.25 L 40.625 75 C 40.625 74.136719 39.925781 73.4375 39.0625 73.4375 Z M 37.5 79.6875 L 34.375 79.6875 L 34.375 76.5625 L 37.5 76.5625 Z M 37.5 79.6875 "/>
<path style=" stroke:none;fill-rule:nonzero;fill:rgb(90.196078%,10.196078%,15.294118%);fill-opacity:1;" d="M 72.109375 48.628906 L 64.296875 47.4375 L 60.789062 39.960938 C 60.53125 39.414062 59.980469 39.0625 59.375 39.0625 C 58.769531 39.0625 58.21875 39.414062 57.960938 39.960938 L 54.453125 47.4375 L 46.640625 48.628906 C 46.0625 48.71875 45.578125 49.121094 45.394531 49.679688 C 45.207031 50.234375 45.347656 50.847656 45.757812 51.265625 L 51.457031 57.109375 L 50.109375 65.375 C 50.015625 65.964844 50.265625 66.554688 50.753906 66.898438 C 51.242188 67.246094 51.882812 67.28125 52.40625 66.992188 L 59.375 63.140625 L 66.34375 66.992188 C 66.867188 67.28125 67.511719 67.246094 68 66.902344 C 68.488281 66.558594 68.738281 65.964844 68.644531 65.375 L 67.296875 57.105469 L 72.996094 51.265625 C 73.402344 50.847656 73.542969 50.234375 73.359375 49.675781 C 73.171875 49.121094 72.691406 48.714844 72.113281 48.628906 Z M 64.507812 55.488281 C 64.160156 55.84375 64.003906 56.339844 64.082031 56.832031 L 65.039062 62.699219 L 60.128906 59.984375 C 59.660156 59.726562 59.089844 59.726562 58.617188 59.984375 L 53.710938 62.699219 L 54.667969 56.832031 C 54.746094 56.339844 54.589844 55.84375 54.242188 55.488281 L 50.117188 51.257812 L 55.75 50.398438 C 56.261719 50.320312 56.707031 49.992188 56.925781 49.519531 L 59.375 44.300781 L 61.824219 49.519531 C 62.042969 49.988281 62.488281 50.320312 63 50.398438 L 68.632812 51.257812 Z M 64.507812 55.488281 "/>
<path style=" stroke:none;fill-rule:nonzero;fill:rgb(90.196078%,10.196078%,15.294118%);fill-opacity:1;" d="M 85.9375 57.8125 L 79.6875 57.8125 C 78.824219 57.8125 78.125 58.511719 78.125 59.375 L 78.125 65.625 C 78.125 66.488281 78.824219 67.1875 79.6875 67.1875 L 85.9375 67.1875 C 86.800781 67.1875 87.5 66.488281 87.5 65.625 L 87.5 59.375 C 87.5 58.511719 86.800781 57.8125 85.9375 57.8125 Z M 84.375 64.0625 L 81.25 64.0625 L 81.25 60.9375 L 84.375 60.9375 Z M 84.375 64.0625 "/>
<path style=" stroke:none;fill-rule:nonzero;fill:rgb(90.196078%,10.196078%,15.294118%);fill-opacity:1;" d="M 85.9375 73.4375 L 79.6875 73.4375 C 78.824219 73.4375 78.125 74.136719 78.125 75 L 78.125 81.25 C 78.125 82.113281 78.824219 82.8125 79.6875 82.8125 L 85.9375 82.8125 C 86.800781 82.8125 87.5 82.113281 87.5 81.25 L 87.5 75 C 87.5 74.136719 86.800781 73.4375 85.9375 73.4375 Z M 84.375 79.6875 L 81.25 79.6875 L 81.25 76.5625 L 84.375 76.5625 Z M 84.375 79.6875 "/>
<path style=" stroke:none;fill-rule:nonzero;fill:rgb(90.196078%,10.196078%,15.294118%);fill-opacity:1;" d="M 70.3125 73.4375 L 64.0625 73.4375 C 63.199219 73.4375 62.5 74.136719 62.5 75 L 62.5 81.25 C 62.5 82.113281 63.199219 82.8125 64.0625 82.8125 L 70.3125 82.8125 C 71.175781 82.8125 71.875 82.113281 71.875 81.25 L 71.875 75 C 71.875 74.136719 71.175781 73.4375 70.3125 73.4375 Z M 68.75 79.6875 L 65.625 79.6875 L 65.625 76.5625 L 68.75 76.5625 Z M 68.75 79.6875 "/>
</g>
</svg>
