<?xml version="1.0" encoding="UTF-8"?>
<svg xmlns="http://www.w3.org/2000/svg" xmlns:xlink="http://www.w3.org/1999/xlink" width="100pt" height="100pt" viewBox="0 0 100 100" version="1.1">
<g id="surface1">
<path style=" stroke:none;fill-rule:nonzero;fill:rgb(90.196078%,10.196078%,15.294118%);fill-opacity:1;" d="M 99.832031 46.300781 C 99.890625 46.144531 99.925781 45.980469 99.929688 45.8125 C 99.929688 45.636719 99.902344 45.460938 99.847656 45.296875 L 99.71875 44.929688 C 98.355469 31.765625 91.820312 19.679688 81.546875 11.332031 C 80.8125 10.734375 80.046875 10.195312 79.277344 9.640625 C 79.242188 9.609375 79.21875 9.5625 79.179688 9.535156 C 79.136719 9.503906 79.105469 9.507812 79.070312 9.484375 C 70.574219 3.394531 60.390625 0.113281 49.941406 0.09375 C 49.511719 0.09375 49.078125 0.09375 48.757812 0.128906 C 43.183594 0.234375 37.667969 1.296875 32.449219 3.265625 C 27.929688 -0.265625 21.789062 -0.902344 16.636719 1.617188 C 11.480469 4.136719 8.21875 9.375 8.226562 15.113281 C 8.324219 17.019531 8.769531 18.894531 9.535156 20.644531 C 7.832031 22.96875 6.332031 25.441406 5.054688 28.023438 C 5.03125 28.066406 5.015625 28.109375 4.992188 28.148438 C -6.835938 52.609375 3.007812 82.042969 27.171875 94.464844 C 51.339844 106.890625 81.003906 97.765625 94.011719 73.90625 C 97.570312 67.34375 99.597656 60.058594 99.929688 52.597656 C 99.980469 51.792969 100 50.972656 100 50.152344 C 100 48.859375 99.933594 47.578125 99.832031 46.300781 Z M 94.984375 37.738281 C 94.773438 37.550781 94.578125 37.332031 94.355469 37.160156 C 92.175781 35.503906 89.703125 34.269531 87.070312 33.519531 C 84.671875 32.917969 82.164062 32.890625 79.753906 33.441406 C 77.703125 33.90625 75.574219 33.917969 73.519531 33.472656 C 69.53125 32.601562 66.378906 31.917969 64.707031 29.246094 C 62.3125 25.410156 63.433594 20.015625 65.960938 18.117188 C 66.792969 17.539062 67.820312 17.320312 68.816406 17.507812 C 70.585938 17.652344 72.363281 17.351562 73.988281 16.636719 C 75.71875 15.824219 77.253906 14.65625 78.496094 13.203125 C 78.808594 13.449219 79.144531 13.667969 79.453125 13.917969 C 86.984375 20.046875 92.410156 28.375 94.984375 37.738281 Z M 23.242188 3.429688 C 29.691406 3.441406 34.914062 8.664062 34.921875 15.113281 C 34.921875 20.101562 27.425781 31.53125 23.242188 37.324219 C 19.277344 31.960938 15.828125 26.234375 12.949219 20.21875 C 12.164062 18.621094 11.695312 16.886719 11.5625 15.113281 C 11.570312 8.664062 16.796875 3.4375 23.242188 3.429688 Z M 3.21875 50.152344 C 3.226562 47.042969 3.539062 43.941406 4.15625 40.894531 C 4.335938 43.214844 4.636719 45.277344 4.90625 47.066406 C 5.941406 53.910156 6.917969 60.359375 11.960938 66.257812 C 14.070312 68.742188 17.601562 72.894531 23.058594 73.511719 C 28.519531 74.125 35.355469 70.984375 37.332031 70.003906 L 38.089844 69.625 C 39.136719 68.960938 40.335938 68.578125 41.574219 68.507812 C 43.6875 68.699219 45.640625 69.699219 47.035156 71.296875 C 49.882812 74.449219 50.605469 79.710938 48.582031 82.558594 C 47.933594 83.402344 47.039062 84.027344 46.019531 84.339844 C 44.273438 84.921875 42.789062 86.105469 41.832031 87.675781 C 40.421875 90.230469 40.160156 93.261719 41.113281 96.019531 C 19.136719 91.761719 3.253906 72.535156 3.21875 50.152344 Z M 49.941406 96.875 C 48.328125 96.875 46.71875 96.789062 45.113281 96.625 C 44.976562 96.449219 44.851562 96.265625 44.734375 96.078125 C 43.605469 93.992188 43.59375 91.480469 44.703125 89.382812 C 45.304688 88.425781 46.238281 87.726562 47.320312 87.414062 C 48.914062 86.863281 50.300781 85.84375 51.300781 84.492188 C 54.203125 80.410156 53.382812 73.339844 49.515625 69.0625 C 47.503906 66.761719 44.660156 65.363281 41.613281 65.171875 L 41.539062 65.171875 C 39.78125 65.222656 38.066406 65.734375 36.566406 66.648438 L 35.855469 67.011719 C 32.207031 68.808594 27.019531 70.585938 23.429688 70.179688 C 19.285156 69.71875 16.410156 66.324219 14.5 64.082031 C 10.074219 58.90625 9.207031 53.183594 8.207031 46.558594 C 7.132812 40.894531 7.089844 35.082031 8.082031 29.398438 C 8.972656 27.589844 9.984375 25.839844 11.105469 24.160156 C 11.160156 24.269531 11.222656 24.382812 11.269531 24.492188 C 11.378906 24.703125 11.488281 24.914062 11.605469 25.125 C 11.773438 25.441406 11.9375 25.757812 12.105469 26.074219 C 12.21875 26.289062 12.335938 26.5 12.457031 26.714844 C 12.632812 27.035156 12.8125 27.351562 12.992188 27.667969 C 13.113281 27.878906 13.230469 28.089844 13.355469 28.300781 C 13.539062 28.617188 13.726562 28.929688 13.914062 29.246094 C 14.035156 29.453125 14.15625 29.660156 14.28125 29.863281 C 14.480469 30.199219 14.679688 30.507812 14.878906 30.832031 C 14.992188 31.015625 15.101562 31.199219 15.210938 31.378906 C 15.457031 31.773438 15.703125 32.160156 15.949219 32.546875 C 16.011719 32.648438 16.078125 32.753906 16.140625 32.851562 C 16.449219 33.324219 16.75 33.785156 17.046875 34.238281 C 17.160156 34.402344 17.269531 34.570312 17.382812 34.738281 C 17.566406 35.011719 17.75 35.289062 17.925781 35.550781 L 18.324219 36.132812 C 18.464844 36.34375 18.613281 36.554688 18.75 36.757812 L 19.152344 37.332031 C 19.277344 37.511719 19.398438 37.6875 19.515625 37.855469 C 19.636719 38.023438 19.769531 38.214844 19.894531 38.386719 C 20.015625 38.558594 20.101562 38.675781 20.199219 38.816406 L 20.53125 39.277344 L 20.804688 39.652344 L 21.070312 40.019531 L 21.285156 40.3125 L 21.488281 40.589844 L 21.613281 40.757812 C 21.761719 40.957031 21.875 41.109375 21.90625 41.152344 C 22.21875 41.570312 22.714844 41.820312 23.238281 41.820312 C 23.765625 41.820312 24.261719 41.570312 24.574219 41.152344 C 25.976562 39.296875 38.261719 22.824219 38.261719 15.113281 C 38.261719 14.625 38.230469 14.140625 38.183594 13.660156 C 38.167969 13.511719 38.144531 13.363281 38.128906 13.214844 C 38.085938 12.878906 38.03125 12.546875 37.960938 12.214844 C 37.929688 12.046875 37.894531 11.890625 37.859375 11.730469 C 37.78125 11.394531 37.691406 11.0625 37.589844 10.726562 C 37.546875 10.59375 37.511719 10.460938 37.46875 10.328125 C 37.316406 9.878906 37.148438 9.4375 36.957031 9.007812 C 36.921875 8.925781 36.878906 8.839844 36.839844 8.765625 C 36.671875 8.417969 36.507812 8.074219 36.3125 7.738281 C 36.230469 7.589844 36.136719 7.445312 36.050781 7.296875 C 35.886719 7.035156 35.722656 6.773438 35.546875 6.519531 C 35.445312 6.371094 35.339844 6.222656 35.230469 6.078125 C 35.171875 6.003906 35.125 5.925781 35.0625 5.855469 C 38.535156 4.683594 42.136719 3.9375 45.785156 3.632812 C 43.183594 8.542969 42.335938 13.085938 43.308594 17.148438 C 44.03125 19.867188 45.40625 22.375 47.3125 24.449219 C 48.882812 26.390625 50.011719 27.792969 49.941406 30.082031 C 49.796875 34.917969 44.332031 38.949219 42.265625 40.46875 C 39.554688 42.421875 36.519531 43.886719 33.304688 44.796875 C 30.273438 45.789062 27.660156 46.640625 26.660156 49.625 C 25.671875 53.566406 27.296875 57.699219 30.699219 59.914062 C 32.742188 61.015625 35.148438 61.230469 37.351562 60.5 C 39.761719 59.941406 42.257812 59.820312 44.714844 60.148438 C 47.882812 60.597656 50.617188 60.984375 51.914062 62.800781 C 52.683594 63.882812 52.644531 65.003906 52.492188 67.0625 C 52.152344 69.972656 52.445312 72.921875 53.359375 75.707031 C 54.121094 77.992188 55.269531 81.4375 58.03125 81.835938 C 58.210938 81.863281 58.390625 81.878906 58.574219 81.878906 C 60.527344 81.878906 61.722656 80.152344 62.980469 78.339844 C 63.535156 77.535156 64.148438 76.671875 64.882812 75.800781 C 68.316406 81.347656 71.808594 85.980469 71.96875 86.199219 C 72.285156 86.621094 72.777344 86.867188 73.304688 86.867188 C 73.828125 86.867188 74.324219 86.621094 74.640625 86.199219 C 78.257812 81.351562 81.558594 76.269531 84.515625 70.992188 C 86.566406 71.585938 88.515625 72.476562 90.308594 73.632812 C 81.960938 88.027344 66.578125 96.882812 49.941406 96.875 Z M 81.085938 51.464844 C 83.566406 53.675781 84.984375 56.839844 84.980469 60.164062 C 84.980469 61.363281 84.496094 63.742188 82.179688 68.261719 C 79.539062 73.15625 76.574219 77.871094 73.300781 82.367188 C 71.730469 80.179688 69.03125 76.296875 66.613281 72.214844 C 65.265625 69.980469 64.0625 67.660156 63.007812 65.269531 C 62.222656 63.671875 61.753906 61.9375 61.621094 60.164062 C 61.628906 53.714844 66.855469 48.492188 73.300781 48.484375 C 73.664062 48.484375 74.019531 48.5 74.375 48.53125 C 76.871094 48.757812 79.226562 49.789062 81.085938 51.464844 Z M 96.605469 52.425781 C 96.316406 58.773438 94.71875 64.992188 91.90625 70.691406 C 90.078125 69.535156 88.105469 68.617188 86.046875 67.960938 C 87.335938 65.546875 88.109375 62.890625 88.320312 60.164062 C 88.304688 54.4375 85.050781 49.214844 79.914062 46.679688 L 79.808594 46.632812 C 79.4375 46.453125 79.058594 46.28125 78.671875 46.132812 C 78.40625 46.027344 78.128906 45.949219 77.855469 45.859375 C 77.691406 45.808594 77.539062 45.746094 77.378906 45.695312 C 76.949219 45.570312 76.511719 45.472656 76.070312 45.390625 L 76.046875 45.390625 C 75.78125 45.339844 75.511719 45.3125 75.242188 45.277344 C 70.949219 44.683594 66.613281 45.984375 63.359375 48.84375 C 60.101562 51.703125 58.25 55.832031 58.285156 60.164062 C 58.414062 62.386719 58.976562 64.566406 59.9375 66.578125 C 60.871094 68.707031 61.925781 70.78125 63.097656 72.792969 C 62.054688 73.933594 61.097656 75.152344 60.238281 76.4375 C 59.78125 77.222656 59.203125 77.929688 58.523438 78.539062 C 58.1875 78.488281 57.570312 77.773438 56.519531 74.652344 C 55.753906 72.28125 55.515625 69.773438 55.816406 67.300781 C 56.25 65.082031 55.824219 62.78125 54.625 60.863281 C 52.496094 57.882812 48.777344 57.355469 45.15625 56.84375 C 42.34375 56.460938 39.484375 56.589844 36.71875 57.222656 C 34.582031 57.632812 33.59375 57.785156 32.460938 57.078125 C 30.390625 55.65625 29.355469 53.148438 29.824219 50.679688 C 30.269531 49.347656 31.605469 48.863281 34.328125 47.96875 C 37.886719 46.949219 41.238281 45.320312 44.242188 43.152344 C 46.671875 41.371094 53.085938 36.636719 53.277344 30.179688 C 53.386719 26.648438 51.617188 24.46875 49.910156 22.359375 C 48.332031 20.667969 47.183594 18.621094 46.558594 16.394531 C 45.671875 12.675781 46.769531 8.316406 49.75 3.429688 L 49.941406 3.429688 C 59.128906 3.445312 68.109375 6.160156 75.761719 11.238281 C 74.878906 12.222656 73.808594 13.023438 72.613281 13.59375 C 71.449219 14.09375 70.179688 14.292969 68.917969 14.171875 C 67.160156 13.953125 65.390625 14.410156 63.957031 15.445312 C 60.171875 18.292969 58.476562 25.558594 61.878906 31.011719 C 64.300781 34.878906 68.433594 35.777344 72.949219 36.761719 C 75.378906 37.277344 77.890625 37.265625 80.320312 36.730469 C 82.265625 36.265625 84.296875 36.273438 86.242188 36.75 C 88.429688 37.382812 90.480469 38.410156 92.296875 39.78125 C 94.183594 41.347656 95.617188 43.390625 96.441406 45.699219 C 96.578125 47.171875 96.664062 48.652344 96.664062 50.152344 C 96.664062 50.898438 96.648438 51.652344 96.597656 52.425781 Z M 96.605469 52.425781 "/>
<path style=" stroke:none;fill-rule:nonzero;fill:rgb(90.196078%,10.196078%,15.294118%);fill-opacity:1;" d="M 23.242188 20.117188 C 26.929688 20.117188 29.917969 17.128906 29.917969 13.441406 C 29.917969 9.757812 26.929688 6.769531 23.242188 6.769531 C 19.558594 6.769531 16.570312 9.757812 16.570312 13.441406 C 16.570312 17.128906 19.558594 20.117188 23.242188 20.117188 Z M 23.242188 10.105469 C 25.085938 10.105469 26.582031 11.601562 26.582031 13.441406 C 26.582031 15.285156 25.085938 16.78125 23.242188 16.78125 C 21.398438 16.78125 19.90625 15.285156 19.90625 13.441406 C 19.90625 11.601562 21.398438 10.105469 23.242188 10.105469 Z M 23.242188 10.105469 "/>
<path style=" stroke:none;fill-rule:nonzero;fill:rgb(90.196078%,10.196078%,15.294118%);fill-opacity:1;" d="M 66.628906 58.496094 C 66.628906 62.183594 69.617188 65.171875 73.300781 65.171875 C 76.988281 65.171875 79.976562 62.183594 79.976562 58.496094 C 79.976562 54.808594 76.988281 51.820312 73.300781 51.820312 C 69.617188 51.820312 66.628906 54.808594 66.628906 58.496094 Z M 76.640625 58.496094 C 76.640625 60.339844 75.144531 61.832031 73.300781 61.832031 C 71.457031 61.832031 69.964844 60.339844 69.964844 58.496094 C 69.964844 56.652344 71.457031 55.160156 73.300781 55.160156 C 75.144531 55.160156 76.640625 56.652344 76.640625 58.496094 Z M 76.640625 58.496094 "/>
</g>
</svg>
