<?xml version="1.0" encoding="UTF-8"?>
<svg xmlns="http://www.w3.org/2000/svg" xmlns:xlink="http://www.w3.org/1999/xlink" width="50pt" height="50pt" viewBox="0 0 50 50" version="1.1">
<g id="surface1">
<path style=" stroke:none;fill-rule:nonzero;fill:rgb(90.196078%,10.196078%,15.294118%);fill-opacity:1;" d="M 48.953125 21.046875 C 46.296875 11.550781 39.746094 4.65625 33.378906 4.65625 C 32.867188 4.65625 32.355469 4.699219 31.859375 4.789062 C 31.574219 4.839844 31.328125 5.003906 31.175781 5.246094 C 31.023438 5.488281 30.980469 5.78125 31.058594 6.058594 L 32.367188 10.746094 C 32.496094 11.199219 32.933594 11.503906 33.386719 11.484375 L 33.488281 11.484375 C 35.851562 11.484375 40.167969 15.023438 42.367188 22.886719 C 42.457031 23.199219 42.539062 23.519531 42.617188 23.851562 C 40.148438 22.628906 37.199219 22.347656 34.53125 23.089844 C 28.511719 24.773438 24.988281 31.042969 26.667969 37.058594 C 28.035156 41.9375 32.519531 45.34375 37.578125 45.34375 C 38.609375 45.34375 39.636719 45.203125 40.636719 44.921875 C 44.605469 43.8125 47.589844 40.515625 49.042969 35.644531 C 50.351562 31.246094 50.316406 25.929688 48.953125 21.046875 Z M 48.953125 21.046875 "/>
<path style=" stroke:none;fill-rule:nonzero;fill:rgb(90.196078%,10.196078%,15.294118%);fill-opacity:1;" d="M 7.128906 4.65625 C 6.617188 4.65625 6.105469 4.699219 5.609375 4.789062 C 5.328125 4.835938 5.078125 5.003906 4.925781 5.246094 C 4.773438 5.488281 4.730469 5.78125 4.808594 6.058594 L 6.121094 10.746094 C 6.246094 11.199219 6.675781 11.503906 7.136719 11.484375 L 7.238281 11.484375 C 9.601562 11.484375 13.917969 15.023438 16.117188 22.886719 C 16.207031 23.203125 16.289062 23.523438 16.367188 23.851562 C 13.894531 22.628906 10.949219 22.347656 8.28125 23.089844 C 2.265625 24.773438 -1.261719 31.042969 0.421875 37.058594 C 1.785156 41.9375 6.269531 45.34375 11.328125 45.34375 C 12.359375 45.34375 13.390625 45.203125 14.390625 44.921875 C 18.359375 43.8125 21.34375 40.515625 22.792969 35.644531 C 24.101562 31.246094 24.070312 25.925781 22.703125 21.046875 C 20.046875 11.550781 13.496094 4.65625 7.128906 4.65625 Z M 7.128906 4.65625 "/>
</g>
</svg>
