<?xml version="1.0" encoding="UTF-8"?>
<svg xmlns="http://www.w3.org/2000/svg" xmlns:xlink="http://www.w3.org/1999/xlink" width="100pt" height="100pt" viewBox="0 0 100 100" version="1.1">
<g id="surface1">
<path style=" stroke:none;fill-rule:nonzero;fill:rgb(97.254902%,73.72549%,11.764706%);fill-opacity:1;" d="M 89.0625 59.375 C 89.0625 64.0625 86.6875 66.527344 86.6875 72.867188 C 86.6875 79.207031 89.0625 79.6875 89.0625 84.375 C 89.0625 89.0625 87.5 93.75 84.375 93.75 C 81.25 93.75 79.6875 90.625 79.6875 90.625 C 79.6875 90.625 78.125 93.75 75 93.75 C 71.875 93.75 70.3125 90.625 70.3125 90.625 C 70.3125 90.625 68.75 93.75 65.625 93.75 C 65.375 93.75 65.128906 93.71875 64.886719 93.65625 C 62.253906 92.976562 60.9375 88.679688 60.9375 84.375 C 60.9375 79.6875 63.3125 79.207031 63.3125 72.867188 C 63.3125 66.527344 60.9375 64.0625 60.9375 59.375 L 60.9375 37.5 C 60.9375 34.113281 62.382812 31.386719 64.304688 28.132812 C 65.042969 26.882812 65.851562 25.554688 66.679688 24.085938 C 69.65625 18.78125 71.875 10.9375 71.875 10.9375 L 71.875 7.8125 L 78.125 7.8125 L 78.125 10.9375 C 78.125 10.9375 80.34375 18.78125 83.320312 24.085938 C 86.296875 29.390625 89.0625 32.8125 89.0625 37.5 Z M 89.0625 59.375 "/>
<path style=" stroke:none;fill-rule:nonzero;fill:rgb(96.862745%,59.215686%,14.901961%);fill-opacity:1;" d="M 70.3125 4.6875 L 79.6875 4.6875 L 79.6875 10.9375 L 70.3125 10.9375 Z M 70.3125 4.6875 "/>
<path style=" stroke:none;fill-rule:nonzero;fill:rgb(96.078431%,66.27451%,13.333333%);fill-opacity:1;" d="M 66 65.953125 C 65.390625 67.992188 64.808594 69.914062 64.808594 72.867188 C 64.808594 75.675781 65.320312 76.945312 65.910156 78.414062 C 66.507812 79.910156 67.1875 81.605469 67.1875 84.375 C 67.1875 88.242188 66.34375 91.453125 64.886719 93.65625 C 62.253906 92.976562 60.9375 88.679688 60.9375 84.375 C 60.9375 79.6875 63.3125 79.207031 63.3125 72.867188 C 63.3125 66.527344 60.9375 64.0625 60.9375 59.375 L 60.9375 37.5 C 60.9375 34.113281 62.382812 31.386719 64.304688 28.132812 C 65.960938 31.082031 67.1875 33.9375 67.1875 37.5 L 67.1875 59.375 C 67.1875 62 66.585938 64.007812 66 65.953125 Z M 66 65.953125 "/>
<path style=" stroke:none;fill-rule:nonzero;fill:rgb(96.862745%,59.215686%,14.901961%);fill-opacity:1;" d="M 60.9375 37.5 L 89.0625 37.5 L 89.0625 59.375 L 60.9375 59.375 Z M 60.9375 37.5 "/>
<path style=" stroke:none;fill-rule:nonzero;fill:rgb(89.019608%,89.411765%,88.627451%);fill-opacity:1;" d="M 79.6875 48.4375 C 79.6875 51.027344 77.589844 53.125 75 53.125 C 72.410156 53.125 70.3125 51.027344 70.3125 48.4375 C 70.3125 45.847656 72.410156 43.75 75 43.75 C 77.589844 43.75 79.6875 45.847656 79.6875 48.4375 Z M 79.6875 48.4375 "/>
<path style=" stroke:none;fill-rule:nonzero;fill:rgb(90.980392%,45.098039%,17.647059%);fill-opacity:1;" d="M 60.9375 37.5 L 67.1875 37.5 L 67.1875 59.375 L 60.9375 59.375 Z M 60.9375 37.5 "/>
<path style=" stroke:none;fill-rule:nonzero;fill:rgb(52.156863%,73.333333%,25.098039%);fill-opacity:1;" d="M 10.9375 59.375 C 10.9375 64.0625 13.3125 66.527344 13.3125 72.867188 C 13.3125 79.207031 10.9375 79.6875 10.9375 84.375 C 10.9375 89.0625 12.5 93.75 15.625 93.75 C 18.75 93.75 20.3125 90.625 20.3125 90.625 C 20.3125 90.625 21.875 93.75 25 93.75 C 28.125 93.75 29.6875 90.625 29.6875 90.625 C 29.6875 90.625 31.25 93.75 34.375 93.75 C 34.625 93.75 34.871094 93.71875 35.113281 93.65625 C 37.746094 92.976562 39.0625 88.679688 39.0625 84.375 C 39.0625 79.6875 36.6875 79.207031 36.6875 72.867188 C 36.6875 66.527344 39.0625 64.0625 39.0625 59.375 L 39.0625 37.5 C 39.0625 34.113281 37.617188 31.386719 35.695312 28.132812 C 34.957031 26.882812 34.148438 25.554688 33.320312 24.085938 C 30.34375 18.78125 28.125 10.9375 28.125 10.9375 L 28.125 7.8125 L 21.875 7.8125 L 21.875 10.9375 C 21.875 10.9375 19.652344 18.78125 16.675781 24.085938 C 13.699219 29.390625 10.9375 32.8125 10.9375 37.5 Z M 10.9375 59.375 "/>
<path style=" stroke:none;fill-rule:nonzero;fill:rgb(48.235294%,61.960784%,24.313725%);fill-opacity:1;" d="M 29.6875 10.9375 L 20.3125 10.9375 L 20.3125 4.6875 L 29.6875 4.6875 Z M 29.6875 10.9375 "/>
<path style=" stroke:none;fill-rule:nonzero;fill:rgb(52.156863%,69.411765%,25.098039%);fill-opacity:1;" d="M 34 65.953125 C 34.609375 67.992188 35.1875 69.914062 35.1875 72.867188 C 35.1875 75.675781 34.679688 76.945312 34.089844 78.414062 C 33.492188 79.910156 32.8125 81.605469 32.8125 84.375 C 32.8125 88.242188 33.65625 91.453125 35.113281 93.65625 C 37.746094 92.976562 39.0625 88.679688 39.0625 84.375 C 39.0625 79.6875 36.6875 79.207031 36.6875 72.867188 C 36.6875 66.527344 39.0625 64.0625 39.0625 59.375 L 39.0625 37.5 C 39.0625 34.113281 37.617188 31.386719 35.695312 28.132812 C 34.039062 31.082031 32.8125 33.9375 32.8125 37.5 L 32.8125 59.375 C 32.8125 62 33.414062 64.007812 34 65.953125 Z M 34 65.953125 "/>
<path style=" stroke:none;fill-rule:nonzero;fill:rgb(48.235294%,61.960784%,24.313725%);fill-opacity:1;" d="M 10.9375 37.5 L 39.0625 37.5 L 39.0625 59.375 L 10.9375 59.375 Z M 10.9375 37.5 "/>
<path style=" stroke:none;fill-rule:nonzero;fill:rgb(89.019608%,89.411765%,88.627451%);fill-opacity:1;" d="M 29.6875 48.4375 C 29.6875 51.027344 27.589844 53.125 25 53.125 C 22.410156 53.125 20.3125 51.027344 20.3125 48.4375 C 20.3125 45.847656 22.410156 43.75 25 43.75 C 27.589844 43.75 29.6875 45.847656 29.6875 48.4375 Z M 29.6875 48.4375 "/>
<path style=" stroke:none;fill-rule:nonzero;fill:rgb(43.529412%,56.078431%,23.529412%);fill-opacity:1;" d="M 39.0625 59.375 L 32.8125 59.375 L 32.8125 37.5 L 39.0625 37.5 Z M 39.0625 59.375 "/>
<path style=" stroke:none;fill-rule:nonzero;fill:rgb(44.705882%,30.588235%,14.901961%);fill-opacity:1;" d="M 53.125 10.9375 C 53.125 10.9375 55.347656 18.78125 58.320312 24.085938 C 61.296875 29.390625 64.0625 32.8125 64.0625 37.5 L 64.0625 59.375 C 64.0625 64.0625 61.6875 66.527344 61.6875 72.867188 C 61.6875 79.207031 64.0625 79.6875 64.0625 84.375 C 64.0625 89.0625 62.5 93.75 59.375 93.75 C 56.25 93.75 54.6875 90.625 54.6875 90.625 C 54.6875 90.625 53.125 93.75 50 93.75 C 46.875 93.75 45.3125 90.625 45.3125 90.625 C 45.3125 90.625 43.75 93.75 40.625 93.75 C 37.5 93.75 35.9375 89.0625 35.9375 84.375 C 35.9375 79.6875 38.3125 79.207031 38.3125 72.867188 C 38.3125 66.527344 35.9375 64.0625 35.9375 59.375 L 35.9375 37.5 C 35.9375 32.8125 38.703125 29.390625 41.679688 24.085938 C 44.652344 18.78125 46.875 10.9375 46.875 10.9375 L 46.875 7.8125 L 53.125 7.8125 Z M 53.125 10.9375 "/>
<path style=" stroke:none;fill-rule:nonzero;fill:rgb(92.156863%,34.509804%,28.627451%);fill-opacity:1;" d="M 45.3125 4.6875 L 54.6875 4.6875 L 54.6875 10.9375 L 45.3125 10.9375 Z M 45.3125 4.6875 "/>
<path style=" stroke:none;fill-rule:nonzero;fill:rgb(92.156863%,34.509804%,28.627451%);fill-opacity:1;" d="M 35.9375 37.5 L 64.0625 37.5 L 64.0625 59.375 L 35.9375 59.375 Z M 35.9375 37.5 "/>
<path style=" stroke:none;fill-rule:nonzero;fill:rgb(89.019608%,89.411765%,88.627451%);fill-opacity:1;" d="M 54.6875 48.4375 C 54.6875 51.027344 52.589844 53.125 50 53.125 C 47.410156 53.125 45.3125 51.027344 45.3125 48.4375 C 45.3125 45.847656 47.410156 43.75 50 43.75 C 52.589844 43.75 54.6875 45.847656 54.6875 48.4375 Z M 54.6875 48.4375 "/>
<path style=" stroke:none;fill-rule:nonzero;fill:rgb(0%,0%,0%);fill-opacity:1;" d="M 59.683594 23.320312 C 57.703125 19.792969 56.046875 15.019531 55.210938 12.410156 C 55.832031 12.1875 56.25 11.597656 56.25 10.9375 L 56.25 4.6875 C 56.25 3.824219 55.550781 3.125 54.6875 3.125 L 45.3125 3.125 C 44.449219 3.125 43.75 3.824219 43.75 4.6875 L 43.75 10.9375 C 43.75 11.597656 44.167969 12.1875 44.789062 12.410156 C 43.957031 15.015625 42.296875 19.789062 40.316406 23.320312 C 39.714844 24.394531 39.121094 25.386719 38.546875 26.347656 C 36.308594 30.101562 34.375 33.347656 34.375 37.5 L 34.375 59.375 C 34.375 61.773438 34.945312 63.667969 35.496094 65.503906 C 36.113281 67.558594 36.75 69.6875 36.75 72.867188 C 36.75 75.976562 36.164062 77.441406 35.542969 78.996094 C 34.96875 80.425781 34.375 81.90625 34.375 84.375 C 34.375 87.046875 34.839844 89.558594 35.679688 91.453125 C 37.171875 94.8125 39.417969 95.3125 40.625 95.3125 C 42.757812 95.3125 44.308594 94.25 45.3125 93.21875 C 46.316406 94.25 47.867188 95.3125 50 95.3125 C 52.132812 95.3125 53.683594 94.25 54.6875 93.21875 C 55.691406 94.25 57.242188 95.3125 59.375 95.3125 C 60.582031 95.3125 62.828125 94.8125 64.320312 91.453125 C 65.160156 89.558594 65.625 87.046875 65.625 84.375 C 65.625 81.90625 65.03125 80.425781 64.457031 78.996094 C 63.835938 77.441406 63.25 75.976562 63.25 72.867188 C 63.25 69.6875 63.886719 67.558594 64.503906 65.503906 C 65.054688 63.667969 65.625 61.773438 65.625 59.375 L 65.625 37.5 C 65.625 33.347656 63.691406 30.101562 61.453125 26.347656 C 60.878906 25.386719 60.285156 24.394531 59.683594 23.320312 Z M 46.875 6.25 L 53.125 6.25 L 53.125 9.375 L 46.875 9.375 Z M 41.230469 27.949219 C 41.816406 26.972656 42.417969 25.960938 43.039062 24.851562 C 45.421875 20.601562 47.300781 14.90625 48.039062 12.5 L 51.960938 12.5 C 52.699219 14.90625 54.578125 20.601562 56.960938 24.851562 C 57.582031 25.960938 58.183594 26.972656 58.769531 27.949219 C 60.582031 30.992188 61.96875 33.328125 62.375 35.9375 L 37.625 35.9375 C 38.03125 33.328125 39.417969 30.988281 41.230469 27.949219 Z M 37.5 57.8125 L 37.5 39.0625 L 62.5 39.0625 L 62.5 57.8125 Z M 59.375 92.1875 C 57.277344 92.1875 56.09375 89.941406 56.085938 89.925781 C 55.824219 89.394531 55.285156 89.058594 54.691406 89.058594 C 54.101562 89.054688 53.558594 89.390625 53.292969 89.917969 C 53.28125 89.941406 52.097656 92.1875 50 92.1875 C 47.902344 92.1875 46.71875 89.941406 46.710938 89.925781 C 46.445312 89.398438 45.902344 89.0625 45.3125 89.0625 C 44.722656 89.0625 44.179688 89.398438 43.914062 89.925781 C 43.902344 89.949219 42.726562 92.1875 40.625 92.1875 C 38.902344 92.1875 37.5 88.683594 37.5 84.375 C 37.5 82.507812 37.914062 81.472656 38.441406 80.15625 C 39.113281 78.480469 39.875 76.578125 39.875 72.867188 C 39.875 69.226562 39.140625 66.773438 38.488281 64.605469 C 38.109375 63.339844 37.769531 62.195312 37.605469 60.9375 L 62.394531 60.9375 C 62.230469 62.195312 61.890625 63.339844 61.511719 64.605469 C 60.859375 66.773438 60.125 69.226562 60.125 72.867188 C 60.125 76.578125 60.886719 78.480469 61.558594 80.15625 C 62.085938 81.472656 62.5 82.507812 62.5 84.375 C 62.5 88.683594 61.097656 92.1875 59.375 92.1875 Z M 59.375 92.1875 "/>
<path style=" stroke:none;fill-rule:nonzero;fill:rgb(0%,0%,0%);fill-opacity:1;" d="M 50 42.1875 C 46.546875 42.1875 43.75 44.984375 43.75 48.4375 C 43.75 51.890625 46.546875 54.6875 50 54.6875 C 53.453125 54.6875 56.25 51.890625 56.25 48.4375 C 56.246094 44.988281 53.449219 42.191406 50 42.1875 Z M 50 51.5625 C 48.273438 51.5625 46.875 50.164062 46.875 48.4375 C 46.875 46.710938 48.273438 45.3125 50 45.3125 C 51.726562 45.3125 53.125 46.710938 53.125 48.4375 C 53.121094 50.164062 51.726562 51.558594 50 51.5625 Z M 50 51.5625 "/>
<path style=" stroke:none;fill-rule:nonzero;fill:rgb(0%,0%,0%);fill-opacity:1;" d="M 90.625 59.375 L 90.625 37.5 C 90.625 33.347656 88.691406 30.101562 86.453125 26.347656 C 85.878906 25.386719 85.285156 24.394531 84.683594 23.320312 C 82.703125 19.789062 81.046875 15.015625 80.210938 12.40625 C 80.832031 12.1875 81.25 11.597656 81.25 10.9375 L 81.25 4.6875 C 81.25 3.824219 80.550781 3.125 79.6875 3.125 L 70.3125 3.125 C 69.449219 3.125 68.75 3.824219 68.75 4.6875 L 68.75 10.9375 C 68.75 11.597656 69.167969 12.1875 69.789062 12.410156 C 68.953125 15.019531 67.296875 19.792969 65.316406 23.320312 C 65.007812 23.867188 64.679688 24.4375 64.277344 25.117188 L 66.972656 26.703125 C 67.382812 26.007812 67.722656 25.414062 68.039062 24.847656 C 70.421875 20.601562 72.300781 14.902344 73.039062 12.5 L 76.960938 12.5 C 77.699219 14.902344 79.578125 20.601562 81.960938 24.847656 C 82.582031 25.960938 83.183594 26.96875 83.769531 27.949219 C 85.582031 30.988281 86.96875 33.324219 87.375 35.9375 L 68.75 35.9375 L 68.75 39.0625 L 87.5 39.0625 L 87.5 57.8125 L 68.75 57.8125 L 68.75 60.9375 L 87.394531 60.9375 C 87.230469 62.195312 86.890625 63.339844 86.511719 64.601562 C 85.859375 66.769531 85.125 69.226562 85.125 72.867188 C 85.125 76.578125 85.886719 78.476562 86.558594 80.15625 C 87.085938 81.472656 87.5 82.507812 87.5 84.375 C 87.5 88.683594 86.097656 92.1875 84.375 92.1875 C 82.277344 92.1875 81.09375 89.941406 81.085938 89.925781 C 80.824219 89.394531 80.285156 89.058594 79.691406 89.058594 C 79.101562 89.054688 78.558594 89.390625 78.292969 89.917969 C 78.28125 89.941406 77.097656 92.1875 75 92.1875 C 72.902344 92.1875 71.71875 89.941406 71.710938 89.925781 C 71.445312 89.398438 70.902344 89.0625 70.3125 89.0625 C 69.722656 89.0625 69.179688 89.398438 68.914062 89.925781 C 68.90625 89.941406 68.085938 91.480469 66.648438 92.003906 L 67.726562 94.941406 C 68.707031 94.566406 69.59375 93.980469 70.316406 93.226562 C 71.320312 94.253906 72.871094 95.3125 75 95.3125 C 77.132812 95.3125 78.683594 94.25 79.6875 93.21875 C 80.691406 94.25 82.242188 95.3125 84.375 95.3125 C 85.582031 95.3125 87.828125 94.8125 89.320312 91.453125 C 90.160156 89.558594 90.625 87.046875 90.625 84.375 C 90.625 81.90625 90.03125 80.425781 89.457031 78.996094 C 88.835938 77.441406 88.25 75.976562 88.25 72.867188 C 88.25 69.6875 88.886719 67.558594 89.503906 65.503906 C 90.054688 63.667969 90.625 61.773438 90.625 59.375 Z M 71.875 6.25 L 78.125 6.25 L 78.125 9.375 L 71.875 9.375 Z M 71.875 6.25 "/>
<path style=" stroke:none;fill-rule:nonzero;fill:rgb(0%,0%,0%);fill-opacity:1;" d="M 81.25 48.4375 C 81.25 44.984375 78.453125 42.1875 75 42.1875 C 71.546875 42.1875 68.75 44.984375 68.75 48.4375 C 68.75 51.890625 71.546875 54.6875 75 54.6875 C 78.449219 54.683594 81.246094 51.886719 81.25 48.4375 Z M 71.875 48.4375 C 71.875 46.710938 73.273438 45.3125 75 45.3125 C 76.726562 45.3125 78.125 46.710938 78.125 48.4375 C 78.125 50.164062 76.726562 51.5625 75 51.5625 C 73.273438 51.558594 71.878906 50.164062 71.875 48.4375 Z M 71.875 48.4375 "/>
<path style=" stroke:none;fill-rule:nonzero;fill:rgb(0%,0%,0%);fill-opacity:1;" d="M 31.085938 89.925781 C 30.820312 89.398438 30.277344 89.0625 29.6875 89.0625 C 29.097656 89.0625 28.554688 89.398438 28.289062 89.925781 C 28.277344 89.949219 27.101562 92.1875 25 92.1875 C 22.902344 92.1875 21.71875 89.941406 21.710938 89.925781 C 21.449219 89.394531 20.910156 89.058594 20.316406 89.058594 C 19.726562 89.054688 19.183594 89.390625 18.917969 89.917969 C 18.90625 89.941406 17.722656 92.1875 15.625 92.1875 C 13.902344 92.1875 12.5 88.683594 12.5 84.375 C 12.5 82.507812 12.914062 81.472656 13.441406 80.15625 C 14.113281 78.480469 14.875 76.578125 14.875 72.867188 C 14.875 69.226562 14.140625 66.773438 13.488281 64.605469 C 13.109375 63.339844 12.769531 62.195312 12.605469 60.9375 L 31.25 60.9375 L 31.25 57.8125 L 12.5 57.8125 L 12.5 39.0625 L 31.25 39.0625 L 31.25 35.9375 L 12.625 35.9375 C 13.03125 33.328125 14.417969 30.988281 16.230469 27.949219 C 16.816406 26.972656 17.417969 25.960938 18.039062 24.851562 C 20.421875 20.601562 22.300781 14.90625 23.039062 12.5 L 26.960938 12.5 C 27.699219 14.90625 29.578125 20.601562 31.960938 24.851562 C 32.277344 25.417969 32.617188 26.007812 33.03125 26.707031 L 35.722656 25.121094 C 35.320312 24.441406 34.992188 23.871094 34.6875 23.324219 C 32.707031 19.792969 31.046875 15.019531 30.210938 12.410156 C 30.832031 12.1875 31.25 11.597656 31.25 10.9375 L 31.25 4.6875 C 31.25 3.824219 30.550781 3.125 29.6875 3.125 L 20.3125 3.125 C 19.449219 3.125 18.75 3.824219 18.75 4.6875 L 18.75 10.9375 C 18.75 11.597656 19.167969 12.1875 19.789062 12.410156 C 18.953125 15.019531 17.296875 19.792969 15.316406 23.320312 C 14.714844 24.394531 14.121094 25.386719 13.546875 26.347656 C 11.308594 30.101562 9.375 33.347656 9.375 37.5 L 9.375 59.375 C 9.375 61.773438 9.945312 63.667969 10.496094 65.503906 C 11.113281 67.558594 11.75 69.6875 11.75 72.867188 C 11.75 75.972656 11.164062 77.441406 10.542969 78.996094 C 9.96875 80.425781 9.375 81.90625 9.375 84.375 C 9.375 87.042969 9.839844 89.558594 10.679688 91.453125 C 12.171875 94.8125 14.417969 95.3125 15.625 95.3125 C 17.757812 95.3125 19.308594 94.25 20.3125 93.21875 C 21.316406 94.25 22.867188 95.3125 25 95.3125 C 27.128906 95.3125 28.679688 94.253906 29.683594 93.226562 C 30.410156 93.984375 31.292969 94.570312 32.273438 94.941406 L 33.351562 92.003906 C 31.898438 91.472656 31.089844 89.933594 31.085938 89.925781 Z M 21.875 6.25 L 28.125 6.25 L 28.125 9.375 L 21.875 9.375 Z M 21.875 6.25 "/>
<path style=" stroke:none;fill-rule:nonzero;fill:rgb(0%,0%,0%);fill-opacity:1;" d="M 18.75 48.4375 C 18.75 51.890625 21.546875 54.6875 25 54.6875 C 28.453125 54.6875 31.25 51.890625 31.25 48.4375 C 31.25 44.984375 28.453125 42.1875 25 42.1875 C 21.550781 42.191406 18.753906 44.988281 18.75 48.4375 Z M 28.125 48.4375 C 28.125 50.164062 26.726562 51.5625 25 51.5625 C 23.273438 51.5625 21.875 50.164062 21.875 48.4375 C 21.875 46.710938 23.273438 45.3125 25 45.3125 C 26.726562 45.316406 28.121094 46.710938 28.125 48.4375 Z M 28.125 48.4375 "/>
</g>
</svg>
