<?xml version="1.0" encoding="UTF-8"?>
<svg xmlns="http://www.w3.org/2000/svg" xmlns:xlink="http://www.w3.org/1999/xlink" width="200pt" height="200pt" viewBox="0 0 200 200" version="1.1">
<g id="surface1">
<path style=" stroke:none;fill-rule:nonzero;fill:rgb(100%,100%,100%);fill-opacity:1;" d="M 80.734375 100.042969 L 155.554688 25.21875 C 157.613281 23.164062 158.746094 20.417969 158.746094 17.484375 C 158.746094 14.554688 157.613281 11.808594 155.554688 9.75 L 149 3.195312 C 146.941406 1.136719 144.191406 0 141.261719 0 C 138.332031 0 135.585938 1.136719 133.527344 3.195312 L 44.441406 92.28125 C 42.375 94.34375 41.242188 97.105469 41.253906 100.039062 C 41.242188 102.984375 42.375 105.738281 44.441406 107.804688 L 133.445312 196.804688 C 135.503906 198.863281 138.25 200 141.179688 200 C 144.109375 200 146.855469 198.863281 148.917969 196.804688 L 155.472656 190.25 C 159.738281 185.984375 159.738281 179.042969 155.472656 174.777344 Z M 80.734375 100.042969 "/>
</g>
</svg>
