<?xml version="1.0" encoding="UTF-8"?>
<svg xmlns="http://www.w3.org/2000/svg" xmlns:xlink="http://www.w3.org/1999/xlink" width="200pt" height="200pt" viewBox="0 0 200 200" version="1.1">
<g id="surface1">
<path style=" stroke:none;fill-rule:nonzero;fill:rgb(100%,100%,100%);fill-opacity:1;" d="M 155.558594 92.195312 L 66.554688 3.195312 C 64.496094 1.136719 61.75 0 58.820312 0 C 55.890625 0 53.140625 1.136719 51.082031 3.195312 L 44.527344 9.746094 C 40.265625 14.019531 40.265625 20.957031 44.527344 25.222656 L 119.265625 99.957031 L 44.445312 174.777344 C 42.386719 176.839844 41.25 179.585938 41.25 182.515625 C 41.25 185.445312 42.386719 188.191406 44.445312 190.253906 L 51 196.804688 C 53.058594 198.863281 55.808594 200 58.738281 200 C 61.667969 200 64.414062 198.863281 66.472656 196.804688 L 155.558594 107.722656 C 157.621094 105.65625 158.753906 102.898438 158.75 99.964844 C 158.753906 97.019531 157.621094 94.261719 155.558594 92.195312 Z M 155.558594 92.195312 "/>
</g>
</svg>
