<?xml version="1.0" encoding="UTF-8"?>
<svg xmlns="http://www.w3.org/2000/svg" xmlns:xlink="http://www.w3.org/1999/xlink" width="100pt" height="100pt" viewBox="0 0 100 100" version="1.1">
<g id="surface1">
<path style=" stroke:none;fill-rule:nonzero;fill:rgb(100%,100%,100%);fill-opacity:1;" d="M 62.078125 0 L 83.792969 0 C 85.144531 0 86.238281 1.09375 86.238281 2.445312 L 86.238281 97.554688 C 86.238281 98.90625 85.144531 100 83.792969 100 L 62.078125 100 C 60.726562 100 59.632812 98.90625 59.632812 97.554688 L 59.632812 2.445312 C 59.632812 1.09375 60.726562 0 62.078125 0 Z M 62.078125 0 "/>
<path style=" stroke:none;fill-rule:nonzero;fill:rgb(100%,100%,100%);fill-opacity:1;" d="M 16.207031 0 L 37.921875 0 C 39.273438 0 40.367188 1.09375 40.367188 2.445312 L 40.367188 97.554688 C 40.367188 98.90625 39.273438 100 37.921875 100 L 16.207031 100 C 14.855469 100 13.761719 98.90625 13.761719 97.554688 L 13.761719 2.445312 C 13.761719 1.09375 14.855469 0 16.207031 0 Z M 16.207031 0 "/>
</g>
</svg>
