<?xml version="1.0" encoding="UTF-8"?>
<svg xmlns="http://www.w3.org/2000/svg" xmlns:xlink="http://www.w3.org/1999/xlink" width="30pt" height="30pt" viewBox="0 0 30 30" version="1.1">
<g id="surface1">
<path style=" stroke:none;fill-rule:nonzero;fill:rgb(90.196078%,10.196078%,15.294118%);fill-opacity:1;" d="M 12.109375 15.007812 L 23.332031 3.78125 C 23.640625 3.476562 23.8125 3.0625 23.8125 2.621094 C 23.8125 2.183594 23.640625 1.769531 23.332031 1.460938 L 22.351562 0.480469 C 22.042969 0.171875 21.628906 0 21.1875 0 C 20.75 0 20.335938 0.171875 20.027344 0.480469 L 6.667969 13.84375 C 6.355469 14.152344 6.1875 14.566406 6.1875 15.003906 C 6.1875 15.449219 6.355469 15.859375 6.667969 16.171875 L 20.015625 29.519531 C 20.324219 29.828125 20.738281 30 21.175781 30 C 21.617188 30 22.027344 29.828125 22.335938 29.519531 L 23.320312 28.539062 C 23.960938 27.898438 23.960938 26.855469 23.320312 26.21875 Z M 12.109375 15.007812 "/>
</g>
</svg>
