<?xml version="1.0" encoding="UTF-8"?>
<svg xmlns="http://www.w3.org/2000/svg" xmlns:xlink="http://www.w3.org/1999/xlink" width="35pt" height="35pt" viewBox="0 0 35 35" version="1.1">
<g id="surface1">
<path style=" stroke:none;fill-rule:nonzero;fill:rgb(90.196078%,10.196078%,15.294118%);fill-opacity:1;" d="M 31.613281 1.695312 L 3.386719 1.695312 C 1.523438 1.695312 0 3.21875 0 5.082031 C 0 6.945312 1.523438 8.46875 3.386719 8.46875 L 31.613281 8.46875 C 33.476562 8.46875 35 6.945312 35 5.082031 C 35 3.21875 33.476562 1.695312 31.613281 1.695312 Z M 31.613281 1.695312 "/>
<path style=" stroke:none;fill-rule:nonzero;fill:rgb(90.196078%,10.196078%,15.294118%);fill-opacity:1;" d="M 31.613281 14.113281 L 3.386719 14.113281 C 1.523438 14.113281 0 15.636719 0 17.5 C 0 19.363281 1.523438 20.886719 3.386719 20.886719 L 31.613281 20.886719 C 33.476562 20.886719 35 19.363281 35 17.5 C 35 15.636719 33.476562 14.113281 31.613281 14.113281 Z M 31.613281 14.113281 "/>
<path style=" stroke:none;fill-rule:nonzero;fill:rgb(90.196078%,10.196078%,15.294118%);fill-opacity:1;" d="M 31.613281 26.53125 L 3.386719 26.53125 C 1.523438 26.53125 0 28.054688 0 29.917969 C 0 31.78125 1.523438 33.304688 3.386719 33.304688 L 31.613281 33.304688 C 33.476562 33.304688 35 31.78125 35 29.917969 C 35 28.054688 33.476562 26.53125 31.613281 26.53125 Z M 31.613281 26.53125 "/>
</g>
</svg>
