<?xml version="1.0" encoding="UTF-8"?>
<svg xmlns="http://www.w3.org/2000/svg" xmlns:xlink="http://www.w3.org/1999/xlink" width="30pt" height="30pt" viewBox="0 0 30 30" version="1.1">
<g id="surface1">
<path style=" stroke:none;fill-rule:nonzero;fill:rgb(90.196078%,10.196078%,15.294118%);fill-opacity:1;" d="M 23.332031 13.828125 L 9.984375 0.480469 C 9.675781 0.171875 9.261719 0 8.824219 0 C 8.382812 0 7.972656 0.171875 7.664062 0.480469 L 6.679688 1.460938 C 6.039062 2.101562 6.039062 3.144531 6.679688 3.78125 L 17.890625 14.992188 L 6.667969 26.21875 C 6.359375 26.527344 6.1875 26.9375 6.1875 27.378906 C 6.1875 27.816406 6.359375 28.230469 6.667969 28.539062 L 7.648438 29.519531 C 7.960938 29.828125 8.371094 30 8.808594 30 C 9.25 30 9.664062 29.828125 9.972656 29.519531 L 23.332031 16.160156 C 23.644531 15.847656 23.8125 15.433594 23.8125 14.996094 C 23.8125 14.554688 23.644531 14.140625 23.332031 13.828125 Z M 23.332031 13.828125 "/>
</g>
</svg>
