<?xml version="1.0" encoding="UTF-8"?>
<svg xmlns="http://www.w3.org/2000/svg" xmlns:xlink="http://www.w3.org/1999/xlink" width="45pt" height="45pt" viewBox="0 0 45 45" version="1.1">
<g id="surface1">
<path style=" stroke:none;fill-rule:nonzero;fill:rgb(60%,60%,60%);fill-opacity:1;" d="M 18.15625 16.976562 L 17.894531 16.5 L 2.097656 16.5 L 1.839844 16.976562 C 0.507812 19.410156 -0.0742188 21.855469 0.0078125 24.679688 C 0.0117188 24.828125 0.0195312 24.972656 0.0234375 25.105469 L 19.972656 25.105469 C 19.976562 24.972656 19.984375 24.828125 19.988281 24.679688 C 20.070312 21.855469 19.488281 19.410156 18.15625 16.976562 Z M 18.15625 16.976562 "/>
<path style=" stroke:none;fill-rule:nonzero;fill:rgb(60%,60%,60%);fill-opacity:1;" d="M 19.117188 30.972656 L 19.117188 30.964844 C 19.332031 29.863281 19.542969 28.792969 19.703125 27.742188 L 0.292969 27.742188 C 0.453125 28.792969 0.660156 29.867188 0.878906 30.972656 C 0.964844 31.421875 1.054688 31.875 1.140625 32.332031 C 1.84375 36.082031 1.714844 40.84375 0.769531 44.449219 C 0.738281 44.582031 0.765625 44.722656 0.847656 44.828125 C 0.929688 44.9375 1.0625 45 1.195312 45 L 18.796875 45 C 18.933594 45 19.0625 44.9375 19.144531 44.828125 C 19.230469 44.722656 19.257812 44.582031 19.222656 44.449219 C 18.277344 40.84375 18.152344 36.082031 18.855469 32.332031 C 18.941406 31.875 19.03125 31.421875 19.117188 30.972656 Z M 8.238281 39.824219 C 8.238281 40.550781 7.648438 41.140625 6.921875 41.140625 C 6.195312 41.140625 5.605469 40.550781 5.605469 39.824219 L 5.605469 31.882812 C 5.605469 31.15625 6.195312 30.566406 6.921875 30.566406 C 7.648438 30.566406 8.238281 31.15625 8.238281 31.882812 Z M 14.390625 39.824219 C 14.390625 40.550781 13.800781 41.140625 13.074219 41.140625 C 12.34375 41.140625 11.753906 40.550781 11.753906 39.824219 L 11.753906 31.882812 C 11.753906 31.15625 12.34375 30.566406 13.074219 30.566406 C 13.800781 30.566406 14.390625 31.15625 14.390625 31.882812 Z M 14.390625 39.824219 "/>
<path style=" stroke:none;fill-rule:nonzero;fill:rgb(60%,60%,60%);fill-opacity:1;" d="M 5.59375 2.636719 L 14.398438 2.636719 C 15.128906 2.636719 15.71875 2.046875 15.71875 1.316406 C 15.71875 0.589844 15.128906 0 14.398438 0 L 5.59375 0 C 4.867188 0 4.277344 0.589844 4.277344 1.316406 C 4.277344 2.046875 4.867188 2.636719 5.59375 2.636719 Z M 5.59375 2.636719 "/>
<path style=" stroke:none;fill-rule:nonzero;fill:rgb(60%,60%,60%);fill-opacity:1;" d="M 15.058594 11.207031 C 14.121094 9.328125 13.910156 7.347656 13.886719 5.273438 L 6.105469 5.273438 C 6.085938 7.347656 5.875 9.328125 4.933594 11.207031 C 4.460938 12.15625 4.015625 13.019531 3.570312 13.863281 L 16.425781 13.863281 C 15.980469 13.019531 15.535156 12.15625 15.058594 11.207031 Z M 15.058594 11.207031 "/>
</g>
</svg>
