<?xml version="1.0" encoding="UTF-8"?>
<svg xmlns="http://www.w3.org/2000/svg" xmlns:xlink="http://www.w3.org/1999/xlink" width="80pt" height="80pt" viewBox="0 0 80 80" version="1.1">
<g id="surface1">
<path style=" stroke:none;fill-rule:nonzero;fill:rgb(90.196078%,10.196078%,15.294118%);fill-opacity:1;" d="M 32.277344 30.183594 L 31.8125 29.332031 L 3.730469 29.332031 L 3.269531 30.183594 C 0.902344 34.507812 -0.132812 38.855469 0.0117188 43.871094 C 0.0195312 44.140625 0.03125 44.394531 0.0429688 44.628906 L 35.503906 44.628906 C 35.515625 44.394531 35.527344 44.136719 35.535156 43.871094 C 35.679688 38.859375 34.644531 34.507812 32.277344 30.183594 Z M 32.277344 30.183594 "/>
<path style=" stroke:none;fill-rule:nonzero;fill:rgb(90.196078%,10.196078%,15.294118%);fill-opacity:1;" d="M 33.984375 55.066406 L 33.988281 55.046875 C 34.371094 53.085938 34.742188 51.1875 35.027344 49.316406 L 0.519531 49.316406 C 0.804688 51.191406 1.175781 53.09375 1.558594 55.0625 C 1.714844 55.859375 1.871094 56.664062 2.023438 57.480469 C 3.277344 64.144531 3.050781 72.613281 1.371094 79.019531 C 1.308594 79.253906 1.359375 79.503906 1.507812 79.695312 C 1.65625 79.886719 1.886719 80 2.125 80 L 33.417969 80 C 33.660156 80 33.890625 79.886719 34.039062 79.695312 C 34.183594 79.503906 34.238281 79.253906 34.175781 79.019531 C 32.496094 72.613281 32.269531 64.144531 33.519531 57.480469 C 33.671875 56.664062 33.832031 55.863281 33.984375 55.066406 Z M 14.648438 70.796875 C 14.648438 72.089844 13.601562 73.140625 12.304688 73.140625 C 11.011719 73.140625 9.960938 72.089844 9.960938 70.796875 L 9.960938 56.679688 C 9.960938 55.386719 11.011719 54.339844 12.304688 54.339844 C 13.601562 54.339844 14.648438 55.386719 14.648438 56.679688 Z M 25.585938 70.796875 C 25.585938 72.089844 24.535156 73.140625 23.242188 73.140625 C 21.945312 73.140625 20.898438 72.089844 20.898438 70.796875 L 20.898438 56.679688 C 20.898438 55.386719 21.945312 54.339844 23.242188 54.339844 C 24.535156 54.339844 25.585938 55.386719 25.585938 56.679688 Z M 25.585938 70.796875 "/>
<path style=" stroke:none;fill-rule:nonzero;fill:rgb(90.196078%,10.196078%,15.294118%);fill-opacity:1;" d="M 9.945312 4.6875 L 25.601562 4.6875 C 26.894531 4.6875 27.945312 3.636719 27.945312 2.34375 C 27.945312 1.050781 26.894531 0 25.601562 0 L 9.945312 0 C 8.652344 0 7.601562 1.050781 7.601562 2.34375 C 7.601562 3.636719 8.652344 4.6875 9.945312 4.6875 Z M 9.945312 4.6875 "/>
<path style=" stroke:none;fill-rule:nonzero;fill:rgb(90.196078%,10.196078%,15.294118%);fill-opacity:1;" d="M 26.773438 19.921875 C 25.105469 16.582031 24.730469 13.058594 24.6875 9.371094 L 10.859375 9.371094 C 10.816406 13.058594 10.441406 16.582031 8.773438 19.921875 C 7.929688 21.613281 7.136719 23.148438 6.34375 24.644531 L 29.199219 24.644531 C 28.410156 23.148438 27.617188 21.613281 26.773438 19.921875 Z M 26.773438 19.921875 "/>
</g>
</svg>
