<?xml version="1.0" encoding="UTF-8"?>
<svg xmlns="http://www.w3.org/2000/svg" xmlns:xlink="http://www.w3.org/1999/xlink" width="50pt" height="50pt" viewBox="0 0 50 50" version="1.1">
<g id="surface1">
<path style=" stroke:none;fill-rule:nonzero;fill:rgb(19.215686%,30.588235%,33.333333%);fill-opacity:1;" d="M 43.660156 27.476562 C 43.503906 27.140625 43.164062 26.921875 42.789062 26.921875 L 34.628906 26.921875 L 30.589844 2.695312 C 30.339844 1.183594 28.941406 0 27.40625 0 L 22.59375 0 C 21.0625 0 19.660156 1.183594 19.410156 2.695312 L 15.371094 26.921875 L 7.210938 26.921875 C 6.835938 26.921875 6.496094 27.140625 6.339844 27.480469 C 6.183594 27.816406 6.234375 28.21875 6.476562 28.503906 L 24.265625 49.65625 C 24.445312 49.875 24.714844 50 25 50 C 25.285156 50 25.554688 49.875 25.734375 49.65625 L 43.523438 28.503906 C 43.765625 28.21875 43.816406 27.816406 43.660156 27.476562 Z M 43.660156 27.476562 "/>
<path style=" stroke:none;fill-rule:nonzero;fill:rgb(90.196078%,37.254902%,34.509804%);fill-opacity:1;" d="M 25 47.542969 L 9.277344 28.847656 L 16.1875 28.847656 C 16.65625 28.847656 17.058594 28.507812 17.136719 28.042969 L 21.304688 3.011719 C 21.402344 2.433594 22.003906 1.921875 22.59375 1.921875 L 27.40625 1.921875 C 27.996094 1.921875 28.597656 2.433594 28.695312 3.011719 L 32.867188 28.042969 C 32.941406 28.507812 33.34375 28.847656 33.816406 28.847656 L 40.722656 28.847656 Z M 25 47.542969 "/>
</g>
</svg>
